<svg xmlns="http://www.w3.org/2000/svg" width="70" height="70" fill="none"><rect width="70" height="70" fill="url(#a)" rx="7.778"/><g filter="url(#b)"><path fill="url(#c)" d="m13.344 50 12.058-30.98h7.406L44.911 50h-6.367l-2.484-6.593H21.88L19.394 50h-6.051ZM23.73 38.439h10.432l-3.116-8.4-.452-1.13a88.51 88.51 0 0 0-.496-1.535l-.543-1.716a99.858 99.858 0 0 0-.496-1.535h-.226c-.18.602-.407 1.294-.677 2.077a64.182 64.182 0 0 1-1.31 3.839l-3.116 8.4ZM48.569 50V19.02h5.87V50h-5.87Z"/></g><path fill="#fff" d="M19.842 5.902a.55.55 0 0 0-1.065 0c-.168.67-.405 1.119-.726 1.439-.32.32-.768.557-1.438.725a.55.55 0 0 0 0 1.066c.67.167 1.118.405 1.439.725.32.32.557.768.725 1.438a.55.55 0 0 0 1.065 0c.168-.67.405-1.118.726-1.438.32-.32.768-.558 1.438-.725a.55.55 0 0 0 0-1.066c-.67-.168-1.118-.405-1.439-.725-.32-.32-.557-.768-.725-1.439Zm-8.513 6.316a.55.55 0 0 0-1.066 0c-.325 1.298-.798 2.217-1.47 2.89-.674.674-1.593 1.146-2.89 1.471a.55.55 0 0 0 0 1.066c1.297.324 2.216.797 2.89 1.47.672.674 1.145 1.592 1.47 2.89a.55.55 0 0 0 1.066 0c.324-1.298.797-2.216 1.47-2.89.673-.673 1.592-1.146 2.89-1.47a.55.55 0 0 0 0-1.066c-1.298-.325-2.217-.797-2.89-1.47-.673-.674-1.146-1.593-1.47-2.89Z"/><defs><linearGradient id="a" x1="3.186" x2="65.187" y1="1.959" y2="68.58" gradientUnits="userSpaceOnUse"><stop stop-color="#122359"/><stop offset="1" stop-color="#0D5CA7"/></linearGradient><linearGradient id="c" x1="26.895" x2="45.39" y1="18.565" y2="56.688" gradientUnits="userSpaceOnUse"><stop stop-color="#DEE9FD"/><stop offset="1" stop-color="#fff"/></linearGradient><filter id="b" width="50.429" height="40.314" x="8.677" y="19.019" color-interpolation-filters="sRGB" filterUnits="userSpaceOnUse"><feFlood flood-opacity="0" result="BackgroundImageFix"/><feColorMatrix in="SourceAlpha" result="hardAlpha" values="0 0 0 0 0 0 0 0 0 0 0 0 0 0 0 0 0 0 127 0"/><feOffset dy="4.667"/><feGaussianBlur stdDeviation="2.333"/><feComposite in2="hardAlpha" operator="out"/><feColorMatrix values="0 0 0 0 0 0 0 0 0 0 0 0 0 0 0 0 0 0 0.5 0"/><feBlend in2="BackgroundImageFix" result="effect1_dropShadow_201_2333"/><feBlend in="SourceGraphic" in2="effect1_dropShadow_201_2333" result="shape"/></filter></defs></svg>