<svg xmlns="http://www.w3.org/2000/svg" width="106" height="40" fill="none"><g clip-path="url(#a)"><path fill="url(#b)" stroke="url(#c)" stroke-width=".667" d="M33.334.333H6.666A6.333 6.333 0 0 0 .333 6.667v26.666a6.333 6.333 0 0 0 6.334 6.334h26.666a6.333 6.333 0 0 0 6.334-6.334V6.667A6.333 6.333 0 0 0 33.333.333Z"/><mask id="f" width="40" height="40" x="0" y="0" maskUnits="userSpaceOnUse" style="mask-type:alpha"><path fill="url(#d)" stroke="url(#e)" stroke-width=".667" d="M33.334.333H6.666A6.333 6.333 0 0 0 .333 6.667v26.666a6.333 6.333 0 0 0 6.334 6.334h26.666a6.333 6.333 0 0 0 6.334-6.334V6.667A6.333 6.333 0 0 0 33.333.333Z"/></mask><g mask="url(#f)"><path fill="url(#g)" stroke="url(#h)" stroke-width=".018" d="M17.669 27.839c-.222.985-.957 1.625-1.87 1.934-.912.309-2 .287-2.925-.05-2.8-1.689-3.561-4.13-3.53-6.396.028-2.154.773-4.15 1.161-5.193l.058-.155c1.721-3.386 3.262-5.368 4.62-6.508 1.356-1.14 2.53-1.44 3.518-1.462 1.561.154 2.678.731 3.526 1.54.848.81 1.428 1.851 1.917 2.935.209.463.4.935.59 1.399l.095.232c.22.538.439 1.062.679 1.549.48.973 1.044 1.796 1.87 2.275.893.462 1.658.369 2.312.287l.007-.001c.651-.082 1.19-.15 1.64.35.656.905.472 2.096-.162 3.213s-1.716 2.157-2.85 2.759c-.782.394-1.445.548-2.008.51a2.192 2.192 0 0 1-1.416-.647c-.776-.754-1.24-2.093-1.556-3.642-.266-1.304-.425-2.755-.577-4.128l-.084-.762c-.18-1.585-.373-3.003-.743-3.873-.52-1.823-1.548-2.753-2.601-2.89-1.054-.138-2.127.518-2.731 1.857-.763 2.557-.142 5.123.491 7.624l.04.156c.62 2.447 1.224 4.83.529 7.087Z"/><path fill="#fff" d="M31.477 5.246a.324.324 0 0 0-.63 0c-.098.395-.238.66-.427.849-.19.189-.454.33-.85.428a.324.324 0 0 0 0 .63c.396.098.66.239.85.428.189.189.329.453.428.849a.324.324 0 0 0 .63 0c.098-.396.238-.66.427-.85.19-.188.454-.329.85-.428a.324.324 0 0 0 0-.629c-.396-.099-.66-.239-.85-.428-.189-.189-.329-.454-.428-.85ZM28.45 6.975a.324.324 0 0 0-.63 0c-.191.767-.47 1.31-.868 1.707-.397.397-.94.677-1.706.868a.324.324 0 0 0 0 .63c.766.191 1.309.47 1.706.868.398.397.677.94.868 1.706a.324.324 0 0 0 .63 0c.191-.766.47-1.309.868-1.706.398-.398.94-.677 1.707-.868a.324.324 0 0 0 0-.63c-.767-.191-1.31-.47-1.707-.868s-.677-.94-.868-1.707Z"/></g><path fill="#fff" d="m50.12 28 6.408-16.464h3.936L66.896 28h-3.384l-1.32-3.504h-7.536L53.336 28H50.12Zm5.52-6.144h5.544l-1.656-4.464-.24-.6c-.08-.256-.168-.528-.264-.816l-.288-.912a54.58 54.58 0 0 0-.264-.816h-.12c-.096.32-.216.688-.36 1.104a34.216 34.216 0 0 1-.696 2.04l-1.656 4.464Zm12.936-8.424v-2.784h2.928v2.784h-2.928Zm0 14.568V15.376h2.928V28h-2.928Zm6.047 0V10.648h2.928V28h-2.928Zm11.47.288c-1.344 0-2.464-.232-3.36-.696-.895-.48-1.568-1.208-2.016-2.184-.448-.976-.671-2.216-.671-3.72 0-1.52.223-2.76.671-3.72.448-.976 1.12-1.696 2.017-2.16.895-.48 2.016-.72 3.36-.72 1.216 0 2.232.232 3.047.696.832.448 1.456 1.144 1.872 2.088.416.944.624 2.168.624 3.672v.864h-8.591c.031.784.151 1.448.36 1.992.207.528.527.928.96 1.2.448.256 1.031.384 1.752.384.368 0 .712-.048 1.032-.144.32-.096.6-.24.84-.432.24-.208.424-.464.552-.768a2.44 2.44 0 0 0 .215-1.056h2.88c0 .8-.144 1.496-.431 2.088a3.763 3.763 0 0 1-1.177 1.464 5.13 5.13 0 0 1-1.751.864c-.672.192-1.4.288-2.184.288Zm-3-7.944h5.496c0-.528-.064-.976-.192-1.344a2.289 2.289 0 0 0-.504-.912 1.658 1.658 0 0 0-.767-.504 2.97 2.97 0 0 0-1.032-.168c-.624 0-1.152.104-1.584.312a2.143 2.143 0 0 0-.96.96c-.224.432-.376.984-.456 1.656ZM92.686 28l4.512-6.504-4.2-6.12h3.552l2.496 3.912h.144l2.544-3.912h3.336l-4.224 6.048L105.309 28h-3.504l-2.808-4.368h-.144L96.021 28h-3.336Z"/></g><defs><linearGradient id="b" x1="19.2" x2="17.843" y1="0" y2="39.958" gradientUnits="userSpaceOnUse"><stop stop-color="#073893"/><stop offset="1" stop-color="#1362F8"/></linearGradient><linearGradient id="c" x1="19.2" x2="17.843" y1="0" y2="39.958" gradientUnits="userSpaceOnUse"><stop stop-color="#3469CF"/><stop offset="1" stop-color="#0A2354"/></linearGradient><linearGradient id="d" x1="19.2" x2="17.843" y1="0" y2="39.958" gradientUnits="userSpaceOnUse"><stop stop-color="#0D41A4"/><stop offset="1" stop-color="#0A204C"/></linearGradient><linearGradient id="e" x1="19.2" x2="17.843" y1="0" y2="39.958" gradientUnits="userSpaceOnUse"><stop stop-color="#3469CF"/><stop offset="1" stop-color="#0A2354"/></linearGradient><linearGradient id="g" x1="20.666" x2="20.545" y1="18" y2="30" gradientUnits="userSpaceOnUse"><stop stop-color="#fff"/><stop offset="1" stop-color="#fff" stop-opacity=".6"/></linearGradient><linearGradient id="h" x1="20.097" x2="19.492" y1="10" y2="29.984" gradientUnits="userSpaceOnUse"><stop stop-color="#3469CF"/><stop offset="1" stop-color="#0A2354"/></linearGradient><clipPath id="a"><path fill="#fff" d="M0 0h106v40H0z"/></clipPath></defs></svg>