<svg xmlns="http://www.w3.org/2000/svg" width="15" height="15" fill="none"><path fill="#fff" fill-rule="evenodd" d="M9.204.773c-.934-1-2.52-1-3.455 0a2.365 2.365 0 0 1-1.807.75 2.365 2.365 0 0 0-2.443 2.442A2.365 2.365 0 0 1 .75 5.773c-1 .934-1 2.52 0 3.455.499.466.772 1.125.749 1.807a2.365 2.365 0 0 0 2.443 2.443 2.365 2.365 0 0 1 1.807.749c.935 1 2.52 1 3.455 0a2.364 2.364 0 0 1 1.807-.749 2.365 2.365 0 0 0 2.444-2.443 2.364 2.364 0 0 1 .748-1.807c1-.935 1-2.52 0-3.455a2.364 2.364 0 0 1-.748-1.808 2.365 2.365 0 0 0-2.444-2.443A2.364 2.364 0 0 1 9.204.773Zm1.29 5.25a.56.56 0 0 0-.801-.785l-3.145 3.21-.086.087-.08-.094L5.29 7.139a.56.56 0 1 0-.859.722l1.094 1.301.014.017c.086.102.177.212.266.296.1.095.248.21.457.253a.937.937 0 0 0 .31.012.937.937 0 0 0 .475-.218c.095-.077.195-.179.288-.274l.015-.016 3.145-3.209Z" clip-rule="evenodd"/></svg>