<svg xmlns="http://www.w3.org/2000/svg" width="15" height="12" fill="none"><path fill="#fff" d="M10.914 0H4.4c-.16 0-.239 0-.306.003a3.257 3.257 0 0 0-3.12 3.12c-.003.067-.003.146-.003.306h13.372c0-.16 0-.24-.003-.306a3.257 3.257 0 0 0-3.12-3.12A8.193 8.193 0 0 0 10.914 0Z"/><path fill="#fff" fill-rule="evenodd" d="M14.343 4.458H.97v1.68c0 2.442 0 3.664.622 4.52.201.276.445.52.721.72C3.17 12 4.392 12 6.834 12H8.48c2.443 0 3.664 0 4.52-.622.277-.2.52-.444.72-.72.623-.856.623-2.078.623-4.52v-1.68ZM12.286 6a.514.514 0 1 1-1.029 0 .514.514 0 0 1 1.029 0Zm-3.6-.514a.514.514 0 0 0 0 1.029h1.371a.514.514 0 0 0 0-1.029H8.686Z" clip-rule="evenodd"/></svg>