<svg xmlns="http://www.w3.org/2000/svg" width="7" height="14" fill="none"><path fill="#070B15" d="M1.932 7.984H.34c-.25 0-.34-.09-.34-.343V5.7c0-.249.095-.344.342-.344h1.59v-1.41c0-.637.114-1.246.437-1.804A2.655 2.655 0 0 1 3.8.953 3.536 3.536 0 0 1 5.025.75L6.6.751c.226 0 .326.1.326.328v1.827c0 .23-.096.322-.327.324-.43.005-.86.002-1.29.02-.435 0-.663.211-.663.66-.01.476-.004.952-.004 1.444h1.853c.263 0 .352.09.352.354v1.933c0 .26-.085.343-.349.343H4.636v5.212c0 .278-.087.367-.361.367H2.269c-.242 0-.337-.095-.337-.337V7.984Z"/></svg>