<svg xmlns="http://www.w3.org/2000/svg" width="140" height="19" fill="none"><path fill="url(#a)" stroke="url(#b)" stroke-width="1.25" d="m4.196 18.048 1.038-5.913.058-.33-.243-.23L.646 7.38a.06.06 0 0 1-.019-.032.1.1 0 0 1 .02-.082c.001-.001.002-.002.008-.003h.001l6.123-.87.323-.046.147-.291L9.979.647A.076.076 0 0 1 9.99.63a.019.019 0 0 1 .004-.004A.012.012 0 0 1 10 .625l.006.001.004.004a.073.073 0 0 1 .012.017l2.73 5.409.147.291.323.046 6.122.87h.001c.007.001.007.002.008.003a.098.098 0 0 1 .02.081.06.06 0 0 1-.02.032l-4.402 4.195-.242.231.058.33 1.037 5.912a.083.083 0 0 1-.003.047.063.063 0 0 1-.018.026.037.037 0 0 1-.008.005l-.003-.002-5.488-2.82-.286-.146-.285.146-5.485 2.82a.029.029 0 0 1-.003.002.063.063 0 0 1-.026-.03.083.083 0 0 1-.003-.047Z"/><path fill="url(#c)" stroke="url(#d)" stroke-width="1.25" d="m34.196 18.048 1.038-5.913.058-.33-.243-.23-4.403-4.195a.06.06 0 0 1-.019-.032.099.099 0 0 1 .02-.082c.001-.001.002-.002.008-.003h.001l6.123-.87.323-.046.147-.291 2.73-5.409A.073.073 0 0 1 39.99.63l.004-.004A.012.012 0 0 1 40 .625l.006.001.004.004a.073.073 0 0 1 .012.017l2.73 5.409.147.291.323.046 6.122.87h.001c.007.001.007.002.008.003a.098.098 0 0 1 .02.081.06.06 0 0 1-.02.032l-4.402 4.195-.242.231.057.33 1.038 5.912a.083.083 0 0 1-.003.047.063.063 0 0 1-.019.026.037.037 0 0 1-.007.005l-.003-.002-5.488-2.82-.286-.146-.285.146-5.485 2.82a.035.035 0 0 1-.003.002.062.062 0 0 1-.026-.03.084.084 0 0 1-.003-.047Z"/><path fill="url(#e)" stroke="url(#f)" stroke-width="1.25" d="m64.196 18.048 1.038-5.913.058-.33-.243-.23-4.403-4.195a.06.06 0 0 1-.019-.032.099.099 0 0 1 .02-.082c.001-.001.002-.002.008-.003h.001l6.123-.87.323-.046.147-.291 2.73-5.409A.073.073 0 0 1 69.99.63l.004-.004A.012.012 0 0 1 70 .625l.006.001.004.004a.073.073 0 0 1 .012.017l2.73 5.409.147.291.323.046 6.122.87h.001c.007.001.007.002.008.003a.098.098 0 0 1 .02.081.06.06 0 0 1-.02.032l-4.402 4.195-.242.231.057.33 1.038 5.912a.083.083 0 0 1-.003.047.063.063 0 0 1-.019.026.037.037 0 0 1-.007.005l-.003-.002-5.488-2.82-.286-.146-.285.146-5.485 2.82a.035.035 0 0 1-.003.002.062.062 0 0 1-.026-.03.084.084 0 0 1-.003-.047Z"/><path fill="url(#g)" stroke="url(#h)" stroke-width="1.25" d="m94.197 18.048 1.037-5.913.058-.33-.242-.23-4.404-4.195a.06.06 0 0 1-.019-.032.1.1 0 0 1 .003-.05.074.074 0 0 1 .017-.032c.001-.001.002-.002.009-.003l6.123-.87.323-.046.147-.291 2.73-5.409A.077.077 0 0 1 99.99.63a.02.02 0 0 1 .004-.004.011.011 0 0 1 .006-.001.01.01 0 0 1 .006.001l.005.004a.081.081 0 0 1 .011.017l2.73 5.409.147.291.323.046 6.122.87h.001c.007.001.008.002.009.003a.086.086 0 0 1 .017.032.105.105 0 0 1 .002.05.058.058 0 0 1-.019.031l-4.403 4.195-.242.231.058.33 1.037 5.912a.091.091 0 0 1-.002.047.08.08 0 0 1-.019.026l-.007.005-.003-.002-5.489-2.82-.285-.146-.286.146-5.485 2.82-.003.002a.063.063 0 0 1-.026-.03.083.083 0 0 1-.002-.047Z"/><path fill="url(#i)" stroke="url(#j)" stroke-width="1.25" d="m124.197 18.048 1.037-5.913.058-.33-.242-.23-4.404-4.195a.063.063 0 0 1-.019-.032.096.096 0 0 1 .003-.05.074.074 0 0 1 .017-.032h.001c0-.001.001-.002.008-.003l6.123-.87.323-.046.147-.291 2.73-5.409a.081.081 0 0 1 .011-.017l.004-.004.006-.001a.01.01 0 0 1 .006.001l.005.004a.081.081 0 0 1 .011.017l2.73 5.409.147.291.323.046 6.122.87h.001c.007.001.008.002.009.003a.086.086 0 0 1 .017.032.105.105 0 0 1 .002.05.058.058 0 0 1-.019.031l-4.403 4.195-.242.231.058.33 1.037 5.912a.091.091 0 0 1-.002.047.08.08 0 0 1-.019.026l-.007.005-.003-.002-5.489-2.82-.286-.146-.285.146-5.485 2.82a.013.013 0 0 1-.003.002l-.007-.005a.059.059 0 0 1-.019-.026.081.081 0 0 1-.002-.046Z"/><defs><linearGradient id="a" x1="9.6" x2="9.004" y1="0" y2="18.734" gradientUnits="userSpaceOnUse"><stop stop-color="#2A71F7"/><stop offset="1" stop-color="#092863"/></linearGradient><linearGradient id="b" x1="9.6" x2="9.004" y1="0" y2="18.734" gradientUnits="userSpaceOnUse"><stop stop-color="#2A71F7"/><stop offset="1" stop-color="#092863"/></linearGradient><linearGradient id="c" x1="39.6" x2="39.004" y1="0" y2="18.734" gradientUnits="userSpaceOnUse"><stop stop-color="#2A71F7"/><stop offset="1" stop-color="#092863"/></linearGradient><linearGradient id="d" x1="39.6" x2="39.004" y1="0" y2="18.734" gradientUnits="userSpaceOnUse"><stop stop-color="#2A71F7"/><stop offset="1" stop-color="#092863"/></linearGradient><linearGradient id="e" x1="69.6" x2="69.004" y1="0" y2="18.734" gradientUnits="userSpaceOnUse"><stop stop-color="#2A71F7"/><stop offset="1" stop-color="#092863"/></linearGradient><linearGradient id="f" x1="69.6" x2="69.004" y1="0" y2="18.734" gradientUnits="userSpaceOnUse"><stop stop-color="#2A71F7"/><stop offset="1" stop-color="#092863"/></linearGradient><linearGradient id="g" x1="99.6" x2="99.004" y1="0" y2="18.734" gradientUnits="userSpaceOnUse"><stop stop-color="#2A71F7"/><stop offset="1" stop-color="#092863"/></linearGradient><linearGradient id="h" x1="99.6" x2="99.004" y1="0" y2="18.734" gradientUnits="userSpaceOnUse"><stop stop-color="#2A71F7"/><stop offset="1" stop-color="#092863"/></linearGradient><linearGradient id="i" x1="129.6" x2="129.004" y1="0" y2="18.734" gradientUnits="userSpaceOnUse"><stop stop-color="#2A71F7"/><stop offset="1" stop-color="#092863"/></linearGradient><linearGradient id="j" x1="129.6" x2="129.004" y1="0" y2="18.734" gradientUnits="userSpaceOnUse"><stop stop-color="#2A71F7"/><stop offset="1" stop-color="#092863"/></linearGradient></defs></svg>