<svg xmlns="http://www.w3.org/2000/svg" width="24" height="24" fill="none"><path fill="url(#a)" fill-rule="evenodd" d="M8.374 13.938a24.796 24.796 0 0 0 5.19-5.461l.12.57a.385.385 0 1 0 .753-.159L14.13 7.43a.384.384 0 0 0-.456-.298l-1.458.307a.385.385 0 1 0 .157.753l.527-.11C9.842 12.431 5.604 15.54.291 17.323a.384.384 0 0 0-.24.488.387.387 0 0 0 .487.241c2.935-.985 5.572-2.369 7.836-4.114ZM3.513 24v-3.71H0V24h3.513Zm6.583 0h-3.51v-6.963h3.51V24Zm6.585 0h-3.51V13.408h3.51V24Zm6.584-13.701h-3.51V24h3.51V10.3Z" clip-rule="evenodd"/><path fill="url(#b)" d="M21.748.211a.279.279 0 0 0-.541 0c-.085.34-.206.568-.369.73-.162.163-.39.284-.73.37a.279.279 0 0 0 0 .54c.34.086.568.206.73.369.163.162.284.39.369.73a.279.279 0 0 0 .541 0c.085-.34.206-.568.368-.73.163-.163.39-.283.73-.369a.28.28 0 0 0 0-.54c-.34-.086-.567-.207-.73-.37-.162-.162-.283-.39-.368-.73Z"/><path fill="url(#c)" d="M18.093 2.09a.279.279 0 0 0-.54 0c-.166.659-.406 1.126-.748 1.467-.342.342-.808.583-1.468.747a.279.279 0 0 0 0 .542c.66.165 1.126.405 1.468.747.342.342.582.808.747 1.468a.28.28 0 0 0 .541 0c.165-.66.405-1.126.747-1.468.342-.342.809-.582 1.468-.747a.279.279 0 0 0 0-.542c-.659-.164-1.126-.405-1.468-.747-.341-.341-.582-.808-.747-1.467Z"/><defs><linearGradient id="a" x1="11.167" x2="10.752" y1="7.123" y2="23.992" gradientUnits="userSpaceOnUse"><stop stop-color="#2A71F7"/><stop offset="1" stop-color="#092863"/></linearGradient><linearGradient id="b" x1="21.414" x2="21.307" y1="0" y2="3.158" gradientUnits="userSpaceOnUse"><stop stop-color="#2A71F7"/><stop offset="1" stop-color="#092863"/></linearGradient><linearGradient id="c" x1="17.715" x2="17.532" y1="1.878" y2="7.266" gradientUnits="userSpaceOnUse"><stop stop-color="#2A71F7"/><stop offset="1" stop-color="#092863"/></linearGradient></defs></svg>