<svg xmlns="http://www.w3.org/2000/svg" width="13" height="13" fill="none"><path fill="#070B15" d="M6.75.5C5.122.5 4.917.507 4.277.536c-.64.03-1.075.13-1.457.279-.4.15-.763.387-1.063.692-.305.3-.541.663-.692 1.063-.148.381-.25.818-.279 1.455C.757 4.666.75 4.87.75 6.501c0 1.629.007 1.833.036 2.472.03.64.13 1.075.279 1.457.154.395.359.729.692 1.063.333.333.668.539 1.062.692.383.149.818.25 1.457.279.64.028.844.036 2.474.036 1.63 0 1.833-.008 2.473-.036.639-.03 1.076-.13 1.458-.279.4-.15.762-.387 1.062-.692.333-.334.538-.668.692-1.063.148-.382.249-.817.279-1.457.028-.64.036-.843.036-2.473s-.008-1.834-.036-2.474c-.03-.638-.131-1.075-.279-1.456-.15-.4-.387-.763-.692-1.063A2.933 2.933 0 0 0 10.68.815c-.383-.148-.819-.25-1.457-.279C8.583.507 8.379.5 6.748.5h.003-.001Zm-.538 1.081h.539c1.602 0 1.792.006 2.424.035.585.026.903.124 1.114.206.28.109.48.24.69.45.21.21.34.409.449.69.082.21.18.528.206 1.113.03.632.035.822.035 2.423 0 1.602-.006 1.792-.035 2.424-.026.585-.125.903-.206 1.114a1.86 1.86 0 0 1-.45.69c-.21.21-.409.34-.69.448-.21.083-.527.18-1.113.207-.633.028-.822.035-2.424.035-1.602 0-1.793-.007-2.425-.035-.585-.027-.902-.124-1.114-.207a1.859 1.859 0 0 1-.69-.448 1.86 1.86 0 0 1-.45-.69c-.082-.211-.18-.53-.206-1.114-.029-.633-.035-.822-.035-2.425 0-1.602.006-1.791.035-2.423.027-.585.124-.903.207-1.115.109-.28.24-.48.45-.69.21-.21.409-.34.69-.448.21-.083.528-.18 1.113-.207.554-.026.768-.033 1.886-.034v.001Zm3.741.997a.72.72 0 1 0 0 1.44.72.72 0 0 0 0-1.44Zm-3.202.841a3.082 3.082 0 1 0-.096 6.162A3.082 3.082 0 0 0 6.75 3.42Zm0 1.08a2 2 0 1 1 0 4.001 2 2 0 0 1 0-4Z"/></svg>