<svg xmlns="http://www.w3.org/2000/svg" width="27" height="23" fill="none"><path stroke="url(#a)" stroke-linecap="round" stroke-linejoin="round" stroke-width="2.188" d="M1.833 10.5h23.334M1.833 1.75h23.334M1.833 19.25h14.584"/><path fill="url(#b)" d="M23.676 16.433a1.094 1.094 0 0 0-2.122 0c-.152.605-.351.95-.579 1.178-.227.227-.572.427-1.178.578a1.094 1.094 0 0 0 0 2.122c.606.151.951.351 1.178.578.227.228.427.573.578 1.178a1.094 1.094 0 0 0 2.123 0c.151-.605.35-.95.578-1.178.227-.227.572-.427 1.178-.578a1.094 1.094 0 0 0 0-2.122c-.606-.151-.95-.351-1.178-.578-.227-.227-.427-.573-.578-1.178Z"/><defs><linearGradient id="a" x1="13.033" x2="12.588" y1="1.75" y2="19.241" gradientUnits="userSpaceOnUse"><stop stop-color="#2A71F7"/><stop offset="1" stop-color="#092863"/></linearGradient><linearGradient id="b" x1="22.469" x2="22.221" y1="15.604" y2="22.888" gradientUnits="userSpaceOnUse"><stop stop-color="#2A71F7"/><stop offset="1" stop-color="#092863"/></linearGradient></defs></svg>