<svg xmlns="http://www.w3.org/2000/svg" width="28" height="28" fill="none"><path stroke="url(#a)" stroke-linecap="round" stroke-linejoin="round" stroke-width="2.188" d="M17.08 8.828 3.16 22.748c-.24.24-.36.36-.444.476a1.823 1.823 0 0 0 0 2.142c.085.116.205.236.444.476.24.24.36.359.475.443a1.823 1.823 0 0 0 2.143 0c.116-.084.236-.204.476-.443L25.846 6.249c.24-.24.36-.36.444-.475a1.823 1.823 0 0 0 0-2.143c-.084-.116-.204-.236-.444-.476-.239-.24-.359-.359-.475-.443a1.823 1.823 0 0 0-2.143 0c-.116.084-.236.204-.475.443L17.08 8.828Zm0 0 3.092 3.091M1.375 6.48c2.917-.73 4.375-2.188 5.104-5.105.73 2.917 2.188 4.375 5.104 5.104-2.916.73-4.375 2.188-5.104 5.104C5.75 8.667 4.292 7.208 1.375 6.48Zm17.5 14.948c1.458-.364 2.188-1.094 2.552-2.552.365 1.458 1.094 2.188 2.552 2.552-1.458.365-2.187 1.094-2.552 2.552-.364-1.458-1.094-2.187-2.552-2.552Z"/><defs><linearGradient id="a" x1="13.501" x2="12.645" y1="1.375" y2="26.607" gradientUnits="userSpaceOnUse"><stop stop-color="#2A71F7"/><stop offset="1" stop-color="#092863"/></linearGradient></defs></svg>