<svg xmlns="http://www.w3.org/2000/svg" width="16" height="12" fill="none"><path fill="#fff" fill-rule="evenodd" d="M.343 7.371V5.786h3.59L2.889 6.83a.643.643 0 1 0 .91.91l1.045-1.046V12c-1.843 0-2.78-.011-3.44-.491a2.573 2.573 0 0 1-.569-.569C.343 10.264.343 9.3.343 7.371ZM6.129 12h5.014c1.928 0 2.893 0 3.569-.491.218-.159.41-.35.569-.569.49-.676.49-1.64.49-3.569V5.786H7.039L8.083 6.83a.643.643 0 1 1-.909.91L6.13 6.694V12Zm9.643-7.371V4.5c0-1.843-.011-2.78-.492-3.44a2.571 2.571 0 0 0-.568-.569C14.036 0 13.072 0 11.143 0H6.129v2.038A1.929 1.929 0 0 1 8.59 4.5h7.18M4.844 0C3 0 2.063.011 1.403.491a2.58 2.58 0 0 0-.569.569c-.48.66-.49 1.597-.491 3.44h2.038a1.929 1.929 0 0 1 2.462-2.462V0Zm1.929 3.214a.643.643 0 1 0 0 1.286.643.643 0 0 0 0-1.286Zm-1.929.643a.643.643 0 1 1-1.286 0 .643.643 0 0 1 1.286 0Z" clip-rule="evenodd"/></svg>