<svg xmlns="http://www.w3.org/2000/svg" width="14" height="14" fill="none"><g clip-path="url(#a)"><path fill="#070B15" fill-opacity=".18" d="M3.333 1H1l9.667 12H13L3.333 1Z"/><path stroke="#070B15" stroke-linecap="round" stroke-linejoin="round" stroke-width="1.125" d="M3.333 1H1l9.667 12H13L3.333 1Z"/><path fill="#070B15" d="M.712 11.962a.937.937 0 1 0 1.326 1.326L.712 11.962Zm12.576-9.924A.938.938 0 0 0 11.962.712l1.326 1.326Zm-11.25 11.25L7 8.325 5.675 6.999.712 11.962l1.326 1.326ZM8.325 7l4.963-4.963L11.962.712 7 5.675l1.326 1.326Z"/></g><defs><clipPath id="a"><path fill="#fff" d="M0 0h14v14H0z"/></clipPath></defs></svg>