<svg xmlns="http://www.w3.org/2000/svg" width="551" height="553" fill="none"><rect width="550.864" height="552.725" fill="url(#a)" rx="29.776"/><rect width="430" height="100" x="60.627" y="59.129" fill="#fff" fill-opacity=".1" rx="10"/><rect width="428" height="98" x="61.627" y="60.129" stroke="#DFEAFF" stroke-opacity=".15" stroke-width="2" rx="9"/><path fill="#B3B3B3" d="M95.582 101.325v-2.65h13.926v2.65h-5.395v14.804h-3.137v-14.804h-5.394Zm16.892 19.713c-.421 0-.81-.034-1.168-.102a4.314 4.314 0 0 1-.844-.221l.716-2.404c.449.131.85.193 1.202.188.352-.006.662-.117.929-.333.272-.21.503-.562.69-1.056l.264-.708-4.747-13.364h3.273l3.017 9.887h.136l3.026-9.887h3.281l-5.241 14.677c-.245.693-.569 1.287-.972 1.781-.403.5-.898.881-1.483 1.142-.579.267-1.273.4-2.079.4Zm11.91 0v-18h3.034v2.165h.179a5.72 5.72 0 0 1 .673-1.014c.29-.364.682-.673 1.177-.929.494-.261 1.125-.392 1.892-.392 1.011 0 1.923.259 2.735.776.819.511 1.466 1.269 1.944 2.275.483 1 .724 2.227.724 3.682 0 1.437-.236 2.659-.707 3.665-.472 1.005-1.114 1.772-1.927 2.301-.812.528-1.732.793-2.761.793-.75 0-1.372-.125-1.866-.375-.495-.25-.892-.552-1.194-.904a5.892 5.892 0 0 1-.69-1.014h-.128v6.971h-3.085Zm3.026-11.454c0 .847.119 1.588.358 2.224.244.637.593 1.134 1.048 1.492.46.352 1.017.528 1.67.528.682 0 1.253-.182 1.713-.545.461-.37.807-.872 1.04-1.509.239-.642.358-1.372.358-2.19 0-.813-.116-1.534-.349-2.165-.233-.631-.58-1.125-1.04-1.483-.46-.358-1.034-.537-1.722-.537-.659 0-1.218.174-1.679.52-.46.347-.809.833-1.048 1.458-.233.625-.349 1.36-.349 2.207Zm17.77 6.801c-1.313 0-2.447-.273-3.401-.818a5.54 5.54 0 0 1-2.19-2.335c-.512-1.012-.767-2.202-.767-3.571 0-1.347.255-2.529.767-3.546.517-1.023 1.238-1.818 2.164-2.386.927-.574 2.015-.861 3.265-.861a6.62 6.62 0 0 1 2.284.392 5.166 5.166 0 0 1 1.909 1.193c.557.54.994 1.228 1.312 2.063.318.829.478 1.818.478 2.966v.946H140.27v-2.08h7.773c-.006-.591-.133-1.116-.383-1.577-.25-.465-.6-.832-1.049-1.099-.443-.267-.96-.401-1.551-.401-.63 0-1.184.154-1.662.461a3.173 3.173 0 0 0-1.116 1.193 3.427 3.427 0 0 0-.401 1.611v1.815c0 .761.139 1.415.418 1.96.278.54.667.955 1.167 1.245.5.284 1.086.426 1.756.426.449 0 .855-.063 1.219-.188.364-.131.679-.321.946-.571.267-.25.469-.56.605-.929l2.881.324a4.497 4.497 0 0 1-1.04 1.994c-.506.563-1.153 1-1.943 1.313-.79.307-1.693.46-2.71.46Zm14.384 4.653v-18h3.034v2.165h.179c.159-.318.383-.656.673-1.014.29-.364.682-.673 1.176-.929.495-.261 1.125-.392 1.892-.392 1.012 0 1.924.259 2.736.776.818.511 1.466 1.269 1.943 2.275.483 1 .725 2.227.725 3.682 0 1.437-.236 2.659-.708 3.665-.471 1.005-1.113 1.772-1.926 2.301-.812.528-1.733.793-2.761.793-.75 0-1.372-.125-1.867-.375-.494-.25-.892-.552-1.193-.904a5.892 5.892 0 0 1-.69-1.014h-.128v6.971h-3.085Zm3.025-11.454c0 .847.12 1.588.358 2.224.245.637.594 1.134 1.049 1.492.46.352 1.017.528 1.67.528.682 0 1.253-.182 1.713-.545.46-.37.807-.872 1.04-1.509.238-.642.358-1.372.358-2.19 0-.813-.117-1.534-.35-2.165-.233-.631-.579-1.125-1.039-1.483-.461-.358-1.034-.537-1.722-.537-.659 0-1.219.174-1.679.52-.46.347-.81.833-1.048 1.458-.233.625-.35 1.36-.35 2.207Zm11.975 6.545v-13.091h2.991v2.182h.137c.238-.755.647-1.338 1.227-1.747a3.376 3.376 0 0 1 2.003-.622c.17 0 .36.009.571.026.216.011.395.031.537.059v2.838a3.28 3.28 0 0 0-.623-.119 5.683 5.683 0 0 0-.809-.06c-.563 0-1.068.122-1.517.367a2.683 2.683 0 0 0-1.049.997c-.255.426-.383.918-.383 1.474v7.696h-3.085Zm14.687.256c-1.279 0-2.387-.281-3.324-.844-.938-.562-1.665-1.349-2.182-2.36-.512-1.012-.767-2.194-.767-3.546 0-1.352.255-2.537.767-3.554.517-1.017 1.244-1.807 2.182-2.369.937-.563 2.045-.844 3.324-.844 1.278 0 2.386.281 3.323.844.938.562 1.662 1.352 2.174 2.369.517 1.017.775 2.202.775 3.554 0 1.352-.258 2.534-.775 3.546-.512 1.011-1.236 1.798-2.174 2.36-.937.563-2.045.844-3.323.844Zm.017-2.472c.693 0 1.272-.19 1.738-.571.466-.386.813-.903 1.04-1.551.233-.647.349-1.369.349-2.164 0-.802-.116-1.526-.349-2.174-.227-.653-.574-1.173-1.04-1.559-.466-.387-1.045-.58-1.738-.58-.711 0-1.302.193-1.773.58-.466.386-.815.906-1.048 1.559-.228.648-.341 1.372-.341 2.174 0 .795.113 1.517.341 2.164.233.648.582 1.165 1.048 1.551.471.381 1.062.571 1.773.571Zm8.874 2.216v-13.091h2.949v2.225h.153c.273-.75.725-1.335 1.355-1.756.631-.426 1.384-.639 2.259-.639.886 0 1.633.216 2.241.648a3.383 3.383 0 0 1 1.296 1.747h.136a3.58 3.58 0 0 1 1.466-1.739c.693-.437 1.514-.656 2.463-.656 1.205 0 2.188.381 2.949 1.142.761.761 1.142 1.872 1.142 3.332v8.787h-3.094v-8.309c0-.813-.216-1.407-.648-1.782-.431-.38-.96-.571-1.585-.571-.744 0-1.326.233-1.747.699-.415.461-.622 1.06-.622 1.799v8.164h-3.026v-8.437c0-.676-.204-1.216-.613-1.619-.404-.404-.932-.606-1.585-.606-.444 0-.847.114-1.211.341a2.386 2.386 0 0 0-.869.946c-.216.404-.324.875-.324 1.415v7.96h-3.085Zm21.539 4.909v-18h3.034v2.165h.179a5.72 5.72 0 0 1 .673-1.014c.29-.364.682-.673 1.176-.929.495-.261 1.125-.392 1.892-.392 1.012 0 1.924.259 2.736.776.818.511 1.466 1.269 1.943 2.275.483 1 .725 2.227.725 3.682 0 1.437-.236 2.659-.708 3.665-.471 1.005-1.113 1.772-1.926 2.301-.812.528-1.733.793-2.761.793-.75 0-1.372-.125-1.866-.375-.495-.25-.893-.552-1.194-.904a5.892 5.892 0 0 1-.69-1.014h-.128v6.971h-3.085Zm3.025-11.454c0 .847.12 1.588.358 2.224.245.637.594 1.134 1.049 1.492.46.352 1.017.528 1.67.528.682 0 1.253-.182 1.713-.545.46-.37.807-.872 1.04-1.509.239-.642.358-1.372.358-2.19 0-.813-.116-1.534-.349-2.165-.233-.631-.58-1.125-1.04-1.483-.46-.358-1.034-.537-1.722-.537-.659 0-1.219.174-1.679.52-.46.347-.809.833-1.048 1.458-.233.625-.35 1.36-.35 2.207Zm18.512-6.546v2.387h-7.526v-2.387h7.526Zm-5.668-3.136h3.085v12.29c0 .415.063.733.188.954.131.216.301.364.511.444.211.079.444.119.699.119.193 0 .37-.014.529-.043.164-.028.289-.054.375-.076l.519 2.412c-.164.056-.4.119-.707.187-.301.068-.67.108-1.108.119-.773.023-1.469-.093-2.088-.349a3.245 3.245 0 0 1-1.474-1.21c-.358-.546-.534-1.228-.529-2.046v-12.8Zm10.149 16.415c-.517 0-.961-.182-1.33-.546a1.763 1.763 0 0 1-.545-1.329 1.748 1.748 0 0 1 .545-1.313 1.83 1.83 0 0 1 1.33-.545c.5 0 .934.182 1.304.545.375.364.565.802.571 1.313a1.824 1.824 0 0 1-.273.946c-.17.284-.398.511-.682.682a1.77 1.77 0 0 1-.92.247Zm6.961 0c-.517 0-.961-.182-1.33-.546a1.763 1.763 0 0 1-.545-1.329 1.748 1.748 0 0 1 .545-1.313 1.83 1.83 0 0 1 1.33-.545c.5 0 .934.182 1.304.545.375.364.565.802.571 1.313a1.824 1.824 0 0 1-.273.946 1.97 1.97 0 0 1-.682.682 1.77 1.77 0 0 1-.92.247Z"/><rect width="60" height="60" x="408.627" y="79.129" fill="#0A1D42" rx="10"/><path stroke="#fff" stroke-linecap="round" stroke-linejoin="round" stroke-width="3.6" d="M440.227 121.129v-24m0 0 9.6 9.6m-9.6-9.6-9.6 9.6"/><circle cx="94.627" cy="221.129" r="29.4" fill="#fff" stroke="#DFEAFF" stroke-width="1.2"/><path stroke="#0A1D42" stroke-linecap="round" stroke-linejoin="round" stroke-width="1.993" d="m89.709 230.303-7.082 2.826 2.827-7.081m4.255 4.255 14.715-14.716m-14.715 14.716-.567-3.69-3.688-.565m0 0 14.715-14.716m4.255 4.255-4.255-4.255m4.255 4.255 1.322-1.321a3.009 3.009 0 1 0-4.255-4.255l-1.322 1.321"/><path fill="#B8B8B8" d="M144.59 232.129h-3.375l6.145-17.454h3.903l6.154 17.454h-3.375l-4.662-13.875h-.137l-4.653 13.875Zm.111-6.843h9.204v2.539h-9.204v-2.539Zm25.014-2.787-2.812.307a2.262 2.262 0 0 0-.418-.802 2.082 2.082 0 0 0-.784-.605c-.33-.153-.733-.23-1.21-.23-.642 0-1.182.139-1.62.418-.432.278-.645.639-.639 1.082-.006.381.134.691.418.929.289.239.767.435 1.431.588l2.233.477c1.239.268 2.16.691 2.762 1.27.608.58.915 1.338.92 2.276a3.558 3.558 0 0 1-.724 2.182c-.472.625-1.128 1.113-1.969 1.466-.841.352-1.807.528-2.898.528-1.602 0-2.892-.335-3.869-1.006-.977-.676-1.56-1.616-1.747-2.821l3.008-.289c.137.591.427 1.037.87 1.338.443.301 1.02.451 1.73.451.733 0 1.321-.15 1.764-.451.449-.301.673-.674.673-1.117 0-.375-.145-.684-.434-.929-.284-.244-.728-.432-1.33-.562l-2.233-.469c-1.256-.261-2.184-.702-2.787-1.321-.602-.625-.9-1.415-.895-2.369-.005-.807.213-1.506.657-2.097.448-.597 1.071-1.057 1.866-1.381.801-.329 1.725-.494 2.77-.494 1.534 0 2.741.327 3.622.98.886.654 1.435 1.537 1.645 2.651Zm5.638 5.522-.009-3.724h.495l4.704-5.259h3.605l-5.787 6.444h-.639l-2.369 2.539Zm-2.813 4.108v-17.454h3.086v17.454h-3.086Zm8.216 0-4.261-5.957 2.079-2.173 5.873 8.13h-3.691Zm17.112.256c-1.307 0-2.429-.287-3.367-.861a5.746 5.746 0 0 1-2.156-2.378c-.5-1.017-.75-2.187-.75-3.511 0-1.329.256-2.503.767-3.52.511-1.023 1.233-1.818 2.165-2.386.937-.574 2.045-.861 3.324-.861 1.062 0 2.003.196 2.821.588.824.386 1.48.935 1.968 1.645.489.705.767 1.528.836 2.472h-2.949a2.826 2.826 0 0 0-.852-1.577c-.444-.426-1.037-.639-1.782-.639-.63 0-1.184.17-1.662.511-.477.335-.849.818-1.116 1.449-.261.631-.392 1.386-.392 2.267 0 .892.131 1.659.392 2.301.261.636.628 1.128 1.099 1.475.478.34 1.037.511 1.679.511.455 0 .861-.085 1.219-.256.364-.176.668-.429.912-.758.244-.33.412-.73.503-1.202h2.949c-.074.926-.347 1.747-.819 2.463-.471.71-1.113 1.267-1.926 1.67-.812.398-1.767.597-2.863.597Zm13.851 0c-1.278 0-2.386-.281-3.324-.844-.937-.562-1.664-1.349-2.181-2.36-.512-1.012-.767-2.194-.767-3.546 0-1.352.255-2.537.767-3.554.517-1.017 1.244-1.807 2.181-2.369.938-.563 2.046-.844 3.324-.844 1.279 0 2.387.281 3.324.844.938.562 1.662 1.352 2.173 2.369.517 1.017.776 2.202.776 3.554 0 1.352-.259 2.534-.776 3.546-.511 1.011-1.235 1.798-2.173 2.36-.937.563-2.045.844-3.324.844Zm.017-2.472c.694 0 1.273-.19 1.739-.571.466-.386.812-.903 1.04-1.551.233-.647.349-1.369.349-2.164 0-.802-.116-1.526-.349-2.174-.228-.653-.574-1.173-1.04-1.559-.466-.387-1.045-.58-1.739-.58-.71 0-1.301.193-1.772.58-.466.386-.816.906-1.049 1.559-.227.648-.341 1.372-.341 2.174 0 .795.114 1.517.341 2.164.233.648.583 1.165 1.049 1.551.471.381 1.062.571 1.772.571Zm8.875 2.216v-13.091h2.948v2.225h.154c.273-.75.724-1.335 1.355-1.756.631-.426 1.384-.639 2.259-.639.886 0 1.633.216 2.241.648.614.426 1.045 1.008 1.295 1.747H231a3.58 3.58 0 0 1 1.466-1.739c.693-.437 1.514-.656 2.463-.656 1.204 0 2.187.381 2.949 1.142.761.761 1.142 1.872 1.142 3.332v8.787h-3.094v-8.309c0-.813-.216-1.407-.648-1.782-.432-.38-.96-.571-1.585-.571-.744 0-1.327.233-1.747.699-.415.461-.622 1.06-.622 1.799v8.164h-3.026v-8.437c0-.676-.204-1.216-.614-1.619-.403-.404-.931-.606-1.585-.606a2.24 2.24 0 0 0-1.21.341 2.379 2.379 0 0 0-.869.946c-.216.404-.324.875-.324 1.415v7.96h-3.085Zm21.539 4.909v-18h3.034v2.165h.179c.159-.318.383-.656.673-1.014.29-.364.682-.673 1.176-.929.494-.261 1.125-.392 1.892-.392 1.012 0 1.924.259 2.736.776.818.511 1.466 1.269 1.943 2.275.483 1 .725 2.227.725 3.682 0 1.437-.236 2.659-.708 3.665-.471 1.005-1.113 1.772-1.926 2.301-.812.528-1.733.793-2.761.793-.75 0-1.372-.125-1.867-.375-.494-.25-.892-.552-1.193-.904a5.892 5.892 0 0 1-.69-1.014h-.128v6.971h-3.085Zm3.025-11.454c0 .847.12 1.588.358 2.224.245.637.594 1.134 1.048 1.492.461.352 1.018.528 1.671.528.682 0 1.253-.182 1.713-.545.46-.37.807-.872 1.04-1.509.238-.642.358-1.372.358-2.19 0-.813-.117-1.534-.35-2.165-.233-.631-.579-1.125-1.039-1.483-.461-.358-1.035-.537-1.722-.537-.659 0-1.219.174-1.679.52-.46.347-.81.833-1.048 1.458-.233.625-.35 1.36-.35 2.207Zm15.06-10.909v17.454h-3.085v-17.454h3.085Zm8.968 17.71c-1.313 0-2.446-.273-3.401-.818a5.546 5.546 0 0 1-2.19-2.335c-.511-1.012-.767-2.202-.767-3.571 0-1.347.256-2.529.767-3.546.517-1.023 1.239-1.818 2.165-2.386.926-.574 2.014-.861 3.264-.861.807 0 1.568.131 2.284.392a5.158 5.158 0 0 1 1.909 1.193c.557.54.995 1.228 1.313 2.063.318.829.477 1.818.477 2.966v.946h-10.73v-2.08h7.773c-.006-.591-.134-1.116-.384-1.577a2.792 2.792 0 0 0-1.048-1.099c-.443-.267-.96-.401-1.551-.401-.631 0-1.185.154-1.662.461-.478.301-.85.699-1.117 1.193a3.426 3.426 0 0 0-.4 1.611v1.815c0 .761.139 1.415.417 1.96.279.54.668.955 1.168 1.245.5.284 1.085.426 1.756.426.448 0 .855-.063 1.218-.188.364-.131.679-.321.946-.571.267-.25.469-.56.605-.929l2.881.324a4.487 4.487 0 0 1-1.04 1.994c-.505.563-1.153 1-1.943 1.313-.79.307-1.693.46-2.71.46Zm10.673-13.347 2.642 4.833 2.684-4.833h3.264l-3.946 6.546 4.015 6.545h-3.248l-2.769-4.713-2.745 4.713h-3.272l3.988-6.545-3.886-6.546h3.273Zm25.666 18v-6.971h-.128a5.277 5.277 0 0 1-.69 1.014c-.302.352-.699.654-1.194.904-.494.25-1.116.375-1.866.375-1.029 0-1.949-.265-2.761-.793-.813-.529-1.455-1.296-1.927-2.301-.471-1.006-.707-2.228-.707-3.665 0-1.455.239-2.682.716-3.682.483-1.006 1.133-1.764 1.952-2.275a5.015 5.015 0 0 1 2.735-.776c.767 0 1.398.131 1.892.392.495.256.887.565 1.177.929.289.358.514.696.673 1.014h.187v-2.165h3.034v18h-3.093Zm-3.017-7.21c.653 0 1.21-.176 1.67-.528.46-.358.81-.855 1.048-1.492.239-.636.358-1.377.358-2.224 0-.847-.119-1.582-.358-2.207-.233-.625-.579-1.111-1.039-1.458-.455-.346-1.015-.52-1.679-.52-.688 0-1.262.179-1.722.537-.46.358-.807.852-1.04 1.483-.233.631-.349 1.352-.349 2.165 0 .818.116 1.548.349 2.19.239.637.588 1.139 1.049 1.509.466.363 1.037.545 1.713.545Zm17.625-3.204v-7.586h3.085v13.091h-2.992v-2.326h-.136a3.933 3.933 0 0 1-1.457 1.798c-.671.466-1.497.699-2.48.699-.858 0-1.617-.19-2.276-.571-.653-.387-1.165-.946-1.534-1.679-.369-.739-.554-1.631-.554-2.676v-8.336h3.085v7.858c0 .83.227 1.489.682 1.978.455.488 1.051.733 1.79.733.454 0 .895-.111 1.321-.333a2.686 2.686 0 0 0 1.048-.988c.278-.444.418-.998.418-1.662Zm12.053 5.761c-1.313 0-2.446-.273-3.401-.818a5.546 5.546 0 0 1-2.19-2.335c-.511-1.012-.767-2.202-.767-3.571 0-1.347.256-2.529.767-3.546.517-1.023 1.239-1.818 2.165-2.386.926-.574 2.014-.861 3.264-.861.807 0 1.568.131 2.284.392a5.158 5.158 0 0 1 1.909 1.193c.557.54.995 1.228 1.313 2.063.318.829.477 1.818.477 2.966v.946h-10.73v-2.08h7.773c-.006-.591-.134-1.116-.384-1.577a2.792 2.792 0 0 0-1.048-1.099c-.443-.267-.96-.401-1.551-.401-.631 0-1.185.154-1.662.461-.478.301-.85.699-1.117 1.193a3.426 3.426 0 0 0-.4 1.611v1.815c0 .761.139 1.415.417 1.96.279.54.668.955 1.168 1.245.5.284 1.085.426 1.756.426.448 0 .855-.063 1.218-.188.364-.131.679-.321.946-.571.267-.25.469-.56.605-.929l2.881.324a4.487 4.487 0 0 1-1.04 1.994c-.505.563-1.153 1-1.943 1.313-.79.307-1.693.46-2.71.46Zm18.778-9.886-2.813.307a2.26 2.26 0 0 0-.417-.802 2.086 2.086 0 0 0-.785-.605c-.329-.153-.733-.23-1.21-.23-.642 0-1.182.139-1.619.418-.432.278-.645.639-.639 1.082a1.13 1.13 0 0 0 .417.929c.29.239.767.435 1.432.588l2.233.477c1.239.268 2.159.691 2.761 1.27.608.58.915 1.338.921 2.276-.006.824-.247 1.551-.725 2.182-.471.625-1.127 1.113-1.968 1.466-.841.352-1.807.528-2.898.528-1.602 0-2.892-.335-3.869-1.006-.978-.676-1.56-1.616-1.747-2.821l3.008-.289c.136.591.426 1.037.869 1.338.444.301 1.02.451 1.73.451.733 0 1.321-.15 1.765-.451.449-.301.673-.674.673-1.117 0-.375-.145-.684-.435-.929-.284-.244-.727-.432-1.329-.562l-2.233-.469c-1.256-.261-2.185-.702-2.787-1.321-.602-.625-.901-1.415-.895-2.369-.006-.807.213-1.506.656-2.097.449-.597 1.071-1.057 1.867-1.381.801-.329 1.724-.494 2.77-.494 1.534 0 2.741.327 3.622.98.886.654 1.434 1.537 1.645 2.651Zm9.362-3.461v2.387h-7.526v-2.387h7.526Zm-5.668-3.136h3.085v12.29c0 .415.063.733.188.954.131.216.301.364.511.444.211.079.444.119.699.119.193 0 .37-.014.529-.043.164-.028.289-.054.375-.076l.519 2.412c-.164.056-.4.119-.707.187-.301.068-.67.108-1.108.119-.773.023-1.469-.093-2.088-.349a3.245 3.245 0 0 1-1.474-1.21c-.358-.546-.534-1.228-.529-2.046v-12.801Zm8.248 16.227v-13.091h3.085v13.091h-3.085Zm1.551-14.948c-.488 0-.909-.162-1.261-.486-.352-.33-.529-.725-.529-1.185 0-.466.177-.861.529-1.185a1.784 1.784 0 0 1 1.261-.494c.495 0 .915.165 1.262.494.352.324.528.719.528 1.185 0 .46-.176.855-.528 1.185a1.781 1.781 0 0 1-1.262.486Zm10.417 15.204c-1.278 0-2.386-.281-3.324-.844-.937-.562-1.664-1.349-2.182-2.36-.511-1.012-.767-2.194-.767-3.546 0-1.352.256-2.537.767-3.554.518-1.017 1.245-1.807 2.182-2.369.938-.563 2.046-.844 3.324-.844 1.279 0 2.387.281 3.324.844.938.562 1.662 1.352 2.173 2.369.517 1.017.776 2.202.776 3.554 0 1.352-.259 2.534-.776 3.546-.511 1.011-1.235 1.798-2.173 2.36-.937.563-2.045.844-3.324.844Zm.017-2.472c.693 0 1.273-.19 1.739-.571.466-.386.812-.903 1.04-1.551.233-.647.349-1.369.349-2.164 0-.802-.116-1.526-.349-2.174-.228-.653-.574-1.173-1.04-1.559-.466-.387-1.046-.58-1.739-.58-.71 0-1.301.193-1.773.58-.465.386-.815.906-1.048 1.559-.227.648-.341 1.372-.341 2.174 0 .795.114 1.517.341 2.164.233.648.583 1.165 1.048 1.551.472.381 1.063.571 1.773.571Zm11.96-5.454v7.67h-3.086v-13.091h2.949v2.225h.154a3.74 3.74 0 0 1 1.44-1.747c.665-.432 1.486-.648 2.463-.648.904 0 1.691.193 2.361.58.676.386 1.199.946 1.568 1.679.375.733.56 1.622.554 2.667v8.335h-3.085v-7.858c0-.875-.227-1.559-.682-2.054-.449-.494-1.071-.741-1.866-.741-.54 0-1.02.119-1.441.358a2.483 2.483 0 0 0-.98 1.014c-.233.443-.349.98-.349 1.611Zm21.886-1.96-2.812.307a2.262 2.262 0 0 0-.418-.802 2.082 2.082 0 0 0-.784-.605c-.33-.153-.733-.23-1.21-.23-.642 0-1.182.139-1.62.418-.431.278-.645.639-.639 1.082-.006.381.134.691.418.929.29.239.767.435 1.432.588l2.233.477c1.238.268 2.159.691 2.761 1.27.608.58.915 1.338.92 2.276a3.558 3.558 0 0 1-.724 2.182c-.472.625-1.128 1.113-1.969 1.466-.841.352-1.807.528-2.898.528-1.602 0-2.892-.335-3.869-1.006-.977-.676-1.56-1.616-1.747-2.821l3.008-.289c.137.591.427 1.037.87 1.338.443.301 1.02.451 1.73.451.733 0 1.321-.15 1.764-.451.449-.301.673-.674.673-1.117 0-.375-.144-.684-.434-.929-.284-.244-.728-.432-1.33-.562l-2.233-.469c-1.255-.261-2.184-.702-2.787-1.321-.602-.625-.9-1.415-.895-2.369-.005-.807.213-1.506.657-2.097.449-.597 1.071-1.057 1.866-1.381.801-.329 1.725-.494 2.77-.494 1.534 0 2.742.327 3.622.98.887.654 1.435 1.537 1.645 2.651Z"/><rect width="442.079" height="80" x="58.27" y="271.353" fill="#fff" fill-opacity=".1" rx="10"/><circle cx="98.269" cy="311.353" r="29.4" fill="#fff" stroke="#DFEAFF" stroke-width="1.2"/><path stroke="#0A1D42" stroke-linejoin="round" stroke-width="2.118" d="M86.27 317c0 .655 0 .983.027 1.259a5.648 5.648 0 0 0 5.066 5.067c.276.027.604.027 1.26.027h12.705c.656 0 .984 0 1.26-.027a5.647 5.647 0 0 0 5.066-5.067c.027-.276.027-.604.027-1.259m-25.412 0v-7.483c0-4.235 0-6.352 1.079-7.836.348-.48.77-.901 1.25-1.25 1.484-1.078 3.601-1.078 7.836-1.078h5.083c4.235 0 6.352 0 7.836 1.078.48.349.901.77 1.25 1.25 1.078 1.484 1.078 3.601 1.078 7.836V317m-25.412 0 3.23-4.521c1.38-1.932 2.07-2.898 2.95-3.187a2.827 2.827 0 0 1 1.759 0c.88.289 1.57 1.255 2.95 3.187l.716 1.003c.526.736.789 1.104 1.07 1.337.913.757 2.2.864 3.225.267.316-.184.636-.504 1.275-1.143.552-.552.828-.828 1.11-1.001a2.824 2.824 0 0 1 2.961 0c.282.173.558.449 1.109 1.001l3.057 3.057m-4.235-10.941a2.47 2.47 0 1 1-4.94 0 2.47 2.47 0 0 1 4.94 0Z"/><path fill="#B8B8B8" d="M160.931 308.287h-3.187a3.984 3.984 0 0 0-.503-1.389 3.74 3.74 0 0 0-.912-1.04 3.792 3.792 0 0 0-1.244-.639 4.88 4.88 0 0 0-1.492-.221c-.948 0-1.789.238-2.522.716-.733.471-1.307 1.164-1.722 2.079-.415.909-.622 2.02-.622 3.333 0 1.335.207 2.46.622 3.375.421.909.994 1.596 1.722 2.062.733.46 1.571.69 2.514.69.523 0 1.011-.068 1.466-.204.46-.142.872-.35 1.236-.622.369-.273.679-.608.929-1.006.255-.398.431-.852.528-1.364l3.187.017a6.856 6.856 0 0 1-.775 2.336 6.88 6.88 0 0 1-1.543 1.926 7.094 7.094 0 0 1-2.233 1.295c-.852.307-1.798.46-2.838.46-1.534 0-2.903-.355-4.108-1.065-1.204-.71-2.153-1.736-2.846-3.077-.693-1.341-1.04-2.948-1.04-4.823 0-1.881.349-3.489 1.048-4.824.699-1.341 1.651-2.367 2.855-3.077 1.205-.71 2.569-1.065 4.091-1.065.972 0 1.875.136 2.71.409.836.272 1.58.673 2.233 1.201a6.38 6.38 0 0 1 1.611 1.927c.426.755.705 1.619.835 2.59Zm2.76 11.566v-13.091h2.991v2.182h.137c.238-.756.647-1.338 1.227-1.747a3.377 3.377 0 0 1 2.003-.623c.17 0 .36.009.571.026.216.011.395.031.537.06v2.838a3.186 3.186 0 0 0-.623-.12 5.829 5.829 0 0 0-.809-.059c-.563 0-1.068.122-1.517.366a2.69 2.69 0 0 0-1.049.997c-.255.426-.383.918-.383 1.475v7.696h-3.085Zm14.772.255c-1.313 0-2.446-.272-3.401-.818a5.534 5.534 0 0 1-2.19-2.335c-.512-1.011-.767-2.202-.767-3.571 0-1.347.255-2.528.767-3.545.517-1.023 1.238-1.819 2.165-2.387.926-.574 2.014-.861 3.264-.861.807 0 1.568.131 2.284.392a5.169 5.169 0 0 1 1.909 1.194c.557.539.994 1.227 1.312 2.062.319.83.478 1.818.478 2.966v.946h-10.73v-2.079h7.772c-.005-.591-.133-1.117-.383-1.577-.25-.466-.6-.833-1.048-1.1-.444-.267-.961-.4-1.552-.4-.63 0-1.184.153-1.662.46a3.173 3.173 0 0 0-1.116 1.193 3.445 3.445 0 0 0-.401 1.611v1.815c0 .762.14 1.415.418 1.961.278.539.668.954 1.168 1.244.5.284 1.085.426 1.755.426.449 0 .855-.062 1.219-.187.364-.131.679-.321.946-.571.267-.25.469-.56.605-.929l2.881.323a4.495 4.495 0 0 1-1.04 1.995c-.506.562-1.153 1-1.943 1.312-.79.307-1.693.46-2.71.46Zm12.198.009c-.83 0-1.577-.148-2.242-.443a3.663 3.663 0 0 1-1.568-1.33c-.38-.585-.571-1.307-.571-2.165 0-.738.137-1.349.409-1.832a3.167 3.167 0 0 1 1.117-1.159 5.597 5.597 0 0 1 1.594-.656 12.982 12.982 0 0 1 1.849-.333 68.27 68.27 0 0 0 1.866-.213c.478-.068.824-.17 1.04-.307.222-.142.333-.36.333-.656v-.051c0-.642-.191-1.139-.571-1.491-.381-.353-.929-.529-1.645-.529-.756 0-1.355.165-1.799.495-.437.329-.733.718-.886 1.167l-2.881-.409c.228-.795.603-1.46 1.125-1.994a4.891 4.891 0 0 1 1.918-1.21c.756-.273 1.591-.41 2.506-.41.63 0 1.258.074 1.883.222a5.303 5.303 0 0 1 1.713.733 3.69 3.69 0 0 1 1.245 1.372c.318.58.477 1.304.477 2.173v8.762h-2.966v-1.799h-.102a3.77 3.77 0 0 1-.793 1.023c-.335.313-.759.566-1.27.759-.506.187-1.099.281-1.781.281Zm.801-2.267c.619 0 1.156-.122 1.611-.367a2.71 2.71 0 0 0 1.048-.988c.25-.409.375-.855.375-1.338v-1.543c-.096.08-.261.154-.494.222a6.996 6.996 0 0 1-.767.179c-.284.051-.566.096-.844.136l-.724.102a5.399 5.399 0 0 0-1.236.307 2.047 2.047 0 0 0-.861.597c-.21.25-.315.574-.315.971 0 .569.207.998.622 1.287.415.29.943.435 1.585.435Zm15.75-11.088v2.386h-7.526v-2.386h7.526Zm-5.668-3.136h3.086v12.289c0 .415.062.733.187.955.131.216.301.363.511.443.211.08.444.119.699.119.194 0 .37-.014.529-.042.165-.029.29-.054.375-.077l.52 2.412a6.836 6.836 0 0 1-.708.187c-.301.069-.67.108-1.108.12-.772.022-1.468-.094-2.088-.35a3.24 3.24 0 0 1-1.474-1.21c-.358-.545-.534-1.227-.529-2.045v-12.801Zm13.903 16.482c-1.312 0-2.446-.272-3.4-.818a5.542 5.542 0 0 1-2.191-2.335c-.511-1.011-.767-2.202-.767-3.571 0-1.347.256-2.528.767-3.545.517-1.023 1.239-1.819 2.165-2.387.926-.574 2.014-.861 3.264-.861.807 0 1.568.131 2.284.392a5.16 5.16 0 0 1 1.909 1.194c.557.539.995 1.227 1.313 2.062.318.83.477 1.818.477 2.966v.946h-10.73v-2.079h7.773c-.006-.591-.134-1.117-.384-1.577a2.788 2.788 0 0 0-1.048-1.1c-.443-.267-.96-.4-1.551-.4-.631 0-1.185.153-1.662.46-.477.301-.85.699-1.117 1.193a3.432 3.432 0 0 0-.4 1.611v1.815c0 .762.139 1.415.417 1.961a2.99 2.99 0 0 0 1.168 1.244c.5.284 1.085.426 1.756.426.449 0 .855-.062 1.218-.187.364-.131.679-.321.946-.571.268-.25.469-.56.606-.929l2.88.323a4.485 4.485 0 0 1-1.04 1.995c-.505.562-1.153 1-1.943 1.312-.789.307-1.693.46-2.71.46Zm19.242-.025c-1.028 0-1.949-.264-2.761-.793-.813-.528-1.455-1.295-1.926-2.301-.472-1.006-.708-2.227-.708-3.665 0-1.454.239-2.681.716-3.681.483-1.006 1.134-1.765 1.952-2.276a5.016 5.016 0 0 1 2.736-.776c.767 0 1.398.131 1.892.392.494.256.886.566 1.176.929.29.358.514.696.673 1.015h.128v-6.529h3.094v17.455h-3.034v-2.063h-.188a5.246 5.246 0 0 1-.69 1.014c-.301.353-.699.654-1.193.904-.495.25-1.117.375-1.867.375Zm.861-2.531c.653 0 1.21-.176 1.671-.529.46-.358.809-.855 1.048-1.491.238-.637.358-1.378.358-2.225 0-.846-.12-1.582-.358-2.207-.233-.625-.58-1.111-1.04-1.457-.454-.347-1.014-.52-1.679-.52-.687 0-1.261.179-1.722.537-.46.358-.806.852-1.039 1.483-.233.63-.35 1.352-.35 2.164 0 .819.117 1.549.35 2.191.238.636.588 1.139 1.048 1.508.466.364 1.037.546 1.713.546Zm9.399 2.301v-13.091h3.085v13.091h-3.085Zm1.551-14.949c-.489 0-.909-.162-1.262-.486-.352-.329-.528-.724-.528-1.185 0-.465.176-.86.528-1.184.353-.33.773-.495 1.262-.495.494 0 .914.165 1.261.495.352.324.528.719.528 1.184 0 .461-.176.856-.528 1.185a1.78 1.78 0 0 1-1.261.486Zm10.4 20.131c-1.108 0-2.06-.151-2.856-.452-.795-.296-1.434-.693-1.917-1.193a4.136 4.136 0 0 1-1.006-1.662l2.779-.674c.125.256.306.509.545.759.239.256.56.466.963.631.409.17.923.255 1.543.255.875 0 1.599-.213 2.173-.639.574-.42.861-1.113.861-2.079v-2.48h-.154a4.393 4.393 0 0 1-.699.98c-.301.335-.701.616-1.201.843-.495.228-1.117.341-1.867.341-1.005 0-1.917-.236-2.736-.707-.812-.477-1.46-1.188-1.943-2.131-.477-.949-.716-2.136-.716-3.562 0-1.438.239-2.651.716-3.639.483-.995 1.134-1.748 1.952-2.259a5.016 5.016 0 0 1 2.736-.776c.767 0 1.398.131 1.892.392.5.256.898.566 1.193.929.295.358.52.696.673 1.015h.171v-2.165h3.042v13.304c0 1.119-.267 2.045-.801 2.778-.534.733-1.264 1.282-2.19 1.645-.926.364-1.977.546-3.153.546Zm.025-7.79c.653 0 1.21-.159 1.671-.477.46-.319.809-.776 1.048-1.373.238-.596.358-1.312.358-2.147 0-.824-.12-1.546-.358-2.165-.233-.619-.58-1.1-1.04-1.44-.454-.347-1.014-.52-1.679-.52-.687 0-1.261.179-1.722.537-.46.358-.806.849-1.039 1.474-.233.619-.35 1.324-.35 2.114 0 .801.117 1.503.35 2.105.238.596.588 1.062 1.048 1.398.466.329 1.037.494 1.713.494Zm9.281 2.608v-13.091h3.086v13.091h-3.086Zm1.551-14.949c-.488 0-.909-.162-1.261-.486-.352-.329-.528-.724-.528-1.185 0-.465.176-.86.528-1.184.352-.33.773-.495 1.261-.495.495 0 .915.165 1.262.495.352.324.528.719.528 1.184 0 .461-.176.856-.528 1.185a1.781 1.781 0 0 1-1.262.486Zm11.244 1.858v2.386h-7.526v-2.386h7.526Zm-5.668-3.136h3.086v12.289c0 .415.062.733.187.955.131.216.301.363.512.443.21.08.443.119.698.119.194 0 .37-.014.529-.042.165-.029.29-.054.375-.077l.52 2.412a6.836 6.836 0 0 1-.708.187c-.301.069-.67.108-1.108.12-.772.022-1.468-.094-2.088-.35a3.24 3.24 0 0 1-1.474-1.21c-.358-.545-.534-1.227-.529-2.045v-12.801Zm12.015 16.491c-.829 0-1.576-.148-2.241-.443a3.658 3.658 0 0 1-1.568-1.33c-.381-.585-.571-1.307-.571-2.165 0-.738.136-1.349.409-1.832a3.173 3.173 0 0 1 1.116-1.159 5.609 5.609 0 0 1 1.594-.656 13.007 13.007 0 0 1 1.849-.333c.767-.079 1.39-.15 1.867-.213.477-.068.824-.17 1.04-.307.221-.142.332-.36.332-.656v-.051c0-.642-.19-1.139-.571-1.491-.381-.353-.929-.529-1.645-.529-.756 0-1.355.165-1.798.495-.438.329-.733.718-.886 1.167l-2.881-.409c.227-.795.602-1.46 1.125-1.994a4.895 4.895 0 0 1 1.917-1.21c.756-.273 1.591-.41 2.506-.41a8.15 8.15 0 0 1 1.884.222 5.303 5.303 0 0 1 1.713.733c.517.335.932.793 1.244 1.372.318.58.477 1.304.477 2.173v8.762h-2.966v-1.799h-.102a3.765 3.765 0 0 1-.792 1.023c-.336.313-.759.566-1.27.759-.506.187-1.1.281-1.782.281Zm.802-2.267c.619 0 1.156-.122 1.61-.367.455-.25.804-.579 1.049-.988.25-.409.375-.855.375-1.338v-1.543c-.097.08-.262.154-.495.222a6.996 6.996 0 0 1-.767.179c-.284.051-.565.096-.844.136l-.724.102c-.46.063-.872.165-1.236.307a2.06 2.06 0 0 0-.861.597c-.21.25-.315.574-.315.971 0 .569.208.998.622 1.287.415.29.943.435 1.586.435Zm12.298-15.452v17.455h-3.085v-17.455h3.085Zm12.893 17.719c-.83 0-1.577-.148-2.242-.443a3.658 3.658 0 0 1-1.568-1.33c-.381-.585-.571-1.307-.571-2.165 0-.738.136-1.349.409-1.832a3.173 3.173 0 0 1 1.116-1.159 5.609 5.609 0 0 1 1.594-.656 12.995 12.995 0 0 1 1.85-.333 68.27 68.27 0 0 0 1.866-.213c.477-.068.824-.17 1.04-.307.221-.142.332-.36.332-.656v-.051c0-.642-.19-1.139-.571-1.491-.38-.353-.929-.529-1.645-.529-.755 0-1.355.165-1.798.495-.437.329-.733.718-.886 1.167l-2.881-.409c.227-.795.602-1.46 1.125-1.994a4.891 4.891 0 0 1 1.918-1.21c.755-.273 1.591-.41 2.505-.41a8.15 8.15 0 0 1 1.884.222 5.303 5.303 0 0 1 1.713.733c.517.335.932.793 1.244 1.372.318.58.477 1.304.477 2.173v8.762h-2.965v-1.799h-.103a3.745 3.745 0 0 1-.792 1.023c-.336.313-.759.566-1.27.759-.506.187-1.1.281-1.781.281Zm.801-2.267c.619 0 1.156-.122 1.61-.367.455-.25.804-.579 1.049-.988.25-.409.375-.855.375-1.338v-1.543c-.097.08-.262.154-.495.222a6.942 6.942 0 0 1-.767.179c-.284.051-.565.096-.843.136l-.725.102c-.46.063-.872.165-1.236.307a2.05 2.05 0 0 0-.86.597c-.211.25-.316.574-.316.971 0 .569.208.998.622 1.287.415.29.944.435 1.586.435Zm9.213 2.003v-13.091h2.991v2.182h.137c.238-.756.647-1.338 1.227-1.747a3.377 3.377 0 0 1 2.003-.623c.17 0 .361.009.571.026.216.011.395.031.537.06v2.838a3.189 3.189 0 0 0-.622-.12 5.854 5.854 0 0 0-.81-.059c-.563 0-1.068.122-1.517.366a2.68 2.68 0 0 0-1.048.997c-.256.426-.384.918-.384 1.475v7.696h-3.085Zm16.755-13.091v2.386h-7.525v-2.386h7.525Zm-5.667-3.136h3.085v12.289c0 .415.063.733.188.955.13.216.301.363.511.443.21.08.443.119.699.119.193 0 .369-.014.528-.042.165-.029.29-.054.375-.077l.52 2.412c-.165.057-.4.119-.707.187a5.776 5.776 0 0 1-1.108.12c-.773.022-1.469-.094-2.088-.35a3.242 3.242 0 0 1-1.475-1.21c-.358-.545-.534-1.227-.528-2.045v-12.801Zm10.949 16.227-3.698-13.091h3.144l2.302 9.204h.119l2.352-9.204h3.111l2.352 9.153h.128l2.267-9.153h3.154l-3.708 13.091h-3.213l-2.454-8.847h-.179l-2.455 8.847h-3.222Zm22.72.255c-1.279 0-2.387-.281-3.324-.843-.938-.563-1.665-1.35-2.182-2.361-.511-1.011-.767-2.193-.767-3.546 0-1.352.256-2.536.767-3.554.517-1.017 1.244-1.806 2.182-2.369.937-.562 2.045-.844 3.324-.844 1.278 0 2.386.282 3.324.844.937.563 1.662 1.352 2.173 2.369.517 1.018.776 2.202.776 3.554 0 1.353-.259 2.535-.776 3.546a5.68 5.68 0 0 1-2.173 2.361c-.938.562-2.046.843-3.324.843Zm.017-2.471c.693 0 1.273-.19 1.739-.571.465-.387.812-.904 1.039-1.551.233-.648.35-1.37.35-2.165 0-.801-.117-1.526-.35-2.173-.227-.654-.574-1.174-1.039-1.56-.466-.386-1.046-.58-1.739-.58-.71 0-1.301.194-1.773.58-.466.386-.815.906-1.048 1.56-.227.647-.341 1.372-.341 2.173 0 .795.114 1.517.341 2.165.233.647.582 1.164 1.048 1.551.472.381 1.063.571 1.773.571Zm8.874 2.216v-13.091h2.992v2.182h.136c.239-.756.648-1.338 1.227-1.747a3.38 3.38 0 0 1 2.003-.623c.171 0 .361.009.571.026.216.011.395.031.537.06v2.838a3.189 3.189 0 0 0-.622-.12 5.832 5.832 0 0 0-.81-.059c-.562 0-1.068.122-1.517.366a2.688 2.688 0 0 0-1.048.997c-.256.426-.384.918-.384 1.475v7.696h-3.085Zm12.328-4.108-.008-3.725h.494l4.705-5.258h3.605l-5.787 6.443h-.639l-2.37 2.54Zm-2.812 4.108v-17.455h3.085v17.455h-3.085Zm8.216 0-4.262-5.958 2.08-2.173 5.872 8.131h-3.69Z"/><circle cx="94.627" cy="401.129" r="29.4" fill="#fff" stroke="#DFEAFF" stroke-width="1.2"/><path stroke="#0A1D42" stroke-linecap="round" stroke-linejoin="round" stroke-width="2" d="M105.294 398.463v1.333a9.333 9.333 0 0 1-9.334 9.333m0 0a9.333 9.333 0 0 1-9.333-9.333v-1.333m9.333 10.666v4m0-8a5.333 5.333 0 0 0 5.334-5.333v-5.333a5.334 5.334 0 1 0-10.667 0v5.333a5.333 5.333 0 0 0 5.333 5.333Z"/><path fill="#B8B8B8" d="M154.042 400.249a4.51 4.51 0 0 0-.588-1.236 3.808 3.808 0 0 0-.887-.946 3.589 3.589 0 0 0-1.176-.588 4.884 4.884 0 0 0-1.449-.205c-.937 0-1.772.236-2.505.708-.733.471-1.31 1.164-1.731 2.079-.414.909-.622 2.017-.622 3.324 0 1.318.208 2.435.622 3.35.415.914.992 1.61 1.731 2.088.738.471 1.596.707 2.573.707.887 0 1.654-.17 2.302-.511a3.604 3.604 0 0 0 1.508-1.449c.352-.631.529-1.37.529-2.216l.715.111h-4.738v-2.472h7.082v2.097c0 1.494-.318 2.787-.954 3.877a6.53 6.53 0 0 1-2.625 2.523c-1.114.585-2.392.878-3.836.878-1.608 0-3.019-.361-4.235-1.082-1.211-.728-2.157-1.759-2.838-3.094-.677-1.341-1.015-2.932-1.015-4.773 0-1.409.199-2.667.597-3.775.403-1.108.966-2.049 1.687-2.821a7.179 7.179 0 0 1 2.54-1.773c.972-.409 2.029-.614 3.171-.614.966 0 1.866.142 2.701.426a7.151 7.151 0 0 1 2.225 1.194 6.665 6.665 0 0 1 1.611 1.84 6.49 6.49 0 0 1 .826 2.353h-3.221Zm7.108 11.88v-13.091h3.085v13.091h-3.085Zm1.551-14.948c-.489 0-.909-.162-1.262-.486-.352-.33-.528-.725-.528-1.185 0-.466.176-.861.528-1.185a1.787 1.787 0 0 1 1.262-.494c.494 0 .915.165 1.261.494.352.324.529.719.529 1.185 0 .46-.177.855-.529 1.185a1.779 1.779 0 0 1-1.261.486Zm16.4 1.857-4.662 13.091h-3.409l-4.662-13.091h3.289l3.009 9.725h.136l3.017-9.725h3.282Zm7.485 13.347c-1.313 0-2.446-.273-3.401-.818a5.54 5.54 0 0 1-2.19-2.335c-.512-1.012-.767-2.202-.767-3.571 0-1.347.255-2.529.767-3.546.517-1.023 1.238-1.818 2.165-2.386.926-.574 2.014-.861 3.264-.861.807 0 1.568.131 2.284.392a5.158 5.158 0 0 1 1.909 1.193c.557.54.994 1.228 1.313 2.063.318.829.477 1.818.477 2.966v.946h-10.73v-2.08h7.772c-.005-.591-.133-1.116-.383-1.577-.25-.465-.6-.832-1.048-1.099-.444-.267-.961-.401-1.552-.401-.63 0-1.184.154-1.661.461-.478.301-.85.699-1.117 1.193a3.439 3.439 0 0 0-.401 1.611v1.815c0 .761.14 1.415.418 1.96.278.54.668.955 1.168 1.245.5.284 1.085.426 1.755.426.449 0 .855-.063 1.219-.188.364-.131.679-.321.946-.571.267-.25.469-.56.605-.929l2.881.324a4.487 4.487 0 0 1-1.04 1.994c-.506.563-1.153 1-1.943 1.313-.79.307-1.693.46-2.71.46Zm26.077-13.347-4.662 13.091h-3.409l-4.662-13.091h3.29l3.009 9.725h.136l3.017-9.725h3.281Zm7.4 13.347c-1.278 0-2.386-.281-3.324-.844-.937-.562-1.665-1.349-2.182-2.36-.511-1.012-.767-2.194-.767-3.546 0-1.352.256-2.537.767-3.554.517-1.017 1.245-1.807 2.182-2.369.938-.563 2.046-.844 3.324-.844s2.386.281 3.324.844c.937.562 1.662 1.352 2.173 2.369.517 1.017.776 2.202.776 3.554 0 1.352-.259 2.534-.776 3.546-.511 1.011-1.236 1.798-2.173 2.36-.938.563-2.046.844-3.324.844Zm.017-2.472c.693 0 1.273-.19 1.739-.571.466-.386.812-.903 1.039-1.551.233-.647.35-1.369.35-2.164 0-.802-.117-1.526-.35-2.174-.227-.653-.573-1.173-1.039-1.559-.466-.387-1.046-.58-1.739-.58-.71 0-1.301.193-1.773.58-.466.386-.815.906-1.048 1.559-.227.648-.341 1.372-.341 2.174 0 .795.114 1.517.341 2.164.233.648.582 1.165 1.048 1.551.472.381 1.063.571 1.773.571Zm8.874 2.216v-13.091h3.086v13.091h-3.086Zm1.552-14.948a1.8 1.8 0 0 1-1.262-.486c-.352-.33-.528-.725-.528-1.185 0-.466.176-.861.528-1.185a1.785 1.785 0 0 1 1.262-.494c.494 0 .914.165 1.261.494.352.324.528.719.528 1.185 0 .46-.176.855-.528 1.185a1.78 1.78 0 0 1-1.261.486Zm10.416 15.204c-1.306 0-2.429-.287-3.366-.861a5.74 5.74 0 0 1-2.156-2.378c-.5-1.017-.75-2.187-.75-3.511 0-1.329.255-2.503.767-3.52.511-1.023 1.233-1.818 2.164-2.386.938-.574 2.046-.861 3.324-.861 1.063 0 2.003.196 2.821.588a4.82 4.82 0 0 1 1.969 1.645c.489.705.767 1.528.835 2.472h-2.949a2.814 2.814 0 0 0-.852-1.577c-.443-.426-1.037-.639-1.781-.639-.631 0-1.185.17-1.662.511-.477.335-.849.818-1.116 1.449-.262.631-.392 1.386-.392 2.267 0 .892.13 1.659.392 2.301.261.636.627 1.128 1.099 1.475.477.34 1.037.511 1.679.511.455 0 .861-.085 1.219-.256.363-.176.667-.429.912-.758.244-.33.412-.73.502-1.202h2.949c-.074.926-.346 1.747-.818 2.463-.471.71-1.113 1.267-1.926 1.67-.812.398-1.767.597-2.864.597Zm13.937 0c-1.312 0-2.446-.273-3.4-.818a5.548 5.548 0 0 1-2.191-2.335c-.511-1.012-.767-2.202-.767-3.571 0-1.347.256-2.529.767-3.546.517-1.023 1.239-1.818 2.165-2.386.926-.574 2.014-.861 3.264-.861.807 0 1.568.131 2.284.392a5.158 5.158 0 0 1 1.909 1.193c.557.54.995 1.228 1.313 2.063.318.829.477 1.818.477 2.966v.946h-10.73v-2.08h7.773c-.006-.591-.134-1.116-.384-1.577a2.792 2.792 0 0 0-1.048-1.099c-.443-.267-.96-.401-1.551-.401-.631 0-1.185.154-1.662.461a3.183 3.183 0 0 0-1.117 1.193 3.438 3.438 0 0 0-.4 1.611v1.815c0 .761.139 1.415.418 1.96.278.54.667.955 1.167 1.245.5.284 1.085.426 1.756.426.449 0 .855-.063 1.219-.188.363-.131.679-.321.946-.571.267-.25.468-.56.605-.929l2.88.324a4.485 4.485 0 0 1-1.039 1.994c-.506.563-1.154 1-1.944 1.313-.789.307-1.693.46-2.71.46Zm20.095 0c-1.307 0-2.429-.287-3.367-.861a5.746 5.746 0 0 1-2.156-2.378c-.5-1.017-.75-2.187-.75-3.511 0-1.329.256-2.503.767-3.52.511-1.023 1.233-1.818 2.165-2.386.937-.574 2.045-.861 3.324-.861 1.062 0 2.002.196 2.821.588.823.386 1.48.935 1.968 1.645.489.705.767 1.528.836 2.472h-2.949a2.822 2.822 0 0 0-.853-1.577c-.443-.426-1.036-.639-1.781-.639-.63 0-1.184.17-1.662.511-.477.335-.849.818-1.116 1.449-.262.631-.392 1.386-.392 2.267 0 .892.13 1.659.392 2.301.261.636.628 1.128 1.099 1.475.478.34 1.037.511 1.679.511.455 0 .861-.085 1.219-.256.364-.176.668-.429.912-.758.244-.33.412-.73.503-1.202h2.949c-.074.926-.347 1.747-.819 2.463-.471.71-1.113 1.267-1.926 1.67-.812.398-1.767.597-2.863.597Zm13.851 0c-1.278 0-2.386-.281-3.324-.844-.937-.562-1.664-1.349-2.181-2.36-.512-1.012-.768-2.194-.768-3.546 0-1.352.256-2.537.768-3.554.517-1.017 1.244-1.807 2.181-2.369.938-.563 2.046-.844 3.324-.844 1.279 0 2.387.281 3.324.844.938.562 1.662 1.352 2.173 2.369.517 1.017.776 2.202.776 3.554 0 1.352-.259 2.534-.776 3.546-.511 1.011-1.235 1.798-2.173 2.36-.937.563-2.045.844-3.324.844Zm.017-2.472c.693 0 1.273-.19 1.739-.571.466-.386.812-.903 1.04-1.551.233-.647.349-1.369.349-2.164 0-.802-.116-1.526-.349-2.174-.228-.653-.574-1.173-1.04-1.559-.466-.387-1.046-.58-1.739-.58-.71 0-1.301.193-1.772.58-.466.386-.816.906-1.049 1.559-.227.648-.341 1.372-.341 2.174 0 .795.114 1.517.341 2.164.233.648.583 1.165 1.049 1.551.471.381 1.062.571 1.772.571Zm8.875 2.216v-13.091h2.948v2.225h.154c.273-.75.724-1.335 1.355-1.756.631-.426 1.383-.639 2.258-.639.887 0 1.634.216 2.242.648.614.426 1.045 1.008 1.295 1.747h.137a3.58 3.58 0 0 1 1.466-1.739c.693-.437 1.514-.656 2.463-.656 1.204 0 2.187.381 2.949 1.142.761.761 1.142 1.872 1.142 3.332v8.787h-3.094v-8.309c0-.813-.216-1.407-.648-1.782-.432-.38-.96-.571-1.585-.571-.744 0-1.327.233-1.747.699-.415.461-.622 1.06-.622 1.799v8.164h-3.026v-8.437c0-.676-.204-1.216-.614-1.619-.403-.404-.931-.606-1.585-.606a2.24 2.24 0 0 0-1.21.341 2.379 2.379 0 0 0-.869.946c-.216.404-.324.875-.324 1.415v7.96h-3.085Zm21.539 0v-13.091h2.948v2.225h.154c.273-.75.724-1.335 1.355-1.756.631-.426 1.384-.639 2.259-.639.886 0 1.633.216 2.241.648.614.426 1.045 1.008 1.295 1.747h.137a3.58 3.58 0 0 1 1.466-1.739c.693-.437 1.514-.656 2.463-.656 1.204 0 2.187.381 2.949 1.142.761.761 1.142 1.872 1.142 3.332v8.787h-3.094v-8.309c0-.813-.216-1.407-.648-1.782-.432-.38-.96-.571-1.585-.571-.744 0-1.327.233-1.747.699-.415.461-.622 1.06-.622 1.799v8.164h-3.026v-8.437c0-.676-.204-1.216-.614-1.619-.403-.404-.931-.606-1.585-.606a2.24 2.24 0 0 0-1.21.341 2.379 2.379 0 0 0-.869.946c-.216.404-.324.875-.324 1.415v7.96h-3.085Zm25.306.265c-.83 0-1.577-.148-2.242-.444a3.655 3.655 0 0 1-1.568-1.329c-.381-.585-.571-1.307-.571-2.165 0-.739.136-1.349.409-1.832a3.16 3.16 0 0 1 1.117-1.159 5.62 5.62 0 0 1 1.593-.657 12.995 12.995 0 0 1 1.85-.332c.767-.08 1.389-.151 1.866-.213.478-.068.824-.171 1.04-.307.222-.142.332-.361.332-.656v-.051c0-.642-.19-1.139-.571-1.492-.38-.352-.929-.528-1.644-.528-.756 0-1.356.165-1.799.494-.437.33-.733.719-.886 1.168l-2.881-.409c.227-.796.602-1.461 1.125-1.995a4.903 4.903 0 0 1 1.918-1.21c.755-.273 1.591-.409 2.505-.409a8.15 8.15 0 0 1 1.884.222 5.28 5.28 0 0 1 1.713.733c.517.335.932.792 1.244 1.372.319.579.478 1.304.478 2.173v8.761h-2.966v-1.798h-.103a3.745 3.745 0 0 1-.792 1.023c-.335.312-.759.565-1.27.758-.506.188-1.099.282-1.781.282Zm.801-2.267c.619 0 1.156-.123 1.611-.367.454-.25.804-.579 1.048-.989.25-.409.375-.855.375-1.338v-1.542c-.097.079-.261.153-.494.221a6.824 6.824 0 0 1-.767.179 25.03 25.03 0 0 1-.844.137l-.725.102c-.46.062-.872.165-1.235.307a2.054 2.054 0 0 0-.861.596c-.21.25-.316.574-.316.972 0 .568.208.997.623 1.287.414.29.943.435 1.585.435Zm12.298-5.668v7.67h-3.085v-13.091h2.949v2.225h.153a3.737 3.737 0 0 1 1.441-1.747c.664-.432 1.485-.648 2.463-.648.903 0 1.69.193 2.36.58.677.386 1.199.946 1.569 1.679.375.733.559 1.622.554 2.667v8.335h-3.086v-7.858c0-.875-.227-1.559-.681-2.054-.449-.494-1.072-.741-1.867-.741-.54 0-1.02.119-1.44.358a2.477 2.477 0 0 0-.98 1.014c-.233.443-.35.98-.35 1.611Zm16.398 7.901c-1.029 0-1.949-.265-2.761-.793-.813-.529-1.455-1.296-1.927-2.301-.471-1.006-.707-2.228-.707-3.665 0-1.455.239-2.682.716-3.682.483-1.006 1.133-1.764 1.952-2.275a5.015 5.015 0 0 1 2.735-.776c.767 0 1.398.131 1.892.392.495.256.887.565 1.177.929.289.358.514.696.673 1.014h.128v-6.528h3.093v17.454h-3.034v-2.062h-.187a5.277 5.277 0 0 1-.69 1.014c-.302.352-.699.654-1.194.904-.494.25-1.116.375-1.866.375Zm.861-2.532c.653 0 1.21-.176 1.67-.528.46-.358.81-.855 1.048-1.492.239-.636.358-1.377.358-2.224 0-.847-.119-1.582-.358-2.207-.233-.625-.579-1.111-1.039-1.458-.455-.346-1.015-.52-1.679-.52-.688 0-1.262.179-1.722.537-.46.358-.807.852-1.04 1.483-.233.631-.349 1.352-.349 2.165 0 .818.116 1.548.349 2.19.239.637.588 1.139 1.049 1.509.466.363 1.037.545 1.713.545Zm19.745-7.329-2.813.307a2.26 2.26 0 0 0-.417-.802 2.09 2.09 0 0 0-.784-.605c-.33-.153-.733-.23-1.211-.23-.642 0-1.182.139-1.619.418-.432.278-.645.639-.639 1.082a1.13 1.13 0 0 0 .417.929c.29.239.767.435 1.432.588l2.233.477c1.239.268 2.159.691 2.762 1.27.607.58.914 1.338.92 2.276-.006.824-.247 1.551-.724 2.182-.472.625-1.128 1.113-1.969 1.466-.841.352-1.807.528-2.898.528-1.602 0-2.892-.335-3.869-1.006-.978-.676-1.56-1.616-1.747-2.821l3.008-.289c.136.591.426 1.037.869 1.338.444.301 1.02.451 1.731.451.732 0 1.321-.15 1.764-.451.449-.301.673-.674.673-1.117 0-.375-.145-.684-.435-.929-.284-.244-.727-.432-1.329-.562l-2.233-.469c-1.256-.261-2.185-.702-2.787-1.321-.602-.625-.901-1.415-.895-2.369-.006-.807.213-1.506.656-2.097.449-.597 1.071-1.057 1.867-1.381.801-.329 1.724-.494 2.77-.494 1.534 0 2.741.327 3.622.98.886.654 1.434 1.537 1.645 2.651Z"/><circle cx="94.627" cy="491.129" r="29.4" fill="#fff" stroke="#DFEAFF" stroke-width="1.2"/><path stroke="#0A1D42" stroke-linecap="round" stroke-linejoin="round" stroke-width="2" d="m94.627 503.129-12-5.333v-13.333m12 18.666 12-5.333v-13.333m-12 18.666v-13.333m-12-5.333 12-5.334 6 2.667 6 2.667m-24 0 6 2.666 6 2.667m12-5.333-12 5.333"/><path fill="#B8B8B8" d="M154.042 490.249a4.51 4.51 0 0 0-.588-1.236 3.808 3.808 0 0 0-.887-.946 3.589 3.589 0 0 0-1.176-.588 4.884 4.884 0 0 0-1.449-.205c-.937 0-1.772.236-2.505.708-.733.471-1.31 1.164-1.731 2.079-.414.909-.622 2.017-.622 3.324 0 1.318.208 2.435.622 3.35.415.914.992 1.61 1.731 2.088.738.471 1.596.707 2.573.707.887 0 1.654-.17 2.302-.511a3.604 3.604 0 0 0 1.508-1.449c.352-.631.529-1.37.529-2.216l.715.111h-4.738v-2.472h7.082v2.097c0 1.494-.318 2.787-.954 3.877a6.53 6.53 0 0 1-2.625 2.523c-1.114.585-2.392.878-3.836.878-1.608 0-3.019-.361-4.235-1.082-1.211-.728-2.157-1.759-2.838-3.094-.677-1.341-1.015-2.932-1.015-4.773 0-1.409.199-2.667.597-3.775.403-1.108.966-2.049 1.687-2.821a7.179 7.179 0 0 1 2.54-1.773c.972-.409 2.029-.614 3.171-.614.966 0 1.866.142 2.701.426a7.151 7.151 0 0 1 2.225 1.194 6.665 6.665 0 0 1 1.611 1.84 6.49 6.49 0 0 1 .826 2.353h-3.221Zm12.083 12.136c-1.313 0-2.446-.273-3.401-.818a5.54 5.54 0 0 1-2.19-2.335c-.511-1.012-.767-2.202-.767-3.571 0-1.347.256-2.529.767-3.546.517-1.023 1.239-1.818 2.165-2.386.926-.574 2.014-.861 3.264-.861.807 0 1.568.131 2.284.392a5.158 5.158 0 0 1 1.909 1.193c.557.54.994 1.228 1.313 2.063.318.829.477 1.818.477 2.966v.946h-10.73v-2.08h7.772c-.005-.591-.133-1.116-.383-1.577a2.792 2.792 0 0 0-1.048-1.099c-.444-.267-.961-.401-1.551-.401-.631 0-1.185.154-1.662.461-.478.301-.85.699-1.117 1.193a3.426 3.426 0 0 0-.4 1.611v1.815c0 .761.139 1.415.417 1.96.279.54.668.955 1.168 1.245.5.284 1.085.426 1.755.426a3.73 3.73 0 0 0 1.219-.188c.364-.131.679-.321.946-.571.267-.25.469-.56.605-.929l2.881.324a4.487 4.487 0 0 1-1.04 1.994c-.505.563-1.153 1-1.943 1.313-.79.307-1.693.46-2.71.46Zm11.516-7.926v7.67h-3.085v-13.091h2.949v2.225h.153a3.737 3.737 0 0 1 1.441-1.747c.664-.432 1.485-.648 2.463-.648.903 0 1.69.193 2.36.58.677.386 1.199.946 1.569 1.679.375.733.559 1.622.554 2.667v8.335h-3.086v-7.858c0-.875-.227-1.559-.681-2.054-.449-.494-1.072-.741-1.867-.741-.54 0-1.02.119-1.44.358a2.477 2.477 0 0 0-.98 1.014c-.233.443-.35.98-.35 1.611Zm17.335 7.926c-1.312 0-2.446-.273-3.4-.818a5.548 5.548 0 0 1-2.191-2.335c-.511-1.012-.767-2.202-.767-3.571 0-1.347.256-2.529.767-3.546.518-1.023 1.239-1.818 2.165-2.386.926-.574 2.014-.861 3.264-.861.807 0 1.569.131 2.285.392a5.174 5.174 0 0 1 1.909 1.193c.556.54.994 1.228 1.312 2.063.318.829.477 1.818.477 2.966v.946h-10.73v-2.08h7.773c-.006-.591-.134-1.116-.384-1.577a2.792 2.792 0 0 0-1.048-1.099c-.443-.267-.96-.401-1.551-.401-.631 0-1.185.154-1.662.461a3.173 3.173 0 0 0-1.116 1.193 3.427 3.427 0 0 0-.401 1.611v1.815c0 .761.139 1.415.418 1.96.278.54.667.955 1.167 1.245.5.284 1.086.426 1.756.426.449 0 .855-.063 1.219-.188.363-.131.679-.321.946-.571.267-.25.469-.56.605-.929l2.881.324a4.497 4.497 0 0 1-1.04 1.994c-.506.563-1.154 1-1.943 1.313-.79.307-1.694.46-2.711.46Zm8.431-.256v-13.091h2.992v2.182h.136c.239-.755.648-1.338 1.228-1.747a3.373 3.373 0 0 1 2.002-.622c.171 0 .361.009.571.026.216.011.395.031.537.059v2.838a3.267 3.267 0 0 0-.622-.119 5.683 5.683 0 0 0-.809-.06 3.11 3.11 0 0 0-1.517.367 2.676 2.676 0 0 0-1.049.997c-.255.426-.383.918-.383 1.474v7.696h-3.086Zm13.049.265c-.83 0-1.577-.148-2.242-.444a3.655 3.655 0 0 1-1.568-1.329c-.381-.585-.571-1.307-.571-2.165 0-.739.136-1.349.409-1.832a3.16 3.16 0 0 1 1.117-1.159 5.633 5.633 0 0 1 1.593-.657 12.995 12.995 0 0 1 1.85-.332c.767-.08 1.389-.151 1.866-.213.478-.068.824-.171 1.04-.307.222-.142.332-.361.332-.656v-.051c0-.642-.19-1.139-.571-1.492-.38-.352-.929-.528-1.644-.528-.756 0-1.356.165-1.799.494-.437.33-.733.719-.886 1.168l-2.881-.409c.228-.796.603-1.461 1.125-1.995a4.903 4.903 0 0 1 1.918-1.21c.756-.273 1.591-.409 2.506-.409.63 0 1.258.074 1.883.222a5.28 5.28 0 0 1 1.713.733c.517.335.932.792 1.244 1.372.319.579.478 1.304.478 2.173v8.761h-2.966v-1.798h-.102a3.77 3.77 0 0 1-.793 1.023c-.335.312-.759.565-1.27.758-.506.188-1.099.282-1.781.282Zm.801-2.267c.619 0 1.156-.123 1.611-.367.454-.25.804-.579 1.048-.989.25-.409.375-.855.375-1.338v-1.542c-.097.079-.261.153-.494.221a6.824 6.824 0 0 1-.767.179c-.284.051-.566.097-.844.137l-.725.102c-.46.062-.872.165-1.235.307a2.054 2.054 0 0 0-.861.596c-.21.25-.315.574-.315.972 0 .568.207.997.622 1.287.414.29.943.435 1.585.435Zm15.75-11.089v2.387h-7.526v-2.387h7.526Zm-5.668-3.136h3.086v12.29c0 .415.062.733.187.954.131.216.301.364.511.444.211.079.444.119.699.119.193 0 .37-.014.529-.043.164-.028.289-.054.375-.076l.52 2.412a7.103 7.103 0 0 1-.708.187c-.301.068-.67.108-1.108.119-.773.023-1.469-.093-2.088-.349a3.245 3.245 0 0 1-1.474-1.21c-.358-.546-.534-1.228-.529-2.046v-12.801Zm13.903 16.483c-1.312 0-2.446-.273-3.401-.818a5.546 5.546 0 0 1-2.19-2.335c-.511-1.012-.767-2.202-.767-3.571 0-1.347.256-2.529.767-3.546.517-1.023 1.239-1.818 2.165-2.386.926-.574 2.014-.861 3.264-.861.807 0 1.568.131 2.284.392a5.158 5.158 0 0 1 1.909 1.193c.557.54.995 1.228 1.313 2.063.318.829.477 1.818.477 2.966v.946h-10.73v-2.08h7.773c-.006-.591-.134-1.116-.384-1.577a2.792 2.792 0 0 0-1.048-1.099c-.443-.267-.96-.401-1.551-.401-.631 0-1.185.154-1.662.461-.478.301-.85.699-1.117 1.193a3.426 3.426 0 0 0-.4 1.611v1.815c0 .761.139 1.415.417 1.96.279.54.668.955 1.168 1.245.5.284 1.085.426 1.756.426.448 0 .855-.063 1.218-.188.364-.131.679-.321.946-.571.267-.25.469-.56.606-.929l2.88.324a4.487 4.487 0 0 1-1.04 1.994c-.505.563-1.153 1-1.943 1.313-.79.307-1.693.46-2.71.46Zm14.384 4.653v-18h3.034v2.165h.179c.159-.318.384-.656.674-1.014.289-.364.681-.673 1.176-.929.494-.261 1.125-.392 1.892-.392 1.011 0 1.923.259 2.736.776.818.511 1.465 1.269 1.943 2.275.483 1 .724 2.227.724 3.682 0 1.437-.236 2.659-.707 3.665-.472 1.005-1.114 1.772-1.926 2.301-.813.528-1.733.793-2.762.793-.75 0-1.372-.125-1.866-.375s-.892-.552-1.193-.904a5.846 5.846 0 0 1-.691-1.014h-.128v6.971h-3.085Zm3.026-11.454c0 .847.119 1.588.358 2.224.244.637.594 1.134 1.048 1.492.46.352 1.017.528 1.671.528.681 0 1.252-.182 1.713-.545.46-.37.806-.872 1.039-1.509.239-.642.358-1.372.358-2.19 0-.813-.116-1.534-.349-2.165-.233-.631-.58-1.125-1.04-1.483-.46-.358-1.034-.537-1.721-.537-.66 0-1.219.174-1.679.52-.461.347-.81.833-1.049 1.458-.233.625-.349 1.36-.349 2.207Zm11.974 6.545v-13.091h2.992v2.182h.136c.239-.755.648-1.338 1.227-1.747a3.378 3.378 0 0 1 2.003-.622c.171 0 .361.009.571.026.216.011.395.031.537.059v2.838a3.283 3.283 0 0 0-.622-.119 5.686 5.686 0 0 0-.81-.06c-.562 0-1.068.122-1.517.367a2.68 2.68 0 0 0-1.048.997c-.256.426-.384.918-.384 1.474v7.696h-3.085Zm14.687.256c-1.278 0-2.386-.281-3.324-.844-.937-.562-1.665-1.349-2.182-2.36-.511-1.012-.767-2.194-.767-3.546 0-1.352.256-2.537.767-3.554.517-1.017 1.245-1.807 2.182-2.369.938-.563 2.046-.844 3.324-.844s2.386.281 3.324.844c.937.562 1.662 1.352 2.173 2.369.517 1.017.776 2.202.776 3.554 0 1.352-.259 2.534-.776 3.546-.511 1.011-1.236 1.798-2.173 2.36-.938.563-2.046.844-3.324.844Zm.017-2.472c.693 0 1.273-.19 1.739-.571.466-.386.812-.903 1.039-1.551.233-.647.35-1.369.35-2.164 0-.802-.117-1.526-.35-2.174-.227-.653-.573-1.173-1.039-1.559-.466-.387-1.046-.58-1.739-.58-.71 0-1.301.193-1.773.58-.466.386-.815.906-1.048 1.559-.227.648-.341 1.372-.341 2.174 0 .795.114 1.517.341 2.164.233.648.582 1.165 1.048 1.551.472.381 1.063.571 1.773.571Zm15.505-10.875v2.387h-7.739v-2.387h7.739Zm-5.804 13.091v-14.326c0-.881.182-1.614.546-2.199a3.453 3.453 0 0 1 1.482-1.313 4.822 4.822 0 0 1 2.063-.434c.534 0 1.009.042 1.423.128.415.085.722.161.921.23l-.614 2.386a5.049 5.049 0 0 0-.494-.119 2.96 2.96 0 0 0-.665-.069c-.574 0-.98.14-1.219.418-.233.273-.349.665-.349 1.176v14.122h-3.094Zm19.884.256c-1.307 0-2.429-.287-3.367-.861a5.746 5.746 0 0 1-2.156-2.378c-.5-1.017-.75-2.187-.75-3.511 0-1.329.256-2.503.767-3.52.511-1.023 1.233-1.818 2.165-2.386.937-.574 2.045-.861 3.324-.861 1.062 0 2.002.196 2.821.588.823.386 1.48.935 1.968 1.645.489.705.767 1.528.836 2.472h-2.949a2.822 2.822 0 0 0-.853-1.577c-.443-.426-1.037-.639-1.781-.639-.631 0-1.184.17-1.662.511-.477.335-.849.818-1.116 1.449-.262.631-.392 1.386-.392 2.267 0 .892.13 1.659.392 2.301.261.636.628 1.128 1.099 1.475.477.34 1.037.511 1.679.511.455 0 .861-.085 1.219-.256.364-.176.668-.429.912-.758.244-.33.412-.73.503-1.202h2.949c-.074.926-.347 1.747-.819 2.463-.471.71-1.113 1.267-1.926 1.67-.812.398-1.767.597-2.863.597Zm13.851 0c-1.278 0-2.386-.281-3.324-.844-.937-.562-1.664-1.349-2.182-2.36-.511-1.012-.767-2.194-.767-3.546 0-1.352.256-2.537.767-3.554.518-1.017 1.245-1.807 2.182-2.369.938-.563 2.046-.844 3.324-.844 1.279 0 2.387.281 3.324.844.938.562 1.662 1.352 2.173 2.369.517 1.017.776 2.202.776 3.554 0 1.352-.259 2.534-.776 3.546-.511 1.011-1.235 1.798-2.173 2.36-.937.563-2.045.844-3.324.844Zm.017-2.472c.693 0 1.273-.19 1.739-.571.466-.386.812-.903 1.04-1.551.233-.647.349-1.369.349-2.164 0-.802-.116-1.526-.349-2.174-.228-.653-.574-1.173-1.04-1.559-.466-.387-1.046-.58-1.739-.58-.71 0-1.301.193-1.773.58-.465.386-.815.906-1.048 1.559-.227.648-.341 1.372-.341 2.174 0 .795.114 1.517.341 2.164.233.648.583 1.165 1.048 1.551.472.381 1.063.571 1.773.571Zm11.96-5.454v7.67h-3.086v-13.091h2.949v2.225h.154a3.74 3.74 0 0 1 1.44-1.747c.665-.432 1.486-.648 2.463-.648.904 0 1.691.193 2.361.58.676.386 1.199.946 1.568 1.679.375.733.56 1.622.554 2.667v8.335h-3.085v-7.858c0-.875-.227-1.559-.682-2.054-.449-.494-1.071-.741-1.866-.741-.54 0-1.02.119-1.441.358a2.483 2.483 0 0 0-.98 1.014c-.233.443-.349.98-.349 1.611Zm18.076-5.421v2.387h-7.525v-2.387h7.525Zm-5.667-3.136h3.085v12.29c0 .415.063.733.188.954.13.216.301.364.511.444.21.079.443.119.699.119.193 0 .369-.014.528-.043.165-.028.29-.054.375-.076l.52 2.412a7.146 7.146 0 0 1-.707.187 5.784 5.784 0 0 1-1.108.119c-.773.023-1.469-.093-2.088-.349a3.248 3.248 0 0 1-1.475-1.21c-.358-.546-.534-1.228-.528-2.046v-12.801Zm13.903 16.483c-1.313 0-2.447-.273-3.401-.818a5.54 5.54 0 0 1-2.19-2.335c-.512-1.012-.767-2.202-.767-3.571 0-1.347.255-2.529.767-3.546.517-1.023 1.238-1.818 2.164-2.386.927-.574 2.015-.861 3.265-.861a6.62 6.62 0 0 1 2.284.392 5.166 5.166 0 0 1 1.909 1.193c.557.54.994 1.228 1.312 2.063.318.829.478 1.818.478 2.966v.946h-10.731v-2.08h7.773c-.006-.591-.133-1.116-.383-1.577-.25-.465-.6-.832-1.049-1.099-.443-.267-.96-.401-1.551-.401-.63 0-1.184.154-1.662.461a3.173 3.173 0 0 0-1.116 1.193 3.427 3.427 0 0 0-.401 1.611v1.815c0 .761.139 1.415.418 1.96.278.54.667.955 1.167 1.245.5.284 1.086.426 1.756.426.449 0 .855-.063 1.219-.188.364-.131.679-.321.946-.571.267-.25.469-.56.605-.929l2.881.324a4.497 4.497 0 0 1-1.04 1.994c-.506.563-1.153 1-1.943 1.313-.79.307-1.693.46-2.71.46Zm11.516-7.926v7.67h-3.085v-13.091h2.948v2.225h.154a3.74 3.74 0 0 1 1.44-1.747c.665-.432 1.486-.648 2.463-.648.904 0 1.691.193 2.361.58.676.386 1.199.946 1.568 1.679.375.733.56 1.622.554 2.667v8.335h-3.085v-7.858c0-.875-.227-1.559-.682-2.054-.449-.494-1.071-.741-1.866-.741-.54 0-1.02.119-1.441.358a2.49 2.49 0 0 0-.98 1.014c-.233.443-.349.98-.349 1.611Zm18.077-5.421v2.387h-7.526v-2.387h7.526Zm-5.668-3.136h3.085v12.29c0 .415.063.733.188.954.13.216.301.364.511.444.21.079.443.119.699.119.193 0 .369-.014.528-.043.165-.028.29-.054.375-.076l.52 2.412a7.07 7.07 0 0 1-.707.187 5.784 5.784 0 0 1-1.108.119c-.773.023-1.469-.093-2.088-.349a3.248 3.248 0 0 1-1.475-1.21c-.358-.546-.534-1.228-.528-2.046v-12.801Z"/><defs><linearGradient id="a" x1="264.415" x2="245.605" y1="0" y2="552.147" gradientUnits="userSpaceOnUse"><stop stop-color="#2A71F7"/><stop offset="1" stop-color="#092863"/></linearGradient></defs></svg>