<svg xmlns="http://www.w3.org/2000/svg" width="552" height="554" fill="none"><rect width="549.003" height="550.864" x="1.215" y="1.749" fill="#070B15" stroke="url(#a)" stroke-width="1.861" rx="28.846"/><rect width="430" height="66" x="60.284" y="412.819" fill="#fff" fill-opacity=".03" rx="10"/><path fill="#B8B8B8" fill-rule="evenodd" d="M92.284 461.819c8.837 0 16-7.164 16-16 0-8.837-7.163-16-16-16-8.836 0-16 7.163-16 16 0 8.836 7.164 16 16 16Zm2.462-16a2.461 2.461 0 1 1-4.923 0 2.461 2.461 0 0 1 4.923 0Zm-9.436 0a6.975 6.975 0 1 1 13.95 0 6.975 6.975 0 0 1-13.95 0Zm6.974-9.436a9.436 9.436 0 1 0 0 18.872 9.436 9.436 0 0 0 0-18.872Z" clip-rule="evenodd"/><path fill="#B8B8B8" d="M133.935 441.958a5.293 5.293 0 0 0-.686-1.442 4.441 4.441 0 0 0-1.034-1.104 4.205 4.205 0 0 0-1.373-.686 5.724 5.724 0 0 0-1.69-.238c-1.094 0-2.068.275-2.923.825-.855.55-1.528 1.359-2.019 2.426-.484 1.061-.726 2.353-.726 3.878 0 1.538.242 2.84.726 3.908.484 1.067 1.157 1.879 2.019 2.436.862.55 1.862.825 3.003.825 1.034 0 1.929-.199 2.684-.597a4.197 4.197 0 0 0 1.76-1.69c.411-.736.617-1.597.617-2.585l.835.129H129.6v-2.883h8.262v2.446c0 1.743-.371 3.251-1.113 4.524a7.61 7.61 0 0 1-3.063 2.943c-1.299.683-2.791 1.024-4.474 1.024-1.876 0-3.523-.421-4.942-1.263-1.412-.848-2.516-2.051-3.311-3.609-.789-1.564-1.183-3.42-1.183-5.568 0-1.644.232-3.112.696-4.405.47-1.293 1.127-2.39 1.968-3.291a8.377 8.377 0 0 1 2.963-2.068c1.134-.478 2.367-.716 3.699-.716 1.127 0 2.178.165 3.152.497.975.325 1.84.789 2.596 1.392a7.762 7.762 0 0 1 1.879 2.148c.49.828.812 1.743.964 2.744h-3.758Zm7.335 13.861v-15.273h3.49v2.545h.159c.279-.881.756-1.561 1.432-2.038.683-.484 1.462-.726 2.337-.726.199 0 .421.01.666.03.252.013.461.037.627.07v3.311a3.749 3.749 0 0 0-.726-.139 6.6 6.6 0 0 0-.945-.07c-.656 0-1.246.142-1.77.428a3.131 3.131 0 0 0-1.223 1.163c-.298.497-.447 1.07-.447 1.72v8.979h-3.6Zm17.135.298c-1.492 0-2.784-.328-3.878-.984-1.094-.657-1.942-1.575-2.545-2.755-.597-1.18-.895-2.558-.895-4.136 0-1.578.298-2.96.895-4.146.603-1.187 1.451-2.108 2.545-2.764 1.094-.657 2.386-.985 3.878-.985 1.491 0 2.784.328 3.878.985 1.094.656 1.939 1.577 2.535 2.764.603 1.186.905 2.568.905 4.146 0 1.578-.302 2.956-.905 4.136-.596 1.18-1.441 2.098-2.535 2.755-1.094.656-2.387.984-3.878.984Zm.02-2.884c.809 0 1.485-.222 2.028-.666.544-.45.948-1.054 1.213-1.809.272-.756.408-1.598.408-2.526 0-.935-.136-1.78-.408-2.535-.265-.763-.669-1.369-1.213-1.82-.543-.451-1.219-.676-2.028-.676-.829 0-1.518.225-2.068.676-.544.451-.952 1.057-1.223 1.82-.266.755-.398 1.6-.398 2.535 0 .928.132 1.77.398 2.526.271.755.679 1.359 1.223 1.809.55.444 1.239.666 2.068.666Zm13.068 2.586-4.316-15.273h3.669l2.685 10.739h.139l2.745-10.739h3.629l2.744 10.679h.149l2.645-10.679h3.679l-4.325 15.273h-3.749l-2.863-10.321h-.209l-2.864 10.321h-3.758Zm27.908-15.273v2.784h-8.78v-2.784h8.78Zm-6.613-3.659h3.6v14.338c0 .484.073.855.219 1.114.152.252.351.424.596.517.245.092.517.139.816.139.225 0 .43-.017.616-.05.192-.033.338-.063.438-.089l.606 2.814a7.971 7.971 0 0 1-.825.218c-.352.08-.782.126-1.293.14-.901.026-1.713-.11-2.436-.408a3.793 3.793 0 0 1-1.72-1.412c-.418-.636-.623-1.432-.617-2.386v-14.935Zm13.551 9.983v8.949h-3.6v-20.364h3.52v7.686h.179a4.415 4.415 0 0 1 1.66-2.038c.756-.504 1.717-.756 2.884-.756 1.061 0 1.985.222 2.774.666.789.444 1.399 1.094 1.83 1.949.437.855.656 1.899.656 3.132v9.725h-3.6v-9.168c0-1.027-.265-1.826-.795-2.396-.524-.577-1.259-.865-2.207-.865-.637 0-1.207.139-1.711.417a2.927 2.927 0 0 0-1.173 1.184c-.278.517-.417 1.143-.417 1.879Zm24.912 9.257c-.968 0-1.839-.172-2.615-.517a4.257 4.257 0 0 1-1.829-1.551c-.445-.683-.667-1.525-.667-2.526 0-.862.159-1.574.478-2.138a3.694 3.694 0 0 1 1.302-1.352 6.555 6.555 0 0 1 1.86-.765 15.043 15.043 0 0 1 2.157-.388 85.336 85.336 0 0 0 2.178-.249c.557-.079.961-.199 1.213-.358.258-.166.388-.421.388-.765v-.06c0-.749-.222-1.329-.667-1.74-.444-.411-1.083-.617-1.919-.617-.881 0-1.581.193-2.098.577-.51.385-.855.839-1.034 1.362l-3.36-.477c.265-.928.702-1.704 1.312-2.327a5.728 5.728 0 0 1 2.237-1.412c.882-.318 1.856-.477 2.924-.477.735 0 1.468.086 2.197.259a6.18 6.18 0 0 1 1.999.855 4.284 4.284 0 0 1 1.451 1.601c.371.676.557 1.521.557 2.535v10.222h-3.46v-2.098h-.119a4.395 4.395 0 0 1-.925 1.193c-.391.364-.885.659-1.482.885-.59.219-1.282.328-2.078.328Zm.935-2.645c.722 0 1.349-.142 1.879-.427.53-.292.938-.677 1.223-1.154.292-.477.438-.998.438-1.561v-1.8c-.113.093-.305.179-.577.259a8.389 8.389 0 0 1-.895.209c-.331.059-.66.112-.984.159l-.846.119a6.277 6.277 0 0 0-1.441.358c-.425.166-.759.398-1.005.696-.245.292-.367.67-.367 1.134 0 .662.241 1.163.725 1.501.484.338 1.101.507 1.85.507Zm10.748 2.337v-15.273h3.49v2.545h.16c.278-.881.755-1.561 1.431-2.038.683-.484 1.462-.726 2.337-.726.199 0 .421.01.666.03.252.013.461.037.627.07v3.311a3.749 3.749 0 0 0-.726-.139 6.6 6.6 0 0 0-.945-.07c-.656 0-1.246.142-1.77.428a3.131 3.131 0 0 0-1.223 1.163c-.298.497-.447 1.07-.447 1.72v8.979h-3.6Zm17.234.298c-1.531 0-2.853-.318-3.967-.955-1.107-.643-1.959-1.551-2.555-2.724-.597-1.18-.895-2.569-.895-4.166 0-1.571.298-2.95.895-4.137.603-1.193 1.445-2.121 2.525-2.784 1.081-.669 2.35-1.004 3.808-1.004.942 0 1.83.153 2.665.458a6.017 6.017 0 0 1 2.228 1.392c.649.629 1.16 1.431 1.531 2.406.371.968.557 2.121.557 3.46v1.104h-12.519v-2.426h9.068c-.006-.69-.155-1.303-.447-1.84a3.26 3.26 0 0 0-1.223-1.283c-.517-.311-1.12-.467-1.81-.467-.736 0-1.382.179-1.939.537a3.688 3.688 0 0 0-1.302 1.392 4.01 4.01 0 0 0-.468 1.879v2.118c0 .889.163 1.651.488 2.287.324.63.779 1.114 1.362 1.452.583.331 1.266.497 2.048.497.524 0 .998-.073 1.422-.219a3.15 3.15 0 0 0 1.104-.666c.311-.292.547-.653.706-1.084l3.36.378a5.237 5.237 0 0 1-1.213 2.327c-.59.656-1.345 1.167-2.267 1.531-.921.358-1.975.537-3.162.537Zm14.232.01c-.968 0-1.84-.172-2.615-.517a4.266 4.266 0 0 1-1.83-1.551c-.444-.683-.666-1.525-.666-2.526 0-.862.159-1.574.477-2.138a3.69 3.69 0 0 1 1.303-1.352 6.561 6.561 0 0 1 1.859-.765 15.032 15.032 0 0 1 2.158-.388c.895-.093 1.62-.176 2.177-.249.557-.079.961-.199 1.213-.358.259-.166.388-.421.388-.765v-.06c0-.749-.222-1.329-.666-1.74-.444-.411-1.084-.617-1.919-.617-.882 0-1.581.193-2.098.577-.511.385-.855.839-1.034 1.362l-3.361-.477c.265-.928.703-1.704 1.312-2.327a5.724 5.724 0 0 1 2.238-1.412c.881-.318 1.856-.477 2.923-.477.736 0 1.468.086 2.197.259.73.172 1.396.457 1.999.855a4.294 4.294 0 0 1 1.452 1.601c.371.676.557 1.521.557 2.535v10.222h-3.461v-2.098h-.119a4.395 4.395 0 0 1-.925 1.193c-.391.364-.885.659-1.481.885-.59.219-1.283.328-2.078.328Zm.934-2.645c.723 0 1.349-.142 1.88-.427.53-.292.937-.677 1.223-1.154.291-.477.437-.998.437-1.561v-1.8c-.113.093-.305.179-.577.259a8.331 8.331 0 0 1-.895.209c-.331.059-.659.112-.984.159l-.845.119a6.273 6.273 0 0 0-1.442.358c-.424.166-.759.398-1.004.696-.245.292-.368.67-.368 1.134 0 .662.242 1.163.726 1.501.484.338 1.1.507 1.849.507Zm22.82-8.899-3.281.358a2.642 2.642 0 0 0-.488-.935 2.424 2.424 0 0 0-.914-.706c-.385-.179-.855-.268-1.412-.268-.749 0-1.379.162-1.89.487-.503.325-.752.746-.745 1.263-.007.444.156.805.487 1.084.338.278.895.507 1.67.686l2.606.556c1.445.312 2.518.806 3.221 1.482.709.676 1.067 1.561 1.074 2.655-.007.961-.288 1.81-.845 2.545-.55.729-1.316 1.3-2.297 1.711-.981.411-2.108.616-3.381.616-1.869 0-3.374-.391-4.514-1.173-1.14-.789-1.82-1.886-2.038-3.291l3.51-.339c.159.69.497 1.21 1.014 1.562.517.351 1.19.527 2.018.527.855 0 1.542-.176 2.059-.527.523-.352.785-.786.785-1.303 0-.438-.169-.799-.507-1.084-.331-.285-.849-.504-1.551-.656l-2.605-.547c-1.465-.305-2.549-.819-3.252-1.541-.702-.729-1.05-1.651-1.044-2.764-.006-.942.249-1.757.766-2.446.524-.696 1.249-1.233 2.177-1.611.935-.385 2.012-.577 3.232-.577 1.79 0 3.198.381 4.226 1.144 1.034.762 1.674 1.793 1.919 3.092Z"/><g clip-path="url(#b)"><path fill="url(#c)" d="M90.284 206.819c16.569 0 30-13.432 30-30 0-16.569-13.431-30-30-30-16.568 0-30 13.431-30 30 0 16.568 13.432 30 30 30Z"/><path fill="url(#d)" d="M78.591 173.818h23.387a3.25 3.25 0 0 1 3.249 3.248v.057c0 8.215-6.67 14.884-14.884 14.884h-.058c-8.246 0-14.941-6.695-14.941-14.941a3.25 3.25 0 0 1 3.248-3.248h-.001Z"/><path fill="url(#e)" d="M99.519 188.843a14.823 14.823 0 0 1-9.177 3.164h-.057c-3.48 0-6.68-1.188-9.22-3.182a11.436 11.436 0 0 1 9.22-4.658c3.78 0 7.15 1.84 9.234 4.676Z"/><path fill="url(#f)" d="M103.601 174.253v.864a3.898 3.898 0 0 1-3.897 3.898h-18.84a3.898 3.898 0 0 1-3.897-3.898v-.864a3.237 3.237 0 0 1 1.624-.434h23.387c.591 0 1.146.158 1.624.434h-.001Z"/><path fill="url(#g)" d="M95.43 166.641a2.054 2.054 0 0 1-1.743-3.134c.308-.495 3.115-4.844 7.11-4.844s6.801 4.349 7.108 4.844a2.05 2.05 0 0 1-3.484 2.164c-.595-.95-2.264-2.908-3.623-2.908-1.36 0-3.028 1.958-3.624 2.908a2.048 2.048 0 0 1-1.742.97h-.001Z"/><path fill="url(#h)" d="M74.405 166.641a2.054 2.054 0 0 1-1.743-3.134c.308-.495 3.115-4.844 7.11-4.844 3.994 0 6.8 4.349 7.108 4.844a2.05 2.05 0 1 1-3.487 2.159c-.592-.943-2.261-2.902-3.62-2.902-1.36 0-3.029 1.959-3.624 2.908a2.046 2.046 0 0 1-1.743.97v-.001Z"/></g><path fill="#B8B8B8" d="M63.11 271.819h-2.329l5.235-14.546h2.535l5.235 14.546h-2.33l-4.112-11.904h-.114l-4.12 11.904Zm.392-5.696h7.556v1.846h-7.557v-1.846Zm20.179-5.213-3.956 10.909h-2.273L73.49 260.91h2.28l2.763 8.395h.113l2.756-8.395h2.28Zm6.326 11.129c-1.075 0-2-.23-2.777-.689a4.673 4.673 0 0 1-1.79-1.953c-.416-.843-.625-1.83-.625-2.962 0-1.117.209-2.102.625-2.954.422-.853 1.009-1.518 1.762-1.996.757-.478 1.643-.717 2.656-.717.616 0 1.212.101 1.79.305a4.335 4.335 0 0 1 1.555.959c.46.435.822 1.001 1.087 1.697.265.692.398 1.532.398 2.522v.752h-8.672v-1.591h6.59c0-.558-.113-1.053-.34-1.484a2.576 2.576 0 0 0-.96-1.03c-.406-.251-.885-.376-1.434-.376-.596 0-1.117.147-1.562.44-.44.289-.782.668-1.023 1.137a3.28 3.28 0 0 0-.355 1.512v1.243c0 .729.128 1.35.383 1.861.26.511.623.902 1.087 1.172.464.265 1.006.398 1.626.398.403 0 .77-.057 1.101-.171.332-.118.618-.293.86-.525.241-.232.426-.519.554-.86l2.01.362a3.64 3.64 0 0 1-.867 1.556c-.412.44-.93.783-1.555 1.03-.62.241-1.328.362-2.124.362Zm7.037-.22V260.91h2.052v1.733h.114a2.633 2.633 0 0 1 1.051-1.385 3.01 3.01 0 0 1 1.719-.512c.132 0 .289.005.469.014.184.01.329.022.433.036v2.031a4.096 4.096 0 0 0-.455-.078 4.351 4.351 0 0 0-.653-.05 2.77 2.77 0 0 0-1.342.32c-.389.208-.697.5-.924.874a2.36 2.36 0 0 0-.34 1.264v6.662h-2.124Zm10.753.241c-.692 0-1.317-.128-1.875-.383a3.163 3.163 0 0 1-1.329-1.13c-.321-.492-.482-1.096-.482-1.811 0-.615.118-1.122.355-1.52a2.62 2.62 0 0 1 .958-.944 5.042 5.042 0 0 1 1.35-.526 13.6 13.6 0 0 1 1.52-.27l1.591-.184c.407-.052.703-.135.887-.249.185-.113.277-.298.277-.554v-.05c0-.62-.175-1.1-.525-1.441-.346-.341-.862-.512-1.548-.512-.715 0-1.279.159-1.691.476-.407.313-.689.661-.845 1.044l-1.996-.454c.237-.663.583-1.198 1.037-1.605a4.2 4.2 0 0 1 1.584-.895 6.166 6.166 0 0 1 1.882-.284c.436 0 .897.052 1.385.156.493.099.952.284 1.378.554.431.27.784.656 1.058 1.157.275.498.412 1.144.412 1.939v7.245h-2.074v-1.492h-.085a3.001 3.001 0 0 1-.618.81 3.272 3.272 0 0 1-1.058.66c-.431.176-.947.263-1.548.263Zm.461-1.704c.587 0 1.089-.116 1.506-.348.421-.232.741-.535.959-.909.222-.379.334-.784.334-1.215v-1.406c-.076.076-.223.147-.441.213a6.923 6.923 0 0 1-.731.163c-.275.043-.542.083-.803.121l-.653.085c-.412.052-.789.14-1.13.263a1.933 1.933 0 0 0-.809.533c-.199.227-.299.53-.299.909 0 .525.195.923.583 1.193.388.265.883.398 1.484.398Zm12.324 5.781c-.866 0-1.612-.114-2.237-.341-.62-.227-1.127-.528-1.52-.902a3.784 3.784 0 0 1-.88-1.229l1.825-.753c.128.209.298.429.511.661.218.237.512.438.881.604.374.165.855.248 1.442.248.805 0 1.47-.196 1.996-.589.525-.388.788-1.009.788-1.861v-2.145h-.135c-.128.232-.313.49-.554.774-.237.284-.563.531-.98.739-.417.208-.959.312-1.627.312-.861 0-1.638-.201-2.329-.603-.687-.408-1.231-1.006-1.634-1.797-.397-.796-.596-1.773-.596-2.933s.196-2.155.589-2.983c.398-.829.942-1.463 1.634-1.904.691-.445 1.475-.667 2.351-.667.677 0 1.224.113 1.64.34.417.223.741.483.973.782.237.298.419.561.547.788h.156v-1.768h2.081v11.15c0 .938-.217 1.707-.653 2.308-.436.602-1.025 1.047-1.769 1.336-.738.288-1.571.433-2.5.433Zm-.021-6.243c.611 0 1.127-.142 1.548-.426.427-.289.749-.701.966-1.236.223-.54.334-1.186.334-1.939 0-.734-.109-1.38-.327-1.939-.217-.558-.537-.994-.958-1.307-.422-.317-.943-.475-1.563-.475-.639 0-1.172.165-1.598.497-.426.326-.748.772-.966 1.335-.213.563-.319 1.193-.319 1.889 0 .715.109 1.342.326 1.882.218.54.54.961.966 1.264.431.303.961.455 1.591.455Zm12.493 2.145c-1.075 0-2-.23-2.777-.689a4.676 4.676 0 0 1-1.79-1.953c-.416-.843-.625-1.83-.625-2.962 0-1.117.209-2.102.625-2.954.422-.853 1.009-1.518 1.762-1.996.757-.478 1.643-.717 2.656-.717a5.34 5.34 0 0 1 1.79.305 4.337 4.337 0 0 1 1.555.959c.459.435.822 1.001 1.087 1.697.265.692.397 1.532.397 2.522v.752h-8.671v-1.591h6.59c0-.558-.113-1.053-.34-1.484a2.58 2.58 0 0 0-.959-1.03c-.407-.251-.886-.376-1.435-.376-.596 0-1.117.147-1.562.44a2.948 2.948 0 0 0-1.023 1.137 3.275 3.275 0 0 0-.355 1.512v1.243c0 .729.128 1.35.383 1.861.261.511.623.902 1.087 1.172.464.265 1.006.398 1.626.398.403 0 .77-.057 1.101-.171.332-.118.618-.293.86-.525.241-.232.426-.519.554-.86l2.01.362a3.638 3.638 0 0 1-.867 1.556c-.412.44-.93.783-1.555 1.03-.621.241-1.328.362-2.124.362Zm20.504-8.466-1.924.341a2.292 2.292 0 0 0-.384-.703 1.885 1.885 0 0 0-.696-.547c-.293-.142-.66-.213-1.101-.213-.601 0-1.103.135-1.505.405-.403.265-.604.608-.604 1.029 0 .365.135.659.405.881.27.223.705.405 1.306.547l1.733.398c1.004.232 1.752.589 2.245 1.072.492.483.738 1.111.738 1.882 0 .654-.189 1.236-.568 1.747-.374.507-.897.905-1.569 1.194-.668.288-1.442.433-2.323.433-1.221 0-2.218-.261-2.99-.781-.772-.526-1.245-1.272-1.42-2.238l2.052-.312c.128.535.391.94.789 1.214.397.27.916.405 1.555.405.696 0 1.252-.144 1.669-.433.417-.294.625-.651.625-1.072 0-.341-.128-.628-.384-.86-.25-.232-.636-.407-1.157-.525l-1.847-.405c-1.018-.232-1.771-.602-2.258-1.108-.483-.507-.725-1.148-.725-1.925 0-.644.18-1.207.54-1.69.36-.483.857-.86 1.492-1.129.634-.275 1.361-.412 2.18-.412 1.179 0 2.107.255 2.784.767.677.506 1.125 1.186 1.342 2.038Zm7.25 8.466c-1.075 0-2.001-.23-2.777-.689a4.676 4.676 0 0 1-1.79-1.953c-.416-.843-.625-1.83-.625-2.962 0-1.117.209-2.102.625-2.954.422-.853 1.009-1.518 1.762-1.996.757-.478 1.643-.717 2.656-.717a5.34 5.34 0 0 1 1.79.305 4.337 4.337 0 0 1 1.555.959c.459.435.821 1.001 1.087 1.697.265.692.397 1.532.397 2.522v.752h-8.672v-1.591h6.591c0-.558-.113-1.053-.341-1.484a2.572 2.572 0 0 0-.958-1.03c-.408-.251-.886-.376-1.435-.376-.597 0-1.117.147-1.562.44a2.948 2.948 0 0 0-1.023 1.137 3.275 3.275 0 0 0-.355 1.512v1.243c0 .729.128 1.35.383 1.861.261.511.623.902 1.087 1.172.464.265 1.006.398 1.626.398.403 0 .77-.057 1.101-.171.332-.118.618-.293.86-.525.241-.232.426-.519.553-.86l2.01.362a3.636 3.636 0 0 1-.866 1.556c-.412.44-.93.783-1.555 1.03-.621.241-1.329.362-2.124.362Zm9.16-6.698v6.478h-2.123V260.91h2.038v1.775h.135a3.126 3.126 0 0 1 1.179-1.392c.54-.35 1.219-.525 2.038-.525.744 0 1.395.156 1.953.468.559.308.992.767 1.3 1.378.308.611.462 1.366.462 2.266v6.939h-2.124v-6.684c0-.79-.206-1.408-.618-1.853-.412-.45-.978-.675-1.697-.675-.493 0-.931.107-1.314.32-.379.213-.68.525-.902.937-.218.407-.327.9-.327 1.477Zm14.922-4.431v1.704h-5.959v-1.704h5.959Zm-4.361-2.614h2.124v10.32c0 .412.061.722.184.93a.967.967 0 0 0 .476.419c.199.071.415.107.647.107.17 0 .319-.012.447-.036a33.9 33.9 0 0 0 .298-.057l.384 1.754a3.531 3.531 0 0 1-.526.143 4.18 4.18 0 0 1-.852.085 3.73 3.73 0 0 1-1.562-.299 2.678 2.678 0 0 1-1.172-.965c-.299-.436-.448-.983-.448-1.641v-10.76Zm6.71 13.523V260.91h2.124v10.909h-2.124Zm1.073-12.593a1.35 1.35 0 0 1-.952-.369 1.199 1.199 0 0 1-.391-.895c0-.35.13-.648.391-.895.265-.251.582-.376.952-.376.369 0 .684.125.944.376.265.247.398.545.398.895 0 .346-.133.644-.398.895-.26.246-.575.369-.944.369Zm3.908 12.593V260.91h2.038v1.775h.135a2.817 2.817 0 0 1 1.115-1.406c.516-.341 1.134-.511 1.854-.511.729 0 1.34.17 1.832.511.497.341.864.81 1.101 1.406h.113a3.078 3.078 0 0 1 1.243-1.392c.569-.35 1.246-.525 2.032-.525.989 0 1.796.31 2.421.93.63.62.945 1.555.945 2.805v7.316h-2.123v-7.117c0-.738-.202-1.273-.604-1.605-.403-.331-.883-.497-1.442-.497-.691 0-1.229.213-1.612.639-.384.422-.575.964-.575 1.627v6.953h-2.117v-7.252c0-.592-.185-1.067-.554-1.427-.369-.36-.85-.54-1.442-.54-.402 0-.774.107-1.115.32a2.339 2.339 0 0 0-.816.873c-.204.374-.306.807-.306 1.3v6.726h-2.123Zm22.377.22c-1.075 0-2-.23-2.777-.689a4.676 4.676 0 0 1-1.79-1.953c-.416-.843-.625-1.83-.625-2.962 0-1.117.209-2.102.625-2.954.422-.853 1.009-1.518 1.762-1.996.757-.478 1.643-.717 2.656-.717a5.34 5.34 0 0 1 1.79.305 4.337 4.337 0 0 1 1.555.959c.459.435.822 1.001 1.087 1.697.265.692.397 1.532.397 2.522v.752h-8.671v-1.591h6.59c0-.558-.113-1.053-.34-1.484a2.58 2.58 0 0 0-.959-1.03c-.407-.251-.886-.376-1.435-.376-.596 0-1.117.147-1.562.44a2.948 2.948 0 0 0-1.023 1.137 3.275 3.275 0 0 0-.355 1.512v1.243c0 .729.128 1.35.383 1.861.261.511.623.902 1.087 1.172.464.265 1.006.398 1.626.398.403 0 .77-.057 1.101-.171.332-.118.618-.293.86-.525.241-.232.426-.519.554-.86l2.009.362a3.626 3.626 0 0 1-.866 1.556c-.412.44-.93.783-1.555 1.03-.621.241-1.329.362-2.124.362Zm9.16-6.698v6.478h-2.123V260.91h2.038v1.775h.135a3.126 3.126 0 0 1 1.179-1.392c.54-.35 1.219-.525 2.038-.525.744 0 1.395.156 1.953.468.559.308.992.767 1.3 1.378.308.611.462 1.366.462 2.266v6.939h-2.124v-6.684c0-.79-.206-1.408-.618-1.853-.412-.45-.977-.675-1.697-.675-.493 0-.931.107-1.314.32-.379.213-.68.525-.902.937-.218.407-.327.9-.327 1.477Zm14.922-4.431v1.704h-5.959v-1.704h5.959Zm-4.361-2.614h2.124v10.32c0 .412.061.722.185.93a.961.961 0 0 0 .475.419c.199.071.415.107.647.107.17 0 .319-.012.447-.036a33.9 33.9 0 0 0 .298-.057l.384 1.754a3.531 3.531 0 0 1-.526.143 4.18 4.18 0 0 1-.852.085 3.733 3.733 0 0 1-1.562-.299 2.678 2.678 0 0 1-1.172-.965c-.299-.436-.448-.983-.448-1.641v-10.76Z"/><path fill="#fff" d="M139.161 189.148v-7.265l18.217-28.701h6.264v10.057h-3.707l-11.485 18.175v.341h25.888v7.393h-35.177Zm20.944 7.671v-9.887l.171-3.217v-30.533h8.65v43.637h-8.821Zm24.95.554c-1.406 0-2.613-.497-3.622-1.492-.994-1.008-1.491-2.216-1.491-3.622 0-1.392.497-2.585 1.491-3.579 1.009-.995 2.216-1.492 3.622-1.492 1.364 0 2.557.497 3.58 1.492 1.023.994 1.534 2.187 1.534 3.579 0 .938-.241 1.797-.724 2.578a5.516 5.516 0 0 1-1.854 1.854 4.887 4.887 0 0 1-2.536.682Zm28.067.042c-3.011 0-5.696-.554-8.054-1.662-2.344-1.108-4.205-2.635-5.582-4.581-1.378-1.946-2.096-4.176-2.152-6.69h8.948c.1 1.69.81 3.061 2.131 4.112 1.321 1.051 2.891 1.577 4.709 1.577 1.449 0 2.727-.32 3.835-.959a6.857 6.857 0 0 0 2.621-2.706c.639-1.165.959-2.5.959-4.005 0-1.535-.327-2.884-.98-4.049a6.925 6.925 0 0 0-2.664-2.727c-1.136-.653-2.436-.987-3.899-1.001a9.25 9.25 0 0 0-3.729.788c-1.193.525-2.123 1.243-2.791 2.152l-8.203-1.47 2.067-23.012h26.676v7.543h-19.07l-1.129 10.93h.256c.767-1.079 1.924-1.974 3.473-2.684 1.548-.711 3.281-1.066 5.199-1.066 2.627 0 4.971.618 7.031 1.854 2.06 1.236 3.686 2.933 4.879 5.092 1.193 2.145 1.783 4.617 1.769 7.415.014 2.941-.668 5.554-2.046 7.841-1.363 2.273-3.274 4.063-5.731 5.369-2.444 1.293-5.284 1.939-8.523 1.939Z"/><path stroke="#0F8DEA" stroke-width="4" d="m270.284 167.819 58 37 63-56 90 50"/><circle cx="269.284" cy="167.819" r="5" fill="#0F8DEA"/><circle cx="327.284" cy="203.819" r="5" fill="#0F8DEA"/><circle cx="391.284" cy="149.819" r="5" fill="#0F8DEA"/><circle cx="479.284" cy="197.819" r="5" fill="#0F8DEA"/><path fill="#fff" d="M64.247 83.819h-3.375l6.145-17.455h3.904l6.153 17.455h-3.375l-4.662-13.875h-.136l-4.654 13.875Zm.111-6.844h9.205v2.54h-9.205v-2.54Zm15.015 6.844V66.364h3.085v6.529h.128c.16-.319.383-.657.673-1.015.29-.363.682-.673 1.177-.929.494-.261 1.124-.392 1.891-.392 1.012 0 1.924.259 2.736.776.819.511 1.466 1.27 1.944 2.276.482 1 .724 2.227.724 3.681 0 1.438-.236 2.66-.707 3.665-.472 1.006-1.114 1.773-1.927 2.301-.812.529-1.733.793-2.761.793-.75 0-1.372-.125-1.867-.375-.494-.25-.891-.551-1.193-.904a5.846 5.846 0 0 1-.69-1.014h-.179v2.063h-3.034Zm3.025-6.546c0 .847.12 1.588.359 2.225.244.636.593 1.133 1.048 1.491.46.352 1.017.529 1.67.529.682 0 1.253-.182 1.713-.546.46-.37.807-.872 1.04-1.508.239-.642.358-1.373.358-2.19 0-.813-.117-1.535-.35-2.165-.232-.631-.579-1.125-1.04-1.483-.46-.358-1.033-.537-1.72-.537-.66 0-1.22.173-1.68.52-.46.346-.81.832-1.048 1.457-.233.625-.35 1.36-.35 2.207Zm17.666 6.801c-1.278 0-2.386-.28-3.324-.843-.937-.563-1.665-1.35-2.182-2.361-.511-1.011-.767-2.193-.767-3.546 0-1.352.256-2.537.767-3.554.517-1.017 1.245-1.806 2.182-2.369.938-.562 2.046-.844 3.324-.844s2.386.282 3.324.844c.937.563 1.662 1.352 2.173 2.37.517 1.016.776 2.201.776 3.553 0 1.353-.259 2.535-.776 3.546a5.674 5.674 0 0 1-2.173 2.36c-.938.563-2.046.844-3.324.844Zm.017-2.471c.693 0 1.273-.19 1.739-.571.466-.387.812-.904 1.039-1.551.233-.648.35-1.37.35-2.165 0-.801-.117-1.526-.35-2.173-.227-.654-.573-1.174-1.039-1.56-.466-.386-1.046-.58-1.739-.58-.71 0-1.301.194-1.773.58-.466.386-.815.906-1.048 1.56-.227.647-.34 1.372-.34 2.173 0 .795.113 1.517.34 2.165.233.647.582 1.164 1.048 1.55.472.381 1.063.572 1.773.572Zm17.218-3.29v-7.585h3.085v13.09h-2.991v-2.326h-.137a3.933 3.933 0 0 1-1.457 1.798c-.67.466-1.497.7-2.48.7-.858 0-1.616-.191-2.276-.572-.653-.386-1.164-.946-1.534-1.679-.369-.739-.554-1.63-.554-2.676v-8.335h3.086v7.858c0 .83.227 1.488.681 1.977.455.489 1.052.733 1.79.733.455 0 .895-.11 1.321-.332a2.682 2.682 0 0 0 1.048-.989c.279-.443.418-.997.418-1.662Zm12.795-7.585v2.386h-7.526v-2.386h7.526Zm-5.668-3.136h3.085v12.29c0 .414.063.732.188.954.131.216.301.363.511.443.211.08.443.12.699.12.193 0 .369-.015.529-.043.164-.029.289-.054.375-.077l.519 2.412c-.164.057-.4.12-.707.187-.301.069-.67.108-1.108.12-.773.022-1.469-.094-2.088-.35a3.245 3.245 0 0 1-1.474-1.21c-.358-.545-.534-1.227-.529-2.045V67.59Zm16.579 16.227h-3.375l6.145-17.455h3.903l6.154 17.455h-3.375l-4.662-13.875h-.137l-4.653 13.875Zm.111-6.844h9.204v2.54h-9.204v-2.54Zm23.222 1.338v-7.585h3.085v13.09h-2.991v-2.326h-.136a3.942 3.942 0 0 1-1.458 1.798c-.67.466-1.497.7-2.48.7-.858 0-1.616-.191-2.276-.572-.653-.386-1.164-.946-1.534-1.679-.369-.739-.554-1.63-.554-2.676v-8.335h3.086v7.858c0 .83.227 1.488.681 1.977.455.489 1.052.733 1.79.733.455 0 .895-.11 1.321-.332a2.691 2.691 0 0 0 1.049-.989c.278-.443.417-.997.417-1.662Zm12.795-7.585v2.386h-7.526v-2.386h7.526Zm-5.668-3.136h3.086v12.29c0 .414.062.732.187.954.131.216.301.363.511.443.211.08.444.12.699.12.193 0 .37-.015.529-.043.164-.029.289-.054.375-.077l.52 2.412c-.165.057-.401.12-.708.187-.301.069-.67.108-1.108.12-.773.022-1.469-.094-2.088-.35a3.245 3.245 0 0 1-1.474-1.21c-.358-.545-.534-1.227-.529-2.045V67.59Zm13.818 16.482c-1.279 0-2.387-.28-3.324-.843-.938-.563-1.665-1.35-2.182-2.361-.511-1.011-.767-2.193-.767-3.546 0-1.352.256-2.537.767-3.554.517-1.017 1.244-1.806 2.182-2.369.937-.562 2.045-.844 3.324-.844 1.278 0 2.386.282 3.324.844.937.563 1.662 1.352 2.173 2.37.517 1.016.775 2.201.775 3.553 0 1.353-.258 2.535-.775 3.546a5.674 5.674 0 0 1-2.173 2.36c-.938.563-2.046.844-3.324.844Zm.017-2.471c.693 0 1.273-.19 1.738-.571.466-.387.813-.904 1.04-1.551.233-.648.35-1.37.35-2.165 0-.801-.117-1.526-.35-2.173-.227-.654-.574-1.174-1.04-1.56-.465-.386-1.045-.58-1.738-.58-.71 0-1.301.194-1.773.58-.466.386-.815.906-1.048 1.56-.227.647-.341 1.372-.341 2.173 0 .795.114 1.517.341 2.165.233.647.582 1.164 1.048 1.55.472.381 1.063.572 1.773.572Zm10.432 2.216h-3.375l6.145-17.455h3.903l6.153 17.455h-3.375l-4.662-13.875h-.136l-4.653 13.875Zm.11-6.844h9.205v2.54h-9.205v-2.54Zm18.177-10.61v17.454h-3.162V66.364h3.162Z"/><rect width="430" height="66" x="60.284" y="318.819" fill="#fff" fill-opacity=".03" rx="10"/><path fill="#B8B8B8" fill-rule="evenodd" d="M108.284 351.819c0 8.836-7.163 16-16 16-8.836 0-16-7.164-16-16 0-8.837 7.164-16 16-16 8.837 0 16 7.163 16 16Zm-17.64-4.923a2.461 2.461 0 1 1-4.924-.001 2.461 2.461 0 0 1 4.923.001Zm8.204 0a2.461 2.461 0 1 1-4.923 0 2.461 2.461 0 0 1 4.923 0Zm-12.958 6.891a1.232 1.232 0 0 0-2.256.986 9.438 9.438 0 0 0 8.65 5.661 9.437 9.437 0 0 0 8.65-5.661 1.231 1.231 0 0 0-2.255-.986 6.977 6.977 0 0 1-12.79 0Z" clip-rule="evenodd"/><path fill="#B8B8B8" d="M133.935 347.958a5.293 5.293 0 0 0-.686-1.442 4.441 4.441 0 0 0-1.034-1.104 4.205 4.205 0 0 0-1.373-.686 5.724 5.724 0 0 0-1.69-.238c-1.094 0-2.068.275-2.923.825-.855.55-1.528 1.359-2.019 2.426-.484 1.061-.726 2.353-.726 3.878 0 1.538.242 2.84.726 3.908.484 1.067 1.157 1.879 2.019 2.436.862.55 1.862.825 3.003.825 1.034 0 1.929-.199 2.684-.597a4.197 4.197 0 0 0 1.76-1.69c.411-.736.617-1.597.617-2.585l.835.129H129.6v-2.883h8.262v2.446c0 1.743-.371 3.251-1.113 4.524a7.61 7.61 0 0 1-3.063 2.943c-1.299.683-2.791 1.024-4.474 1.024-1.876 0-3.523-.421-4.942-1.263-1.412-.848-2.516-2.051-3.311-3.609-.789-1.564-1.183-3.42-1.183-5.568 0-1.644.232-3.112.696-4.405.47-1.293 1.127-2.39 1.968-3.291a8.377 8.377 0 0 1 2.963-2.068c1.134-.478 2.367-.716 3.699-.716 1.127 0 2.178.165 3.152.497.975.325 1.84.789 2.596 1.392a7.762 7.762 0 0 1 1.879 2.148c.49.828.812 1.743.964 2.744h-3.758Zm13.997 14.159c-1.491 0-2.784-.328-3.878-.984-1.093-.657-1.942-1.575-2.545-2.755-.597-1.18-.895-2.558-.895-4.136 0-1.578.298-2.96.895-4.146.603-1.187 1.452-2.108 2.545-2.764 1.094-.657 2.387-.985 3.878-.985 1.492 0 2.784.328 3.878.985 1.094.656 1.939 1.577 2.536 2.764.603 1.186.904 2.568.904 4.146 0 1.578-.301 2.956-.904 4.136-.597 1.18-1.442 2.098-2.536 2.755-1.094.656-2.386.984-3.878.984Zm.02-2.884c.809 0 1.485-.222 2.029-.666.543-.45.947-1.054 1.213-1.809.271-.756.407-1.598.407-2.526 0-.935-.136-1.78-.407-2.535-.266-.763-.67-1.369-1.213-1.82-.544-.451-1.22-.676-2.029-.676-.828 0-1.518.225-2.068.676-.544.451-.951 1.057-1.223 1.82-.265.755-.398 1.6-.398 2.535 0 .928.133 1.77.398 2.526.272.755.679 1.359 1.223 1.809.55.444 1.24.666 2.068.666Zm17.015 2.884c-1.491 0-2.784-.328-3.877-.984-1.094-.657-1.943-1.575-2.546-2.755-.596-1.18-.895-2.558-.895-4.136 0-1.578.299-2.96.895-4.146.603-1.187 1.452-2.108 2.546-2.764 1.093-.657 2.386-.985 3.877-.985 1.492 0 2.785.328 3.878.985 1.094.656 1.939 1.577 2.536 2.764.603 1.186.905 2.568.905 4.146 0 1.578-.302 2.956-.905 4.136-.597 1.18-1.442 2.098-2.536 2.755-1.093.656-2.386.984-3.878.984Zm.02-2.884c.809 0 1.485-.222 2.029-.666.543-.45.948-1.054 1.213-1.809.272-.756.407-1.598.407-2.526 0-.935-.135-1.78-.407-2.535-.265-.763-.67-1.369-1.213-1.82-.544-.451-1.22-.676-2.029-.676-.828 0-1.518.225-2.068.676-.543.451-.951 1.057-1.223 1.82-.265.755-.398 1.6-.398 2.535 0 .928.133 1.77.398 2.526.272.755.68 1.359 1.223 1.809.55.444 1.24.666 2.068.666Zm16.021 2.854c-1.2 0-2.273-.308-3.221-.925-.948-.616-1.697-1.511-2.247-2.684-.551-1.173-.826-2.599-.826-4.276 0-1.697.279-3.129.835-4.295.564-1.174 1.323-2.058 2.277-2.655.955-.603 2.019-.905 3.192-.905.895 0 1.631.153 2.208.458.576.298 1.034.659 1.372 1.083.338.418.6.812.785 1.184h.149v-7.617h3.61v20.364h-3.54v-2.407h-.219a6.125 6.125 0 0 1-.805 1.184c-.351.411-.815.762-1.392 1.054-.577.291-1.303.437-2.178.437Zm1.005-2.953c.762 0 1.411-.205 1.948-.616.537-.418.945-.998 1.223-1.74.279-.743.418-1.608.418-2.596 0-.987-.139-1.846-.418-2.575-.271-.729-.676-1.296-1.213-1.7-.53-.405-1.183-.607-1.958-.607-.803 0-1.472.209-2.009.627-.537.417-.941.994-1.213 1.73-.272.736-.408 1.577-.408 2.525 0 .955.136 1.807.408 2.556.278.742.686 1.329 1.223 1.76.543.424 1.21.636 1.999.636Zm17.91 8.412v-21h3.539v2.526h.209c.186-.372.448-.766.786-1.184.338-.424.795-.785 1.372-1.083.577-.305 1.312-.458 2.207-.458 1.18 0 2.244.302 3.192.905.955.597 1.71 1.481 2.267 2.655.564 1.166.845 2.598.845 4.295 0 1.677-.275 3.103-.825 4.276-.55 1.173-1.299 2.068-2.247 2.684-.948.617-2.022.925-3.222.925-.875 0-1.601-.146-2.177-.437-.577-.292-1.041-.643-1.392-1.054a6.788 6.788 0 0 1-.806-1.184h-.149v8.134h-3.599Zm3.53-13.364c0 .988.139 1.853.417 2.596.285.742.693 1.322 1.223 1.74.537.411 1.187.616 1.949.616.795 0 1.462-.212 1.999-.636.537-.431.941-1.018 1.213-1.76.278-.749.417-1.601.417-2.556 0-.948-.136-1.789-.407-2.525-.272-.736-.677-1.313-1.213-1.73-.537-.418-1.207-.627-2.009-.627-.769 0-1.422.202-1.959.607-.537.404-.944.971-1.223 1.7-.272.729-.407 1.588-.407 2.575Zm20.731 7.935c-1.531 0-2.854-.318-3.967-.955-1.107-.643-1.959-1.551-2.556-2.724-.596-1.18-.895-2.569-.895-4.166 0-1.571.299-2.95.895-4.137.604-1.193 1.445-2.121 2.526-2.784 1.08-.669 2.35-1.004 3.808-1.004.941 0 1.83.153 2.665.458a6.013 6.013 0 0 1 2.227 1.392c.65.629 1.16 1.431 1.531 2.406.372.968.557 2.121.557 3.46v1.104h-12.518v-2.426h9.068c-.007-.69-.156-1.303-.447-1.84a3.263 3.263 0 0 0-1.224-1.283c-.517-.311-1.12-.467-1.809-.467-.736 0-1.382.179-1.939.537a3.698 3.698 0 0 0-1.303 1.392 4.01 4.01 0 0 0-.467 1.879v2.118c0 .889.162 1.651.487 2.287.325.63.779 1.114 1.362 1.452.584.331 1.267.497 2.049.497.523 0 .997-.073 1.422-.219a3.137 3.137 0 0 0 1.103-.666 2.77 2.77 0 0 0 .706-1.084l3.361.378a5.237 5.237 0 0 1-1.213 2.327c-.59.656-1.346 1.167-2.267 1.531-.921.358-1.975.537-3.162.537Zm9.836-.298v-15.273h3.49v2.545h.159c.279-.881.756-1.561 1.432-2.038.683-.484 1.462-.726 2.337-.726.199 0 .421.01.666.03.252.013.461.037.627.07v3.311a3.749 3.749 0 0 0-.726-.139 6.6 6.6 0 0 0-.945-.07c-.656 0-1.246.142-1.77.428a3.131 3.131 0 0 0-1.223 1.163c-.298.497-.447 1.07-.447 1.72v8.979h-3.6Zm19.658-15.273v2.784h-9.028v-2.784h9.028Zm-6.771 15.273v-16.715c0-1.027.212-1.882.636-2.565a4.027 4.027 0 0 1 1.73-1.531c.723-.338 1.525-.507 2.406-.507.624 0 1.177.049 1.661.149.484.099.842.189 1.074.268l-.716 2.784a6.29 6.29 0 0 0-.577-.139 3.483 3.483 0 0 0-.775-.08c-.67 0-1.144.163-1.422.488-.272.318-.408.775-.408 1.372v16.476h-3.609Zm15.678.298c-1.492 0-2.784-.328-3.878-.984-1.094-.657-1.942-1.575-2.546-2.755-.596-1.18-.895-2.558-.895-4.136 0-1.578.299-2.96.895-4.146.604-1.187 1.452-2.108 2.546-2.764 1.094-.657 2.386-.985 3.878-.985 1.491 0 2.784.328 3.877.985 1.094.656 1.939 1.577 2.536 2.764.603 1.186.905 2.568.905 4.146 0 1.578-.302 2.956-.905 4.136-.597 1.18-1.442 2.098-2.536 2.755-1.093.656-2.386.984-3.877.984Zm.019-2.884c.809 0 1.485-.222 2.029-.666.543-.45.948-1.054 1.213-1.809.272-.756.408-1.598.408-2.526 0-.935-.136-1.78-.408-2.535-.265-.763-.67-1.369-1.213-1.82-.544-.451-1.22-.676-2.029-.676-.828 0-1.517.225-2.068.676-.543.451-.951 1.057-1.223 1.82-.265.755-.397 1.6-.397 2.535 0 .928.132 1.77.397 2.526.272.755.68 1.359 1.223 1.809.551.444 1.24.666 2.068.666Zm10.354 2.586v-15.273h3.49v2.545h.159c.278-.881.756-1.561 1.432-2.038.683-.484 1.461-.726 2.336-.726.199 0 .421.01.667.03.252.013.46.037.626.07v3.311a3.716 3.716 0 0 0-.726-.139 6.586 6.586 0 0 0-.944-.07c-.657 0-1.247.142-1.77.428a3.125 3.125 0 0 0-1.223 1.163c-.299.497-.448 1.07-.448 1.72v8.979h-3.599Zm11.101 0v-15.273h3.441v2.595h.179c.318-.875.845-1.558 1.581-2.048.735-.497 1.614-.746 2.635-.746 1.034 0 1.905.252 2.615.756.716.497 1.219 1.176 1.511 2.038h.159c.338-.848.908-1.524 1.71-2.028.809-.511 1.767-.766 2.874-.766 1.405 0 2.552.444 3.44 1.333.889.888 1.333 2.184 1.333 3.887v10.252h-3.61v-9.695c0-.948-.252-1.641-.755-2.078-.504-.444-1.121-.666-1.85-.666-.868 0-1.548.272-2.038.815-.484.537-.726 1.236-.726 2.098v9.526h-3.53v-9.844c0-.789-.238-1.419-.716-1.889-.47-.471-1.087-.706-1.849-.706-.517 0-.988.132-1.412.398a2.773 2.773 0 0 0-1.014 1.103c-.252.471-.378 1.021-.378 1.651v9.287h-3.6Zm29.524.308c-.968 0-1.839-.172-2.615-.517a4.257 4.257 0 0 1-1.829-1.551c-.445-.683-.667-1.525-.667-2.526 0-.862.159-1.574.478-2.138a3.694 3.694 0 0 1 1.302-1.352 6.555 6.555 0 0 1 1.86-.765 15.043 15.043 0 0 1 2.157-.388 85.336 85.336 0 0 0 2.178-.249c.557-.079.961-.199 1.213-.358.258-.166.388-.421.388-.765v-.06c0-.749-.222-1.329-.667-1.74-.444-.411-1.083-.617-1.919-.617-.881 0-1.581.193-2.098.577-.51.385-.855.839-1.034 1.362l-3.36-.477c.265-.928.702-1.704 1.312-2.327a5.728 5.728 0 0 1 2.237-1.412c.882-.318 1.856-.477 2.924-.477.735 0 1.468.086 2.197.259a6.18 6.18 0 0 1 1.999.855 4.284 4.284 0 0 1 1.451 1.601c.372.676.557 1.521.557 2.535v10.222h-3.46v-2.098h-.119a4.395 4.395 0 0 1-.925 1.193c-.391.364-.885.659-1.482.885-.59.219-1.282.328-2.078.328Zm.935-2.645c.722 0 1.349-.142 1.879-.427.53-.292.938-.677 1.223-1.154.292-.477.438-.998.438-1.561v-1.8c-.113.093-.305.179-.577.259a8.389 8.389 0 0 1-.895.209c-.331.059-.66.112-.984.159l-.846.119a6.277 6.277 0 0 0-1.441.358c-.425.166-.759.398-1.005.696-.245.292-.367.67-.367 1.134 0 .662.242 1.163.725 1.501.484.338 1.101.507 1.85.507Zm14.348-6.612v8.949h-3.6v-15.273h3.441v2.595h.179a4.363 4.363 0 0 1 1.68-2.038c.776-.504 1.734-.756 2.874-.756 1.054 0 1.972.226 2.754.676.789.451 1.399 1.104 1.83 1.959.437.855.652 1.893.646 3.112v9.725h-3.6v-9.168c0-1.021-.265-1.819-.795-2.396-.524-.577-1.25-.865-2.178-.865-.629 0-1.189.139-1.68.417a2.895 2.895 0 0 0-1.143 1.184c-.272.517-.408 1.143-.408 1.879Zm20.125 9.247c-1.525 0-2.834-.335-3.928-1.004-1.087-.67-1.925-1.594-2.515-2.774-.584-1.187-.875-2.552-.875-4.097 0-1.551.298-2.92.895-4.107.596-1.193 1.438-2.121 2.525-2.784 1.094-.669 2.386-1.004 3.878-1.004 1.24 0 2.337.229 3.291.686.961.451 1.727 1.091 2.297 1.919.57.822.895 1.783.974 2.884h-3.44a3.294 3.294 0 0 0-.994-1.84c-.517-.497-1.21-.745-2.078-.745-.736 0-1.382.198-1.939.596-.557.391-.991.955-1.303 1.69-.305.736-.457 1.618-.457 2.645 0 1.041.152 1.936.457 2.685.305.742.733 1.316 1.283 1.72.557.398 1.21.597 1.959.597.53 0 1.004-.1 1.422-.299.424-.205.778-.5 1.063-.884.286-.385.481-.852.587-1.402h3.44c-.086 1.08-.404 2.038-.954 2.873-.55.829-1.299 1.478-2.247 1.949-.948.464-2.062.696-3.341.696Zm16.259 0c-1.531 0-2.853-.318-3.967-.955-1.107-.643-1.959-1.551-2.555-2.724-.597-1.18-.895-2.569-.895-4.166 0-1.571.298-2.95.895-4.137.603-1.193 1.445-2.121 2.525-2.784 1.081-.669 2.35-1.004 3.809-1.004.941 0 1.829.153 2.664.458a6.017 6.017 0 0 1 2.228 1.392c.649.629 1.16 1.431 1.531 2.406.371.968.557 2.121.557 3.46v1.104h-12.519v-2.426h9.068c-.006-.69-.155-1.303-.447-1.84a3.26 3.26 0 0 0-1.223-1.283c-.517-.311-1.12-.467-1.81-.467-.736 0-1.382.179-1.939.537a3.696 3.696 0 0 0-1.302 1.392 4.01 4.01 0 0 0-.468 1.879v2.118c0 .889.163 1.651.488 2.287.324.63.779 1.114 1.362 1.452.583.331 1.266.497 2.048.497.524 0 .998-.073 1.422-.219a3.15 3.15 0 0 0 1.104-.666c.311-.292.547-.653.706-1.084l3.36.378a5.237 5.237 0 0 1-1.213 2.327c-.59.656-1.345 1.167-2.267 1.531-.921.358-1.975.537-3.162.537Z"/><defs><linearGradient id="a" x1="275.716" x2="275.716" y1=".819" y2="553.544" gradientUnits="userSpaceOnUse"><stop stop-color="#1B1F2F"/><stop offset="1" stop-color="#1B1F2F" stop-opacity=".3"/></linearGradient><linearGradient id="c" x1="69.071" x2="111.497" y1="155.605" y2="198.032" gradientUnits="userSpaceOnUse"><stop offset=".1" stop-color="#FFF1AB"/><stop offset=".4" stop-color="#FFDA24"/><stop offset=".51" stop-color="#FFC81D"/><stop offset=".74" stop-color="#FF9A0C"/><stop offset=".9" stop-color="#F70"/></linearGradient><linearGradient id="e" x1="90.292" x2="90.292" y1="192.007" y2="184.167" gradientUnits="userSpaceOnUse"><stop stop-color="#FF6A00"/><stop offset=".99" stop-color="#FFA227"/></linearGradient><linearGradient id="f" x1="90.284" x2="90.284" y1="179.015" y2="173.818" gradientUnits="userSpaceOnUse"><stop offset=".65" stop-color="#fff"/><stop offset=".75" stop-color="#F6F6F6"/><stop offset=".9" stop-color="#DDD"/><stop offset="1" stop-color="#CCC"/></linearGradient><radialGradient id="d" cx="0" cy="0" r="1" gradientTransform="translate(90.284 182.912) scale(12.368)" gradientUnits="userSpaceOnUse"><stop stop-color="#614444"/><stop offset=".38" stop-color="#583C3C"/><stop offset="1" stop-color="#402828"/></radialGradient><radialGradient id="g" cx="0" cy="0" r="1" gradientTransform="translate(100.797 162.652) scale(5.9543)" gradientUnits="userSpaceOnUse"><stop stop-color="#705454"/><stop offset=".27" stop-color="#674C4C"/><stop offset=".71" stop-color="#4E3838"/><stop offset="1" stop-color="#3B2828"/></radialGradient><radialGradient id="h" cx="0" cy="0" r="1" gradientTransform="translate(79.771 146.877) scale(5.9543)" gradientUnits="userSpaceOnUse"><stop stop-color="#705454"/><stop offset=".27" stop-color="#674C4C"/><stop offset=".71" stop-color="#4E3838"/><stop offset="1" stop-color="#3B2828"/></radialGradient><clipPath id="b"><path fill="#fff" d="M60.284 146.819h60v60h-60z"/></clipPath></defs></svg>