<svg xmlns="http://www.w3.org/2000/svg" width="94" height="25" fill="none"><g clip-path="url(#a)"><path fill="#fff" d="M12.86 25c6.903 0 12.5-5.597 12.5-12.5 0-3.106-1.134-5.948-3.01-8.134L4.726 21.992A12.451 12.451 0 0 0 12.86 25Zm8.132-21.994A12.451 12.451 0 0 0 12.86 0C5.956 0 .36 5.596.36 12.5c0 3.105 1.132 5.946 3.006 8.132L20.992 3.006Z"/><mask id="b" width="62" height="26" x="32" y="-1" maskUnits="userSpaceOnUse" style="mask-type:luminance"><path fill="#fff" d="M93.353 0h-60.5v25h60.5V0Z"/></mask><g mask="url(#b)"><path fill="#fff" d="M35.87 18.375h-2.944l4.48-11.2h2.608l4.56 11.2h-3.12l-.64-1.648H36.51l-.64 1.648Zm1.504-3.968h2.592l-1.296-3.76-1.296 3.76Zm10.811-4.112.209 1.664a5.513 5.513 0 0 1 2.56-1.664l.24 2.72c-1.009.016-1.92.256-2.672.784v4.576h-2.608V13.43l-.337-2.896 2.608-.24Zm4.889 5.072v-2.752h-1.088v-2.24h1.152l.176-1.952 2.368-.224v2.176h2.336l-.24 2.24h-2.096v2.512c0 .688.288 1.008.784 1.008.288 0 .704-.08 1.136-.336l.896 2.064c-.688.448-1.536.672-2.448.672-1.776 0-2.976-.96-2.976-3.168Zm7.979-5.808a1.516 1.516 0 0 1-1.504-1.52c0-.832.672-1.504 1.504-1.504.848 0 1.52.672 1.52 1.504a1.52 1.52 0 0 1-1.52 1.52Zm1.312.736v8.08h-2.608v-7.84l2.608-.24Zm4.927 2.752 1.072.256c1.52.368 2.304 1.152 2.304 2.528 0 1.616-1.184 2.704-3.344 2.704-1.248 0-2.464-.304-3.472-.896l.848-1.888c.896.448 1.76.704 2.544.704.528 0 .784-.128.784-.416 0-.256-.112-.336-.56-.448l-1.072-.256c-1.536-.368-2.304-1.136-2.304-2.416 0-1.616 1.168-2.704 3.264-2.704 1.216 0 2.288.336 3.232.896l-.848 1.888c-.832-.48-1.552-.704-2.32-.704-.464 0-.688.112-.688.336 0 .224.128.32.56.416Zm5.094 2.32v-2.752h-1.088v-2.24h1.152l.176-1.952 2.368-.224v2.176h2.336l-.24 2.24h-2.096v2.512c0 .688.288 1.008.784 1.008.288 0 .704-.08 1.136-.336l.896 2.064c-.688.448-1.536.672-2.448.672-1.776 0-2.976-.96-2.976-3.168Zm8.971-5.072.208 1.664a5.513 5.513 0 0 1 2.56-1.664l.24 2.72c-1.008.016-1.92.256-2.672.784v4.576h-2.608V13.43l-.336-2.896 2.608-.24Zm3.952 9.36c1.28 0 1.936-.304 2.224-1.008l.064-.176-3.024-8.096h2.8l1.488 4.784 1.552-4.784h2.704L91.02 15.99l-.992 2.656c-.816 2.208-2.016 3.216-4.08 3.408l-.64-2.4Z"/></g></g><defs><clipPath id="a"><path fill="#fff" d="M.36 0h93v25h-93z"/></clipPath></defs></svg>