<svg xmlns="http://www.w3.org/2000/svg" width="83" height="25" fill="none"><g clip-path="url(#a)"><path fill="#fff" fill-rule="evenodd" d="M8.457.8c-6.332 2.409-9.6 9.821-7.298 16.102L12.835 5.226 8.457.8Z" clip-rule="evenodd"/><path fill="#fff" fill-rule="evenodd" d="m8.41.8 11.724 11.676 4.378-4.425C22.05 1.667 14.8-1.543 8.41.8ZM5.586 12.477l-4.425 4.426c2.43 6.391 9.839 9.564 16.148 7.25L5.586 12.477Z" clip-rule="evenodd" opacity=".5"/><path fill="#fff" fill-rule="evenodd" d="M24.512 8.098 12.836 19.774l4.426 4.425c6.22-2.452 9.78-9.776 7.25-16.101Z" clip-rule="evenodd"/><mask id="b" width="51" height="25" x="32" y="0" maskUnits="userSpaceOnUse" style="mask-type:luminance"><path fill="#fff" d="M82.36 0h-49.5v25h49.5V0Z"/></mask><g fill="#fff" mask="url(#b)"><path d="M32.883 18.25V7.4h4.061c3.255 0 5.735 2.357 5.735 5.441 0 3.07-2.48 5.41-5.735 5.41h-4.06Zm2.077-1.844h1.984c2.015 0 3.596-1.55 3.596-3.565 0-2.03-1.58-3.596-3.596-3.596H34.96v7.161Zm13.072 2c-2.418 0-4.278-1.83-4.278-4.17 0-2.325 1.798-4.138 4.092-4.138 2.263 0 3.953 1.829 3.953 4.278v.511h-6.06c.263 1.085 1.193 1.86 2.386 1.86.729 0 1.395-.248 1.83-.666l1.286 1.193c-.977.775-1.953 1.132-3.209 1.132Zm-2.31-4.93h4.14c-.233-1.022-1.055-1.75-2.062-1.75-1.039 0-1.83.681-2.077 1.75Zm5.967 4.775 3.084-4.092-2.991-3.937h2.294l1.844 2.495 1.845-2.495h2.2l-2.96 3.906 3.147 4.123h-2.294l-1.984-2.666-1.984 2.666h-2.201ZM61.98 9.168a1.141 1.141 0 0 1-1.147-1.132c0-.635.512-1.131 1.147-1.131.62 0 1.132.496 1.132 1.131 0 .62-.512 1.132-1.132 1.132Zm-.992 9.083v-8.03h1.969v8.03h-1.969Zm7.708 3.317c-1.224 0-2.387-.264-3.317-.744l.698-1.535c.899.45 1.72.651 2.573.651 1.286 0 1.968-.573 1.968-1.69v-.712a3.687 3.687 0 0 1-2.263.76c-2.263 0-4.045-1.799-4.045-4.108 0-2.294 1.798-4.092 4.107-4.092a3.84 3.84 0 0 1 2.217.697v-.573h1.953v8.044c0 2.124-1.38 3.302-3.89 3.302Zm-.046-4.945c.806 0 1.488-.279 1.968-.79v-3.255c-.48-.496-1.178-.79-1.953-.79-1.38 0-2.433 1.038-2.433 2.402 0 1.38 1.054 2.433 2.418 2.433Zm5.643 1.628v-8.03h1.969v.698c.604-.558 1.395-.852 2.294-.852 1.86 0 3.162 1.317 3.162 3.193v4.99h-1.953v-4.696c0-1.1-.698-1.782-1.767-1.782-.744 0-1.349.31-1.736.868v5.61h-1.969ZM67.379 8.85a.333.333 0 0 0-.02-.12.227.227 0 0 0-.072-.1.638.638 0 0 0-.15-.09 2.102 2.102 0 0 0-.247-.093 3.125 3.125 0 0 1-.321-.123 1.327 1.327 0 0 1-.267-.159.707.707 0 0 1-.18-.213.586.586 0 0 1-.066-.282c0-.104.023-.198.068-.282a.654.654 0 0 1 .192-.219.91.91 0 0 1 .29-.142 1.32 1.32 0 0 1 .371-.05c.184 0 .344.034.48.1a.766.766 0 0 1 .318.272.696.696 0 0 1 .115.394h-.51a.382.382 0 0 0-.046-.191.311.311 0 0 0-.136-.132.489.489 0 0 0-.23-.048.528.528 0 0 0-.221.042.294.294 0 0 0-.134.107.266.266 0 0 0-.044.15c0 .043.01.08.03.115a.346.346 0 0 0 .096.096c.042.03.094.057.156.084.061.026.132.051.213.076.136.041.255.088.358.139.103.051.19.109.26.172a.669.669 0 0 1 .157.217.69.69 0 0 1 .053.276.65.65 0 0 1-.064.29.594.594 0 0 1-.183.217.856.856 0 0 1-.285.135 1.45 1.45 0 0 1-.735-.001 1.108 1.108 0 0 1-.326-.15.747.747 0 0 1-.233-.252.727.727 0 0 1-.087-.364h.515c0 .077.012.143.035.196a.327.327 0 0 0 .101.13.434.434 0 0 0 .158.072.86.86 0 0 0 .201.022.544.544 0 0 0 .219-.037.27.27 0 0 0 .17-.255Zm2.709-1.838V9.5h-.511V7.012h.51Zm.765 0v.402h-2.03v-.402h2.03Zm2.402 0h.51v1.644a.895.895 0 0 1-.122.484.76.76 0 0 1-.337.295c-.143.066-.307.1-.492.1-.186 0-.351-.034-.496-.1a.77.77 0 0 1-.338-.295.903.903 0 0 1-.122-.484V7.012h.513v1.644a.61.61 0 0 0 .053.273.334.334 0 0 0 .152.156c.067.033.147.05.238.05a.519.519 0 0 0 .237-.05.329.329 0 0 0 .15-.156.616.616 0 0 0 .054-.273V7.012ZM75.687 9.5h-.542l.003-.4h.539c.134 0 .247-.03.34-.09a.564.564 0 0 0 .208-.269 1.12 1.12 0 0 0 .072-.425v-.121c0-.128-.014-.24-.041-.337a.672.672 0 0 0-.118-.245.494.494 0 0 0-.193-.148.636.636 0 0 0-.263-.051h-.557v-.402h.557c.166 0 .318.028.456.085a1.03 1.03 0 0 1 .595.617c.056.145.084.306.084.484v.118c0 .176-.028.338-.084.483a1.042 1.042 0 0 1-.594.617 1.228 1.228 0 0 1-.462.084Zm-.252-2.488V9.5h-.512V7.012h.512Zm3.044 0V9.5h-.51V7.012h.51Zm3.26 1.186v.118c0 .189-.026.359-.078.51-.05.15-.123.278-.217.384a.936.936 0 0 1-.335.24 1.065 1.065 0 0 1-.428.084c-.157 0-.3-.028-.43-.083a.959.959 0 0 1-.334-.241 1.128 1.128 0 0 1-.22-.385 1.567 1.567 0 0 1-.078-.51v-.117c0-.19.026-.36.077-.51.051-.15.124-.278.217-.384a.949.949 0 0 1 .335-.243c.13-.055.273-.083.43-.083.156 0 .3.028.428.083a.93.93 0 0 1 .335.243c.095.106.168.234.219.385.052.149.078.319.078.509Zm-.518.118v-.121a1.52 1.52 0 0 0-.036-.35.762.762 0 0 0-.106-.252.454.454 0 0 0-.171-.154.488.488 0 0 0-.23-.053.46.46 0 0 0-.4.207.783.783 0 0 0-.105.253c-.024.1-.036.216-.036.349v.12c0 .132.012.248.036.35.024.1.06.185.106.254.047.068.104.12.17.156a.49.49 0 0 0 .232.053.46.46 0 0 0 .4-.209.792.792 0 0 0 .104-.255c.024-.1.036-.217.036-.348Z"/></g></g><defs><clipPath id="a"><path fill="#fff" d="M.36 0h82v25h-82z"/></clipPath></defs></svg>