<svg xmlns="http://www.w3.org/2000/svg" width="109" height="28" fill="none"><path fill="#fff" d="M5.446 19.96a2.39 2.39 0 0 1-2.383 2.383A2.39 2.39 0 0 1 .68 19.96V2.565A2.39 2.39 0 0 1 3.063.182a2.39 2.39 0 0 1 2.383 2.383V19.96Zm7.744 5.657A2.39 2.39 0 0 1 10.809 28a2.39 2.39 0 0 1-2.383-2.383V8.221a2.39 2.39 0 0 1 2.383-2.383 2.39 2.39 0 0 1 2.383 2.383v17.396Zm7.745-5.657a2.39 2.39 0 0 1-2.383 2.383 2.39 2.39 0 0 1-2.383-2.383V2.565A2.39 2.39 0 0 1 18.552.182a2.39 2.39 0 0 1 2.383 2.383V19.96Zm7.745 5.657A2.39 2.39 0 0 1 26.297 28a2.39 2.39 0 0 1-2.383-2.383V8.781a2.39 2.39 0 0 1 2.383-2.383 2.39 2.39 0 0 1 2.383 2.383v16.836Z"/><g clip-path="url(#a)"><path fill="#fff" d="M45.644 17.84v2.44h-8.446V7.344h8.446v2.44h-5.581v2.864h4.841v2.328h-4.842v2.864h5.582Zm4.92 2.44h-2.79v-9.628h2.346l.222 1.312c.906-.98 1.978-1.479 3.29-1.479 1.183 0 1.977.352 2.476 1.017.148.185.259.37.351.591.943-1.09 2.014-1.607 3.345-1.607 1.22 0 2.033.35 2.532 1.016.517.684.665 1.478.665 3.437v5.34H60.23v-4.711c0-1.11-.074-1.59-.37-1.978-.314-.37-.739-.517-1.404-.517-.61 0-1.146.184-1.7.646.037.352.037.74.037 1.22v5.34h-2.79v-4.711c0-1.11-.056-1.59-.37-1.978-.296-.37-.721-.517-1.35-.517-.683 0-1.311.24-1.718.665v6.542Zm19.275.148c-.72 0-1.497-.13-2.236-.407l-2.125.259V6.235h2.79v5.673c.684-.942 1.608-1.441 2.864-1.441 2.144 0 3.586 1.608 3.586 4.62 0 3.437-1.96 5.34-4.88 5.34Zm-1.57-6.228v3.733c.424.185.83.259 1.256.259 1.349 0 2.291-.887 2.291-2.828 0-1.626-.702-2.42-1.718-2.42-.814 0-1.405.443-1.83 1.256Zm11.008 6.08h-2.79V6.235h2.79V20.28Zm7.043.148c-3.51 0-5.266-1.627-5.266-4.99 0-3.215 2.18-4.971 4.675-4.971 2.643 0 3.918 1.59 3.918 4.361 0 .518-.037.98-.074 1.442H83.9c.277 1.441 1.256 1.94 3.049 1.94.739 0 1.497-.074 2.143-.166l-.129 2.199c-.665.11-1.57.185-2.643.185Zm-.665-7.891c-.96 0-1.663.683-1.81 2.217l3.16-.166c0-1.404-.426-2.051-1.35-2.051Zm8.655 7.743h-2.79v-9.628h2.346l.222 1.312c.905-.98 1.977-1.479 3.29-1.479 1.182 0 1.977.352 2.476 1.017.148.185.258.37.351.591.942-1.09 2.014-1.607 3.345-1.607 1.219 0 2.032.35 2.531 1.016.518.684.666 1.478.666 3.437v5.34h-2.772v-4.711c0-1.11-.074-1.59-.37-1.978-.314-.37-.739-.517-1.404-.517-.61 0-1.146.184-1.701.646.037.352.037.74.037 1.22v5.34h-2.79v-4.711c0-1.11-.055-1.59-.37-1.978-.295-.37-.72-.517-1.349-.517-.683 0-1.312.24-1.718.665v6.542Z"/></g><defs><clipPath id="a"><path fill="#fff" d="M37.08 0h71.12v28H37.08z"/></clipPath></defs></svg>