<svg xmlns="http://www.w3.org/2000/svg" width="97" height="28" fill="none"><path fill="#fff" d="M23.108 14.018c0 5.724-2.81 10.755-7.148 13.878C22.76 26.925 28 21.061 28 14.018 28 6.94 22.76 1.11 15.96.139c4.303 3.088 7.148 8.154 7.148 13.879Z"/><path fill="#fff" d="M9.784 27.34a12.25 12.25 0 0 0 2.984.59c3.782-3.47 6.141-8.43 6.141-13.947 0-5.517-2.394-10.479-6.14-13.914a16.23 16.23 0 0 0-2.985.59c3.192 3.505 5.135 8.189 5.135 13.358 0 5.17-1.943 9.82-5.135 13.324Z"/><path fill="#fff" d="M0 14.018c0 4.822 2.429 9.09 6.176 11.588 3.088-2.914 5.03-7.043 5.03-11.589a15.81 15.81 0 0 0-5.03-11.588C2.429 4.927 0 9.16 0 14.017Z"/><g clip-path="url(#a)"><path fill="#fff" d="M43.362 9.033c-2.517 0-3.958 1.822-3.958 4.565 0 2.83 1.631 4.375 3.975 4.375 2.205 0 3.541-1.215 3.541-3.246v-.052h-3.836v-1.962h5.902v7.135h-1.874l-.14-1.458c-.694.972-2.135 1.649-3.853 1.649-3.56 0-6.042-2.587-6.042-6.493 0-3.854 2.518-6.596 6.337-6.596 2.899 0 5.138 1.683 5.503 4.27h-2.344c-.399-1.493-1.684-2.187-3.211-2.187Zm13.093 2.205v1.961h-.781c-1.528 0-2.483.816-2.483 2.483v4.166h-2.117V11.29h1.996l.121 1.25c.365-.851 1.18-1.424 2.327-1.424.295 0 .59.035.937.122Zm3.647 8.836c-1.823 0-2.934-1.06-2.934-2.674 0-1.58 1.145-2.569 3.177-2.725l2.569-.191v-.191c0-1.163-.695-1.632-1.77-1.632-1.25 0-1.945.52-1.945 1.424h-1.806c0-1.858 1.528-3.073 3.854-3.073 2.31 0 3.733 1.25 3.733 3.628v5.208h-1.858l-.156-1.267c-.365.885-1.528 1.493-2.864 1.493Zm.694-1.597c1.302 0 2.135-.782 2.135-2.101v-.451l-1.788.139c-1.32.121-1.823.555-1.823 1.25 0 .78.521 1.163 1.476 1.163Zm6.264 5.346v-12.55h1.962l.139 1.301c.52-.99 1.65-1.562 2.951-1.562 2.413 0 4.01 1.753 4.01 4.444 0 2.673-1.458 4.618-4.01 4.618-1.285 0-2.396-.504-2.934-1.372v5.121H67.06Zm2.136-8.263c0 1.545.954 2.604 2.413 2.604 1.493 0 2.378-1.076 2.378-2.604s-.885-2.621-2.378-2.621c-1.459 0-2.413 1.076-2.413 2.621Zm10.73 4.288H77.81V6.932h2.135v5.451c.538-.833 1.545-1.371 2.778-1.371 2.117 0 3.228 1.336 3.228 3.559v5.277h-2.118v-4.774c0-1.44-.711-2.135-1.788-2.135-1.336 0-2.117.937-2.117 2.222v4.687Zm7.602-4.305c0-2.674 1.927-4.514 4.583-4.514s4.583 1.84 4.583 4.514c0 2.673-1.927 4.513-4.583 4.513s-4.583-1.84-4.583-4.513Zm2.118 0c0 1.562 1.007 2.621 2.465 2.621s2.465-1.059 2.465-2.621c0-1.563-1.007-2.622-2.465-2.622s-2.465 1.06-2.465 2.622Z"/></g><defs><clipPath id="a"><path fill="#fff" d="M36.4 0h60.48v28H36.4z"/></clipPath></defs></svg>