<svg xmlns="http://www.w3.org/2000/svg" width="101" height="29" fill="none"><path fill="#fff" fill-rule="evenodd" d="M.264 16.826H.16c.933 6.637 6.43 11.615 13.067 12.03h1.97c6.533-.415 11.926-5.393 12.963-12.03h-.104c-1.037 0-1.97.104-3.007.311a11.111 11.111 0 0 1-10.89 8.711c-5.184 0-9.747-3.63-10.784-8.814-1.037-.104-2.074-.208-3.111-.208ZM14.16.648h-.933C6.59 1.167 1.093 6.145.16 12.782h.104c1.037 0 1.97-.104 3.007-.312 1.14-5.081 5.6-8.71 10.785-8.71 5.185 0 9.748 3.629 10.785 8.71.934.208 1.97.312 3.008.312h.104c-.83-6.637-6.223-11.615-12.86-12.03h-.415c-.207-.104-.414-.104-.518-.104Z" clip-rule="evenodd"/><path fill="#fff" fill-rule="evenodd" d="M25.671 14.752c-4.563-.622-8.711-3.007-11.511-6.74-2.8 3.733-6.948 6.118-11.511 6.74 4.563.622 8.815 3.111 11.511 6.845 2.8-3.734 6.948-6.223 11.511-6.845Z" clip-rule="evenodd"/><g clip-path="url(#a)"><path fill="#fff" d="M39.786 21.76V10.034h2.772V21.76h-2.772Zm-2.688-11.726h8.148v2.268h-8.148v-2.268Zm0 9.458h8.148v2.268h-8.148v-2.268Zm15.143 2.47c-.986 0-1.837-.196-2.554-.588a3.997 3.997 0 0 1-1.63-1.68c-.369-.728-.554-1.596-.554-2.604 0-1.03.196-1.91.588-2.638a4.073 4.073 0 0 1 1.68-1.663c.717-.38 1.563-.571 2.537-.571.851 0 1.602.15 2.251.453.661.303 1.182.728 1.563 1.277.392.538.605 1.182.638 1.932h-2.62c-.09-.515-.292-.896-.605-1.142-.303-.258-.712-.387-1.227-.387a2.09 2.09 0 0 0-1.142.32c-.325.212-.583.52-.773.924-.18.403-.269.901-.269 1.495 0 .884.202 1.568.605 2.05.414.48.918.722 1.512.722.347 0 .65-.062.907-.185.269-.123.493-.297.672-.52.18-.236.303-.5.37-.79h2.62c-.067.727-.302 1.36-.705 1.898a4.067 4.067 0 0 1-1.596 1.26c-.66.291-1.417.437-2.268.437Zm10.792 0c-.997 0-1.854-.196-2.57-.588a4.075 4.075 0 0 1-1.663-1.68c-.381-.728-.572-1.596-.572-2.604 0-1.02.19-1.887.572-2.604a4.075 4.075 0 0 1 1.663-1.68c.716-.392 1.573-.588 2.57-.588 1.5 0 2.671.43 3.511 1.293.852.863 1.277 2.056 1.277 3.579 0 1.008-.19 1.876-.571 2.604a3.97 3.97 0 0 1-1.647 1.68c-.716.392-1.573.588-2.57.588Zm0-2.117c.672 0 1.198-.246 1.58-.74.391-.492.587-1.164.587-2.015 0-.863-.196-1.535-.588-2.016-.38-.493-.907-.74-1.579-.74-.683 0-1.22.247-1.613.74-.38.481-.57 1.153-.57 2.016 0 .85.19 1.523.57 2.016.392.492.93.739 1.613.739Zm12.758 1.915v-5.762c0-.482-.123-.868-.37-1.16-.246-.29-.57-.436-.974-.436-.46 0-.885.157-1.277.47-.38.303-.784.829-1.21 1.58l-.37-2.218c.426-.728.942-1.243 1.546-1.546a3.973 3.973 0 0 1 1.849-.47c.716 0 1.327.15 1.83.453a2.97 2.97 0 0 1 1.177 1.26c.28.538.42 1.17.42 1.899v5.93H75.79Zm-6.233 0v-9.34h2.537l.084 1.662v7.678h-2.62Zm14.018 0v-9.34h2.62v9.34h-2.62Zm-3.024 0v-2.117h8.702v2.117h-8.702Zm1.176-7.224V12.42h3.158v2.117h-3.158Zm1.747-3.36V8.723h2.789v2.453h-2.789Zm12.472 10.786c-.985 0-1.837-.196-2.553-.588a3.997 3.997 0 0 1-1.63-1.68c-.37-.728-.554-1.596-.554-2.604 0-1.03.196-1.91.588-2.638a4.073 4.073 0 0 1 1.68-1.663c.716-.38 1.562-.571 2.536-.571.852 0 1.602.15 2.252.453.66.303 1.181.728 1.562 1.277.392.538.605 1.182.638 1.932h-2.62c-.09-.515-.292-.896-.605-1.142-.303-.258-.711-.387-1.227-.387a2.09 2.09 0 0 0-1.142.32c-.325.212-.582.52-.773.924-.179.403-.269.901-.269 1.495 0 .884.202 1.568.605 2.05.415.48.919.722 1.512.722.347 0 .65-.062.907-.185a1.81 1.81 0 0 0 .672-.52c.18-.236.303-.5.37-.79h2.621c-.067.727-.303 1.36-.706 1.898a4.067 4.067 0 0 1-1.596 1.26c-.66.291-1.417.437-2.268.437Z"/></g><defs><clipPath id="a"><path fill="#fff" d="M36.84 1h63.84v28H36.84z"/></clipPath></defs></svg>