<svg xmlns="http://www.w3.org/2000/svg" width="108" height="28" fill="none"><path fill="#fff" fill-rule="evenodd" d="M20.54 28 28 0 0 7.46l6.27 6.27 15.784-7.784-7.892 15.676L20.541 28Z" clip-rule="evenodd"/><path fill="#fff" fill-rule="evenodd" d="m22.054 5.946-7.892 15.676H6.271V13.73l15.783-7.784Z" clip-rule="evenodd" opacity=".5"/><g clip-path="url(#a)"><path fill="#fff" d="M42.74 20.063a6.324 6.324 0 0 1-2.438-.466 6.228 6.228 0 0 1-3.28-3.297 6.508 6.508 0 0 1-.465-2.473c0-.872.155-1.679.466-2.42a6.228 6.228 0 0 1 1.326-1.97 6.036 6.036 0 0 1 1.953-1.309 6.12 6.12 0 0 1 2.437-.484c.872 0 1.679.162 2.42.484.74.311 1.391.747 1.953 1.309a5.986 5.986 0 0 1 1.308 1.97 6.21 6.21 0 0 1 .466 2.42c0 .884-.156 1.708-.466 2.473a5.986 5.986 0 0 1-1.308 1.971 6.282 6.282 0 0 1-1.954 1.326 6.2 6.2 0 0 1-2.419.466Zm0-1.738c.585 0 1.134-.114 1.648-.34a4.499 4.499 0 0 0 1.38-.968 4.31 4.31 0 0 0 .914-1.416c.215-.55.322-1.14.322-1.774 0-.621-.107-1.2-.322-1.738a4.31 4.31 0 0 0-.914-1.416 4.308 4.308 0 0 0-1.362-.95 4.077 4.077 0 0 0-1.667-.34c-.597 0-1.158.113-1.684.34a4.252 4.252 0 0 0-1.38.95 4.729 4.729 0 0 0-.914 1.416 4.638 4.638 0 0 0-.323 1.738c0 .633.108 1.224.323 1.774.227.538.532 1.01.914 1.416.394.406.854.728 1.38.967.526.227 1.087.34 1.684.34Zm9.919 5.555h-1.774v-8.44c0-.872.203-1.655.61-2.348a4.502 4.502 0 0 1 1.684-1.63c.704-.407 1.499-.61 2.383-.61.884 0 1.678.21 2.383.627.705.407 1.26.962 1.667 1.667.406.693.61 1.457.61 2.294 0 .884-.198 1.678-.592 2.383A4.407 4.407 0 0 1 58 19.472c-.682.394-1.47.591-2.366.591a3.931 3.931 0 0 1-1.954-.502 4.14 4.14 0 0 1-1.415-1.308 3.297 3.297 0 0 1-.52-1.792l.914.466v6.953Zm2.903-5.483c.55 0 1.04-.132 1.47-.395a2.987 2.987 0 0 0 1.039-1.075 2.99 2.99 0 0 0 .376-1.47c0-.537-.125-1.027-.376-1.469a2.847 2.847 0 0 0-1.04-1.057 2.761 2.761 0 0 0-1.469-.394 2.85 2.85 0 0 0-1.487.394c-.43.263-.777.615-1.04 1.057-.25.442-.376.932-.376 1.47 0 .525.125 1.015.376 1.47.263.441.61.8 1.04 1.074.442.263.938.395 1.487.395Zm10.66 1.684c-.718 0-1.327-.143-1.829-.43a2.878 2.878 0 0 1-1.147-1.183c-.25-.514-.376-1.105-.376-1.774V8.791h1.774v7.85c0 .573.155 1.02.466 1.343.323.323.747.484 1.272.484.287 0 .574-.048.86-.143.3-.096.556-.221.771-.377v1.631a3.292 3.292 0 0 1-.824.359 3.39 3.39 0 0 1-.968.143Zm1.791-7.473h-6.881v-1.54h6.881v1.54Zm2.638-1.54h1.774v8.78H70.65v-8.78Zm.878-1.739a1.2 1.2 0 0 1-.574-.143 1.235 1.235 0 0 1-.43-.43 1.127 1.127 0 0 1-.16-.592c0-.215.053-.412.16-.591a1.23 1.23 0 0 1 .43-.43c.18-.108.37-.162.574-.162.215 0 .406.054.573.162.18.107.317.25.412.43.108.179.162.376.162.591 0 .215-.054.412-.162.592a1.097 1.097 0 0 1-.412.43 1.135 1.135 0 0 1-.573.143Zm14.681 1.487c.884 0 1.625.197 2.222.592a3.73 3.73 0 0 1 1.38 1.595c.323.669.484 1.41.484 2.222v4.623h-1.774v-4.337a4.02 4.02 0 0 0-.269-1.487 2.329 2.329 0 0 0-.806-1.093c-.359-.275-.813-.412-1.362-.412-.526 0-.968.137-1.326.412a2.38 2.38 0 0 0-.807 1.075 3.883 3.883 0 0 0-.269 1.47v4.372H81.91v-4.372c0-.538-.09-1.028-.268-1.47a2.224 2.224 0 0 0-.807-1.075c-.358-.275-.812-.412-1.362-.412s-1.003.137-1.362.412a2.434 2.434 0 0 0-.77 1.093 4.27 4.27 0 0 0-.251 1.487v4.337h-1.774v-4.605c0-.825.15-1.571.448-2.24.31-.67.764-1.201 1.362-1.595.61-.394 1.35-.592 2.222-.592.74 0 1.38.144 1.917.43.55.287.974.681 1.273 1.183.31.502.472 1.081.483 1.738h-.394c.024-.657.185-1.236.484-1.738.31-.502.729-.896 1.255-1.183.537-.286 1.152-.43 1.845-.43Zm10.475 9.247c-.848 0-1.607-.209-2.276-.627a4.543 4.543 0 0 1-1.559-1.667 4.807 4.807 0 0 1-.573-2.33c0-.836.203-1.6.61-2.293a4.6 4.6 0 0 1 1.684-1.667c.704-.418 1.499-.627 2.383-.627.884 0 1.678.203 2.383.61a4.37 4.37 0 0 1 1.667 1.63c.418.693.627 1.476.627 2.348v4.408h-1.684v-3.28l.609-.465c0 .74-.167 1.41-.502 2.007a3.735 3.735 0 0 1-1.362 1.433c-.573.347-1.242.52-2.007.52Zm.269-1.684a2.854 2.854 0 0 0 2.527-1.452 2.99 2.99 0 0 0 .376-1.47c0-.537-.125-1.027-.376-1.469a2.847 2.847 0 0 0-1.04-1.057 2.76 2.76 0 0 0-1.487-.412 2.76 2.76 0 0 0-1.487.412c-.43.263-.777.615-1.04 1.057-.25.442-.376.932-.376 1.47 0 .525.125 1.015.376 1.47.263.441.61.793 1.04 1.056.442.263.938.395 1.487.395Zm7.577-11.344h1.774v12.813h-1.774V7.035Z"/></g><defs><clipPath id="a"><path fill="#fff" d="M36.4 0h71.12v28H36.4z"/></clipPath></defs></svg>