<svg xmlns="http://www.w3.org/2000/svg" width="103" height="28" fill="none"><path fill="#fff" fill-rule="evenodd" d="M11.79 0C9.18 0 6.809.95 4.91 2.373l12.932 15.542L28.4 9.966C27.926 4.39 23.18 0 17.367 0" clip-rule="evenodd" opacity=".5"/><path fill="#fff" fill-rule="evenodd" d="M17.367 28A11.14 11.14 0 0 0 28.52 16.847v-.593l-9.61 7.119c-1.068.83-2.61.593-3.44-.356L1.705 6.407C.995 7.83.52 9.49.52 11.152v5.577A11.14 11.14 0 0 0 11.673 27.88" clip-rule="evenodd"/><g clip-path="url(#a)"><path fill="#fff" d="m42.206 8.997.243.209a41.49 41.49 0 0 1 .139 3.593c0 2.396-.313 4.844-.538 6.458l.434.017c1.7-1.7 3.28-4.426 3.28-6.423 0-1.597-.659-2.656-1.301-3.333l.034-.226c1.06-.208 2.222-.277 3.073-.295.365.278.59.66.59 1.372 0 .486-.121 1.076-.364 1.857-.712 2.31-4.948 7.847-6.996 9.132a5.884 5.884 0 0 1-2.379-.712c.191-2.205.33-4.496.33-6.632 0-1.232-.07-2.36-.156-3.298l-1.562-1.233.034-.225c1.215-.122 3.924-.26 5.139-.26Zm9.108 1.459c-.677 0-1.18-.434-1.18-1.042 0-.92.903-1.476 1.65-1.476.676 0 1.162.434 1.162 1.025 0 .937-.885 1.493-1.631 1.493Zm2.709 8.662c-.834.938-2.535 2.24-3.993 2.24-1.233 0-2.188-.643-2.188-1.945 0-.625.244-1.458.556-2.447.313-.973.642-2.066.868-3.334l-.66-.99.052-.26a41.834 41.834 0 0 1 4.167-.26l.243.174c0 .694-.209 2.17-.625 3.645-.451 1.597-1.198 3.35-1.198 4.236 0 .156.017.347.07.417.798-.347 2.013-1.215 2.656-1.927l.052.052v.4Zm7.215-.52c0 1.979-2.03 2.76-3.715 2.76-1.84 0-3.75-.573-4.392-1.459.33-.798.886-1.51 1.459-2.1h.173c.4 1.024 1.389 3.142 2.517 3.142.521 0 .99-.313.99-.955 0-.902-.643-1.198-1.476-1.718-1.371-.851-2.256-1.459-2.256-2.709 0-2.517 3.02-3.437 5.017-3.437 1.857 0 3.09.677 3.09 1.77 0 .678-.4 1.095-.973 1.39-.868.104-1.718.121-2.586.121l-.052-.173c.416-.47.833-.92.833-1.372 0-.503-.52-1.18-1.215-1.18-.538 0-1.077.364-1.077 1.267 0 .903.573 1.423 1.407 1.944 1.371.85 2.256 1.459 2.256 2.708Zm14.055.52c-.833.938-2.881 2.24-4.34 2.24-1.232 0-1.91-.643-1.91-1.771 0-.938.504-2.5 1.233-3.94L70 15.558c-.052.105-.33.73-.4.868-1.11 2.413-2.274 4.93-4.687 4.93-1.371 0-2.083-.815-2.083-1.944 0-.607.434-1.736.85-2.899.435-1.163.869-2.343.869-3.072 0-.26-.105-.33-.26-.33-.278 0-.695.156-1.042.364l-.052-.035.069-.45c.781-.418 1.858-.869 2.812-.869 1.32 0 1.91.677 1.91 1.806 0 .624-.365 1.805-.73 2.916-.364 1.128-.728 2.187-.728 2.587 0 .312.173.416.364.416.382 0 .938-.729 1.58-1.979.712-1.371 1.562-3.367 2.483-5.746 1.232.087 2.638.694 3.142 1.18 0 1.216-1.91 5.278-1.91 7.031 0 .105.017.209.052.26 1.441-.59 2.396-1.319 3.003-1.96l.052.051v.434Zm11.524-.173c-.833.937-3.056 2.413-4.514 2.413-1.232 0-1.91-.643-1.91-1.771 0-.642.244-1.233 1.129-2.795l-.59.052c-.695 1.667-1.91 4.514-3.837 4.514-1.389 0-2.378-1.39-2.378-3.334 0-3.489 1.91-5.902 4.67-5.902.92 0 1.632.382 2.083 1.163l-.174.434c-.382-.503-.816-1.041-1.371-1.041-.781 0-1.458 2.395-1.458 5.104 0 1.093.173 1.7.503 1.7.278 0 .59-.572 1.233-2.1a72.926 72.926 0 0 0 1.944-5.069c1.267.174 2.656.868 3.246 1.528 0 .607-.469 1.979-.937 3.316-.452 1.336-.92 2.656-.92 3.176 0 .105.017.209.052.26 1.44-.59 2.57-1.492 3.177-2.134l.052.052v.434Zm1.39 2.413c-1.354 0-2.187-.747-2.187-1.945 0-.677.156-1.389.52-2.5l1.51-4.6c.4-1.215.574-1.927.66-2.604l-.624-1.128.052-.26a40.662 40.662 0 0 1 4.166-.261l.226.156c0 .642-.33 2.743-1.25 5.642-.504 1.58-1.84 5.052-1.84 6.32 0 .155.034.346.052.416.92-.382 2.378-1.337 2.968-1.997l.052.052v.4c-1.093 1.232-3.124 2.309-4.305 2.309Zm12.301-.486c-1.11 2.708-3.697 4.548-6.475 4.548-1.614 0-3.385-.52-3.576-2.083.52-1.024 1.77-2.17 2.795-2.622-.833-.26-1.25-.954-1.25-1.823 0-.624.452-1.631.92-2.655.452-1.042.903-2.101.903-2.813 0-.26-.104-.33-.26-.33-.174 0-.556.104-.712.209l-.052-.035.07-.4c.537-.364 1.527-.746 2.482-.746 1.319 0 1.91.66 1.91 1.788 0 .625-.4 1.684-.782 2.691-.4.99-.781 1.91-.781 2.309 0 .312.173.416.364.416.278 0 .695-.45 1.216-1.319.694-1.198 1.562-3.142 2.43-5.711 1.059.173 2.639.764 3.246 1.545-.208.52-1.718 5.277-2.448 7.03Zm-7.048.954c0 1.441.799 2.952 2.136 2.952.468 0 .99-1.39 1.527-3.09.521-1.684 1.06-3.663 1.58-4.913l-.347.07a18.32 18.32 0 0 1-.781 1.405c-.886 1.424-1.997 2.587-3.49 2.587-.173 0-.33-.017-.486-.035-.087.33-.139.677-.139 1.024Z"/></g><defs><clipPath id="a"><path fill="#fff" d="M36.92 0H103v28H36.92z"/></clipPath></defs></svg>