<svg xmlns="http://www.w3.org/2000/svg" width="128" height="28" fill="none"><path fill="#fff" d="M20.17 4.45a2.57 2.57 0 1 0-3.967-3.229c-.121.123-14.238 17.52-14.333 17.665a2.571 2.571 0 1 0 3.967 3.229c.121-.123 14.238-17.52 14.334-17.665Zm3.11 9.473a2.57 2.57 0 1 0-3.966-3.23c-.123.123-9.712 11.984-9.809 12.13a2.57 2.57 0 1 0 3.966 3.23c.123-.124 9.713-11.984 9.809-12.13ZM4.757 8.688a2.57 2.57 0 1 0 0-5.142 2.57 2.57 0 0 0 0 5.142Zm21.557.003a2.57 2.57 0 1 0 0-5.142 2.57 2.57 0 0 0 0 5.142Z"/><g clip-path="url(#a)"><path fill="#fff" d="m41.142 20.596-3.817-12.83h1.344l2.598 8.816c.18.627.34 1.272.502 2.114.215-.931.394-1.487.591-2.114l2.796-8.817H46.5l2.795 8.817c.197.645.377 1.29.574 2.114.197-.985.358-1.612.502-2.096l2.652-8.835h1.308l-3.853 12.831h-1.219L45.82 9.701l-3.44 10.895h-1.237Zm13.765 0H53.6l4.713-12.83h1.595l4.767 12.83H63.33l-1.255-3.405h-5.913l-1.255 3.405Zm4.032-11.02-2.383 6.486h5.107l-2.401-6.487c-.054-.179-.143-.394-.161-.52-.018.108-.09.341-.162.52Zm9.268 5.662-4.354-7.473h1.451l3.172 5.538c.143.268.25.483.376.77.162-.322.162-.322.394-.77l3.136-5.538h1.416l-4.3 7.473v5.358h-1.29v-5.358Zm9.52-7.741v10.985h5.483v2.114h-7.778v-13.1h2.294Zm9.642 0v13.1h-2.294v-13.1h2.294Zm5.161 13.1h-2.258v-13.1h2.276l6.147 9.282V7.497h2.258v13.1h-2.258l-6.165-9.284v9.283Zm19.458 0h-8.136v-13.1h8.136V9.61h-5.842v3.37h5.233v2.024h-5.233v3.476h5.842v2.115Z"/></g><defs><clipPath id="a"><path fill="#fff" d="M37.28 0h90.16v28H37.28z"/></clipPath></defs></svg>