<svg xmlns="http://www.w3.org/2000/svg" width="29" height="29" fill="none"><path fill="url(#a)" d="M16.323 14.865a1.823 1.823 0 1 1 3.646 0 1.823 1.823 0 0 1-3.646 0Z"/><path fill="url(#b)" d="M9.031 14.865a1.823 1.823 0 1 1 3.646 0 1.823 1.823 0 0 1-3.646 0Z"/><path stroke="url(#c)" stroke-linecap="round" stroke-linejoin="round" stroke-width="2.188" d="M4.292 14.5a5.833 5.833 0 0 1 5.833-5.833H14.5M4.292 14.5a2.917 2.917 0 0 0-2.917 2.917v1.458a2.917 2.917 0 0 0 2.917 2.917m0-7.292v7.292M14.5 8.667h4.375a5.833 5.833 0 0 1 5.833 5.833M14.5 8.667V5.75M4.292 21.792a5.833 5.833 0 0 0 5.833 5.833h8.75a5.833 5.833 0 0 0 5.833-5.833m0 0a2.917 2.917 0 0 0 2.917-2.917v-1.458a2.917 2.917 0 0 0-2.917-2.917m0 7.292V14.5m-5.833 7.292h-8.75M14.5 5.75a2.188 2.188 0 1 1 0-4.375 2.188 2.188 0 0 1 0 4.375Zm13.125-1.823c-1.458.365-2.188 1.094-2.552 2.552-.365-1.458-1.094-2.187-2.552-2.552 1.458-.365 2.187-1.094 2.552-2.552.364 1.458 1.094 2.188 2.552 2.552Z"/><defs><linearGradient id="a" x1="18.073" x2="17.949" y1="13.042" y2="16.684" gradientUnits="userSpaceOnUse"><stop stop-color="#2A71F7"/><stop offset="1" stop-color="#092863"/></linearGradient><linearGradient id="b" x1="10.781" x2="10.658" y1="13.042" y2="16.684" gradientUnits="userSpaceOnUse"><stop stop-color="#2A71F7"/><stop offset="1" stop-color="#092863"/></linearGradient><linearGradient id="c" x1="13.975" x2="13.085" y1="1.375" y2="27.598" gradientUnits="userSpaceOnUse"><stop stop-color="#2A71F7"/><stop offset="1" stop-color="#092863"/></linearGradient></defs></svg>