<svg xmlns="http://www.w3.org/2000/svg" width="29" height="31" fill="none"><path stroke="url(#a)" stroke-linecap="round" stroke-linejoin="round" stroke-width="2.188" d="M8.667 25.25v-4.375m5.833-2.917v7.292m5.833 0V15.042M6.48 15.77l2.136-2.492s1.528-2.378 3.624-1.997c2.903.528 3.881 1.598 5.968-.489l.314-.314m7.99-4.7c1.114 1.534 1.114 3.721 1.114 8.096v5.25c0 4.375 0 6.562-1.114 8.095a5.84 5.84 0 0 1-1.29 1.291c-1.534 1.114-3.721 1.114-8.096 1.114h-5.25c-4.375 0-6.562 0-8.095-1.114a5.836 5.836 0 0 1-1.29-1.29c-1.115-1.534-1.115-3.721-1.115-8.096v-5.25c0-4.375 0-6.562 1.114-8.095.36-.496.795-.931 1.29-1.29 1.534-1.115 3.72-1.115 8.096-1.115h3.25"/><path stroke="url(#b)" stroke-linecap="round" stroke-linejoin="round" d="M21.552 6.104c.365-1.458 1.094-2.187 2.552-2.552-1.458-.365-2.187-1.094-2.552-2.552-.364 1.458-1.094 2.188-2.552 2.552 1.458.365 2.188 1.094 2.552 2.552Z"/><defs><linearGradient id="a" x1="13.975" x2="13.085" y1="3.375" y2="29.598" gradientUnits="userSpaceOnUse"><stop stop-color="#2A71F7"/><stop offset="1" stop-color="#092863"/></linearGradient><linearGradient id="b" x1="21.45" x2="21.277" y1="1" y2="6.099" gradientUnits="userSpaceOnUse"><stop stop-color="#2A71F7"/><stop offset="1" stop-color="#092863"/></linearGradient></defs></svg>