<svg xmlns="http://www.w3.org/2000/svg" width="34" height="34" fill="none"><path fill="url(#a)" d="M17 33.406c9.06 0 16.406-7.345 16.406-16.406C33.406 7.94 26.061.594 17 .594 7.94.594.594 7.939.594 17c0 9.06 7.345 16.406 16.406 16.406Z"/><path fill="url(#b)" d="M17 29.89c7.12 0 12.89-5.77 12.89-12.89 0-7.12-5.77-12.89-12.89-12.89C9.88 4.11 4.11 9.88 4.11 17c0 7.12 5.77 12.89 12.89 12.89Z"/><path fill="url(#c)" d="M17 26.375a9.375 9.375 0 1 0 0-18.75 9.375 9.375 0 1 0 0 18.75Z"/><path fill="url(#d)" d="M17 22.86a5.86 5.86 0 1 0 0-11.72 5.86 5.86 0 0 0 0 11.72Z"/><path fill="url(#e)" d="M27.291 6.708a1.172 1.172 0 0 0-1.658 0l-9.461 9.463a1.172 1.172 0 1 0 1.656 1.657l9.463-9.461a1.172 1.172 0 0 0 0-1.659Z"/><path fill="url(#f)" d="M26.375 9.969a2.344 2.344 0 0 1-2.344-2.344V5.766a2.326 2.326 0 0 1 .687-1.657l2.595-2.596a1.758 1.758 0 0 1 2.812.457l.633 1.266 1.268.633a1.757 1.757 0 0 1 .456 2.813l-2.591 2.6a2.326 2.326 0 0 1-1.657.687h-1.859Z"/><defs><linearGradient id="a" x1="5.4" x2="28.6" y1="5.4" y2="28.6" gradientUnits="userSpaceOnUse"><stop stop-color="#E85155"/><stop offset="1" stop-color="#C21D2C"/></linearGradient><linearGradient id="b" x1="7.885" x2="26.115" y1="7.885" y2="26.115" gradientUnits="userSpaceOnUse"><stop stop-color="#fff"/><stop offset="1" stop-color="#DADFE0"/></linearGradient><linearGradient id="c" x1="10.371" x2="23.629" y1="10.371" y2="23.629" gradientUnits="userSpaceOnUse"><stop stop-color="#E85155"/><stop offset="1" stop-color="#C21D2C"/></linearGradient><linearGradient id="d" x1="12.856" x2="21.144" y1="12.856" y2="21.144" gradientUnits="userSpaceOnUse"><stop stop-color="#fff"/><stop offset="1" stop-color="#DADFE0"/></linearGradient><linearGradient id="e" x1="24.743" x2="16.831" y1="9.257" y2="17.169" gradientUnits="userSpaceOnUse"><stop stop-color="#3E4154"/><stop offset="1" stop-color="#1B2129"/></linearGradient><linearGradient id="f" x1="25.345" x2="30.519" y1="3.481" y2="8.655" gradientUnits="userSpaceOnUse"><stop stop-color="#FED200"/><stop offset="1" stop-color="#F59815"/></linearGradient></defs></svg>