<svg xmlns="http://www.w3.org/2000/svg" width="24" height="30" fill="none"><path fill="url(#a)" fill-rule="evenodd" d="M22.988 19.39c-.247 5.889-5.097 10.588-11.047 10.588C5.834 29.978.882 24.86.882 18.919c0-.794-.014-2.381 1.177-5.059.712-1.602 1.16-2.609 1.412-3.53.138-.505.408-1.308 1.176 0 .453.773.47 1.883.47 1.883S6.804 10.92 7.942 8.45c1.668-3.623.337-5.789-.117-7.295-.158-.52-.257-1.457.823-1.058 1.1.406 4.009 2.442 5.53 4.588 2.17 3.063 2.94 6 2.94 6s.695-.863.942-1.765c.278-1.019.282-2.028 1.176-.941.85 1.034 2.113 2.976 2.824 4.824 1.29 3.354.93 6.587.93 6.587Z" clip-rule="evenodd"/><path fill="#FC9502" fill-rule="evenodd" d="M11.941 29.978a7.647 7.647 0 0 1-7.647-7.647c0-2.549 1.027-4.096 3.164-6.194 1.369-1.343 2.65-2.993 3.194-4.117.107-.221.351-1.374 1.292-.024.493.708 1.266 1.966 1.762 3.04a13.36 13.36 0 0 1 1.059 3.648s.837-.494 1.412-1.765c.185-.41.559-1.96 1.605-.41.767 1.138 1.821 3.184 1.806 5.822a7.647 7.647 0 0 1-7.647 7.647Z" clip-rule="evenodd"/><path fill="#FCE202" fill-rule="evenodd" d="M12.059 21.625c1.088 0 1.088 2.015 2.47 4.706.92 1.791-.456 3.647-2.47 3.647C10.045 29.978 9 28.345 9 26.33s1.97-4.706 3.059-4.706Z" clip-rule="evenodd"/><defs><linearGradient id="a" x1="11.958" x2="11.958" y1="30" y2=".022" gradientUnits="userSpaceOnUse"><stop stop-color="#FF4C0D"/><stop offset="1" stop-color="#FC9502"/></linearGradient></defs></svg>