<svg xmlns="http://www.w3.org/2000/svg" width="26" height="25" fill="none"><path fill="url(#a)" fill-rule="evenodd" d="M9.745.212A10.62 10.62 0 0 1 11.859 0C17.7 0 22.436 4.735 22.436 10.577c0 .114-.002.227-.006.34l1.921 2.547c.49.65.735.975.832 1.222a1.923 1.923 0 0 1-1.27 2.55c-.256.072-.663.072-1.477.072v1.025c0 1.443 0 2.164-.367 2.67a1.925 1.925 0 0 1-.426.425c-.505.367-1.227.367-2.669.367h-1.666c0 1.198 0 1.797-.258 2.243a1.922 1.922 0 0 1-.704.704C15.9 25 15.301 25 14.103 25h-1.667c-1.442 0-2.163 0-2.669-.367a1.924 1.924 0 0 1-.425-.426c-.368-.505-.368-1.226-.368-2.669V18.59H5.206l-.849.849a2.244 2.244 0 1 1-1.36-1.36l.905-.905c.222-.223.333-.333.47-.403a.96.96 0 0 1 .139-.057c.144-.047.301-.047.615-.047h3.848V13.46H5.605a2.886 2.886 0 1 1 0-1.922h3.37V8.333h-3.85c-.314 0-.47 0-.615-.047a.96.96 0 0 1-.14-.057c-.136-.07-.247-.18-.469-.403l-.905-.905a2.244 2.244 0 1 1 1.36-1.36l.849.85h3.768V1.153c0-.457.322-.851.77-.942Zm1.794 9.083a2.885 2.885 0 1 1 5.769 0 2.885 2.885 0 0 1-5.77 0Z" clip-rule="evenodd"/><defs><linearGradient id="a" x1="12.151" x2="11.314" y1="0" y2="24.975" gradientUnits="userSpaceOnUse"><stop stop-color="#2A71F7"/><stop offset="1" stop-color="#092863"/></linearGradient></defs></svg>