<svg xmlns="http://www.w3.org/2000/svg" width="22" height="25" fill="none"><path fill="url(#a)" d="M6.478 24.412c1.214.292 2.896.588 4.742.588 1.847 0 3.528-.296 4.743-.588.806-.256 1.21-.384 1.525-.603.474-.328.824-.806.993-1.357.113-.367.113-.79.113-1.636v-3.59c0-.311 0-.467-.08-.558a.31.31 0 0 0-.09-.072c-.107-.056-.265-.019-.58.056-1.737.411-4.078.654-6.624.654-2.545 0-4.887-.243-6.623-.654-.316-.075-.473-.112-.58-.056a.31.31 0 0 0-.09.072c-.08.09-.08.247-.08.559v3.589c0 .846 0 1.269.113 1.637.169.55.518 1.028.992 1.356.317.22.72.347 1.526.603Z"/><path fill="url(#b)" d="M11.22 9.72c-2.545 0-4.886.244-6.623.655-.862.204-1.63.462-2.204.784-.549.307-1.11.785-1.11 1.446 0 .662.561 1.14 1.11 1.447.401.225.897.419 1.454.585.24.071.49.137.75.199 1.737.411 4.078.655 6.623.655 2.546 0 4.888-.244 6.624-.655.26-.062.51-.128.75-.2a7.246 7.246 0 0 0 1.454-.584c.549-.307 1.11-.785 1.11-1.447 0-.661-.562-1.14-1.11-1.446-.574-.322-1.342-.58-2.204-.784-1.736-.411-4.078-.655-6.624-.655Z"/><path fill="url(#c)" d="M4.139.728a.962.962 0 0 0-1.866 0c-.133.533-.309.837-.509 1.036-.2.2-.503.376-1.036.509a.962.962 0 0 0 0 1.866c.533.133.837.308 1.036.508.2.2.376.504.509 1.036a.962.962 0 0 0 1.866 0c.133-.532.308-.836.508-1.036.2-.2.504-.375 1.036-.508a.962.962 0 0 0 0-1.866c-.532-.133-.836-.309-1.036-.509-.2-.2-.375-.503-.508-1.036Z"/><path fill="url(#d)" d="M19.527.729a.962.962 0 0 0-1.866 0c-.133.532-.309.836-.509 1.035-.2.2-.503.376-1.036.509a.962.962 0 0 0 0 1.866c.533.133.837.309 1.036.508.2.2.376.504.509 1.036a.962.962 0 0 0 1.866 0c.133-.532.308-.836.508-1.036.2-.2.504-.375 1.036-.508a.962.962 0 0 0 0-1.866c-.532-.133-.836-.309-1.036-.509-.2-.2-.375-.503-.508-1.035Z"/><path fill="url(#e)" d="M11.833 3.293a.962.962 0 0 0-1.866 0c-.133.533-.309.836-.509 1.036-.2.2-.503.375-1.036.508a.962.962 0 0 0 0 1.867c.533.133.836.308 1.036.508.2.2.376.503.509 1.036a.962.962 0 0 0 1.866 0c.133-.533.308-.836.508-1.036.2-.2.504-.375 1.036-.508a.962.962 0 0 0 0-1.867c-.532-.133-.836-.308-1.036-.508-.2-.2-.375-.503-.508-1.036Z"/><defs><linearGradient id="a" x1="10.925" x2="10.762" y1="16.569" y2="24.998" gradientUnits="userSpaceOnUse"><stop stop-color="#2A71F7"/><stop offset="1" stop-color="#092863"/></linearGradient><linearGradient id="b" x1="10.823" x2="10.766" y1="9.72" y2="15.491" gradientUnits="userSpaceOnUse"><stop stop-color="#2A71F7"/><stop offset="1" stop-color="#092863"/></linearGradient><linearGradient id="c" x1="3.078" x2="2.86" y1="0" y2="6.405" gradientUnits="userSpaceOnUse"><stop stop-color="#2A71F7"/><stop offset="1" stop-color="#092863"/></linearGradient><linearGradient id="d" x1="18.465" x2="18.248" y1="0" y2="6.405" gradientUnits="userSpaceOnUse"><stop stop-color="#2A71F7"/><stop offset="1" stop-color="#092863"/></linearGradient><linearGradient id="e" x1="10.771" x2="10.554" y1="2.565" y2="8.97" gradientUnits="userSpaceOnUse"><stop stop-color="#2A71F7"/><stop offset="1" stop-color="#092863"/></linearGradient></defs></svg>