<svg xmlns="http://www.w3.org/2000/svg" width="26" height="26" fill="none"><path fill="url(#a)" fill-rule="evenodd" d="M14.539.5H11.46C6.894.5 4.61.5 3.01 1.663A6.09 6.09 0 0 0 1.662 3.01C.5 4.611.5 6.895.5 11.461v3.078c0 4.566 0 6.85 1.163 8.45.376.518.83.972 1.347 1.348C4.611 25.5 6.895 25.5 11.461 25.5h3.078c4.566 0 6.85 0 8.45-1.163.518-.376.972-.83 1.348-1.347 1.163-1.601 1.163-3.885 1.163-8.451V11.46c0-4.566 0-6.85-1.163-8.45a6.087 6.087 0 0 0-1.347-1.348C21.389.5 19.105.5 14.539.5Zm-8.91 5.449c0-.531.43-.962.96-.962H19.41a.962.962 0 0 1 0 1.923H6.59a.962.962 0 0 1-.962-.961Zm2.328 8.372c.192.264.713.264 1.756.264h1.15l.694 5.476a1.455 1.455 0 0 0 2.887 0l.693-5.476h1.15c1.044 0 1.566 0 1.758-.264a.64.64 0 0 0 .114-.277c.051-.322-.318-.691-1.055-1.429l-3.287-3.287c-.34-.34-.51-.51-.716-.542a.64.64 0 0 0-.2 0c-.206.032-.376.202-.716.542l-3.288 3.287c-.737.738-1.106 1.107-1.055 1.43.016.1.055.194.115.276Z" clip-rule="evenodd"/><defs><linearGradient id="a" x1="12.5" x2="11.652" y1=".5" y2="25.474" gradientUnits="userSpaceOnUse"><stop stop-color="#2A71F7"/><stop offset="1" stop-color="#092863"/></linearGradient></defs></svg>