<svg xmlns="http://www.w3.org/2000/svg" width="51" height="51" fill="none"><circle cx="25.316" cy="25.316" r="25" fill="#385EA5"/><g fill-rule="evenodd" clip-path="url(#a)" clip-rule="evenodd"><path fill="#fff" d="M13.935 27.242h-.086c.776 5.52 5.346 9.66 10.866 10.004h1.638c5.433-.345 9.917-4.484 10.78-10.004h-.086c-.863 0-1.639.087-2.501.26a9.24 9.24 0 0 1-9.055 7.243c-4.312 0-8.107-3.018-8.969-7.33-.862-.086-1.725-.173-2.587-.173ZM25.49 13.79h-.775c-5.52.43-10.09 4.57-10.866 10.089h.086c.862 0 1.638-.086 2.5-.259.95-4.225 4.658-7.244 8.97-7.244 4.311 0 8.106 3.019 8.968 7.244.776.173 1.639.259 2.501.259h.087c-.69-5.52-5.175-9.659-10.694-10.004h-.345c-.172-.086-.345-.086-.431-.086Z"/><path fill="#95AEEF" d="M35.063 25.518a14.352 14.352 0 0 1-9.573-5.606 14.352 14.352 0 0 1-9.572 5.606c3.794.517 7.33 2.587 9.572 5.691 2.329-3.104 5.778-5.174 9.573-5.691Z"/></g><defs><clipPath id="a"><path fill="#fff" d="M13.616 13.616h23.75v23.75h-23.75z"/></clipPath></defs></svg>