<svg xmlns="http://www.w3.org/2000/svg" width="65" height="65" fill="none"><circle cx="32.579" cy="32.579" r="32" fill="#0D3132"/><path fill="#129B9C" fill-rule="evenodd" d="M33.303 47.33c6.319 0 11.922-4.173 13.71-10.253-.715.119-1.55.119-2.265.119a15.48 15.48 0 0 1-11.444-5.007 15.479 15.479 0 0 1-11.445 5.007c-.715 0-1.55 0-2.265-.12 1.907 6.2 7.391 10.253 13.71 10.253Z" clip-rule="evenodd"/><path fill="#69C5C5" fill-rule="evenodd" d="M44.748 34.454c.954 0 1.908-.12 2.861-.358v-1.073c0-6.318-4.172-11.921-10.252-13.71.12.716.12 1.55.12 2.265 0 3.1-.955 6.08-2.504 8.584 2.503 2.623 5.96 4.292 9.775 4.292Zm-22.888 0c3.814 0 7.271-1.67 9.656-4.411a15.686 15.686 0 0 1-2.504-8.465c0-.715 0-1.55.12-2.265-5.961 1.789-10.134 7.392-10.134 13.71v1.073c.954.239 1.907.358 2.861.358Z" clip-rule="evenodd"/><path fill="#129B9C" fill-rule="evenodd" d="M33.304 27.54c.953-1.789 1.43-3.815 1.43-5.961 0-.954-.119-1.908-.357-2.861H32.23a11.759 11.759 0 0 0-.358 2.86c0 2.147.596 4.173 1.43 5.962Z" clip-rule="evenodd"/></svg>