<svg xmlns="http://www.w3.org/2000/svg" width="105" height="105" fill="none"><circle cx="52.631" cy="52.632" r="52" fill="#5959E7"/><g fill="#fff" clip-path="url(#a)"><path d="M65.293 37.135a4.536 4.536 0 1 0-6.998-5.696c-.215.215-25.12 30.91-25.29 31.165a4.536 4.536 0 1 0 6.998 5.696c.216-.216 25.122-30.91 25.29-31.165Zm5.487 16.712a4.536 4.536 0 1 0-6.996-5.698c-.218.217-17.137 21.143-17.307 21.4a4.536 4.536 0 1 0 6.996 5.698c.218-.217 17.137-21.142 17.307-21.4Zm5.352-9.23a4.536 4.536 0 1 0 0-9.072 4.536 4.536 0 0 0 0 9.072Zm-38.034-.005a4.536 4.536 0 1 0 0-9.072 4.536 4.536 0 0 0 0 9.072Z"/></g><defs><clipPath id="a"><path fill="#fff" d="M31.259 29.284h49.4v49.4h-49.4z"/></clipPath></defs></svg>