<svg xmlns="http://www.w3.org/2000/svg" width="85" height="85" fill="none"><circle cx="42.105" cy="42.105" r="42" fill="url(#a)"/><g fill-rule="evenodd" clip-path="url(#b)" clip-rule="evenodd"><path fill="#FAD5CE" d="M53.404 57.093V43.998L42.086 50.53v-8.015l11.318-6.56 6.977 4.029v13.095l-6.977 4.014Z"/><path fill="#fff" d="M29.547 47.5V35.955l9.98-5.758 4.983 2.88 6.949-4.015-11.932-6.893L22.57 31.94v19.573l16.957 9.772v-8.028l-9.98-5.758Z"/><path fill="#fff" d="m42.083 50.525 11.321-6.527 6.963-4.028-6.963-4.014-11.321 6.554v8.015Z"/><path fill="#FAD5CE" d="M22.57 31.941v19.573l16.957 9.773v-8.029l-9.98-5.758V35.956L22.57 31.94Z"/></g><defs><linearGradient id="a" x1="10.353" x2="73.412" y1="2.47" y2="82.476" gradientUnits="userSpaceOnUse"><stop stop-color="#DC2400"/><stop offset="1" stop-color="#BD2304"/></linearGradient><clipPath id="b"><path fill="#fff" d="M22.05 22.05h39.118v39.9H22.05z"/></clipPath></defs></svg>