<svg xmlns="http://www.w3.org/2000/svg" width="85" height="85" fill="none"><circle cx="42.105" cy="42.105" r="42" fill="#007DFC"/><g fill="#fff" clip-path="url(#a)"><path d="M54.98 42.025c0 8.158-4.006 15.327-10.186 19.777 9.69-1.385 17.157-9.74 17.157-19.777 0-10.086-7.466-18.393-17.157-19.777 6.13 4.4 10.185 11.619 10.185 19.777Z"/><path d="M35.993 61.011c1.384.445 2.769.742 4.252.84 5.39-4.944 8.752-12.014 8.752-19.875 0-7.862-3.412-14.932-8.752-19.827a23.128 23.128 0 0 0-4.252.84c4.549 4.994 7.318 11.67 7.318 19.036 0 7.367-2.77 13.992-7.318 18.986Z"/><path d="M22.05 42.025a19.786 19.786 0 0 0 8.8 16.514c4.4-4.153 7.17-10.037 7.17-16.514 0-6.526-2.77-12.41-7.17-16.513-5.34 3.56-8.8 9.591-8.8 16.513Z"/></g><defs><clipPath id="a"><path fill="#fff" d="M22.05 22.05h39.9v39.9h-39.9z"/></clipPath></defs></svg>