<svg xmlns="http://www.w3.org/2000/svg" width="51" height="51" fill="none"><circle cx="25.158" cy="25.158" r="24.604" fill="url(#a)" stroke="#669AFD" stroke-width=".792"/><path fill="url(#b)" d="M17.216 36.697c1.888.687 4.441.09 4.893-1.923 1.447-4.697-2.63-9.934-1.079-15.132 1.228-2.721 4.355-2.656 5.41 1.05 1.506 3.538.134 15.99 6.511 12.772 2.312-1.227 4.411-4.24 3.07-6.092-.93-1.03-2.22.289-4.034-.65-3.352-1.945-2.47-9.482-8.835-10.109-2.016.044-4.788 1.223-8.292 8.119-.747 2.013-3.353 8.522 2.356 11.965Z"/><path fill="#fff" d="M35.396 13.429a.275.275 0 0 0-.534 0c-.084.335-.203.56-.363.72-.16.16-.385.28-.72.363a.275.275 0 0 0 0 .534c.335.084.56.203.72.363.16.16.279.385.363.72a.275.275 0 0 0 .534 0c.084-.335.203-.56.363-.72.16-.16.385-.28.72-.363a.275.275 0 0 0 0-.534c-.335-.084-.56-.203-.72-.363-.16-.16-.28-.385-.363-.72Zm-2.568 1.467a.275.275 0 0 0-.534 0c-.162.65-.4 1.11-.736 1.447-.337.337-.798.574-1.448.737a.275.275 0 0 0 0 .534c.65.162 1.11.4 1.448.736.337.337.574.798.736 1.448a.275.275 0 0 0 .534 0c.162-.65.4-1.11.737-1.448.337-.337.797-.574 1.447-.736a.275.275 0 0 0 0-.534c-.65-.163-1.11-.4-1.447-.737-.338-.337-.575-.797-.737-1.447Z"/><defs><linearGradient id="a" x1="24.158" x2="22.462" y1=".158" y2="50.106" gradientUnits="userSpaceOnUse"><stop stop-color="#091B3D"/><stop offset="1" stop-color="#1362F8"/></linearGradient><linearGradient id="b" x1="25.152" x2="25.029" y1="24.756" y2="36.97" gradientUnits="userSpaceOnUse"><stop stop-color="#fff"/><stop offset="1" stop-color="#fff" stop-opacity=".6"/></linearGradient></defs></svg>