<svg xmlns="http://www.w3.org/2000/svg" width="293" height="388" fill="none"><path fill="#006694" fill-rule="evenodd" d="M79.101 36.98 106.844 4.9a.404.404 0 0 1 .565-.04l41.095 35.536a.41.41 0 0 1 .039.57l-27.742 32.08a.409.409 0 0 1-.57.04l-41.09-35.535a.4.4 0 0 1-.039-.57Z" clip-rule="evenodd"/><path fill="#005C85" fill-rule="evenodd" d="m97.511 21.878 19.368-8.831 31.625 27.349a.407.407 0 0 1 .039.57l-27.742 32.08a.408.408 0 0 1-.57.04l-1.967-1.704-21.574-47.31a1.66 1.66 0 0 1 .82-2.194h.001Z" clip-rule="evenodd"/><path fill="#60B7FF" fill-rule="evenodd" d="m98.03 23.018 38.593-17.594a.402.402 0 0 1 .53.2l22.537 49.43a.405.405 0 0 1 .015.309.397.397 0 0 1-.208.227l-38.593 17.594a.41.41 0 0 1-.536-.2l-22.537-49.43a.407.407 0 0 1 .2-.535v-.001Z" clip-rule="evenodd"/><path fill="#56A5E6" fill-rule="evenodd" d="M120.938 16.963h21.386l17.366 38.091a.404.404 0 0 1-.194.536l-38.593 17.594a.41.41 0 0 1-.536-.2l-1.083-2.383V18.622a1.661 1.661 0 0 1 1.02-1.532 1.68 1.68 0 0 1 .634-.127Z" clip-rule="evenodd"/><path fill="#EAF6FF" fill-rule="evenodd" d="M120.938 18.218h31.586l11.231 11.231v43.496a.404.404 0 0 1-.404.405h-42.413a.402.402 0 0 1-.399-.405V18.622a.408.408 0 0 1 .399-.405Z" clip-rule="evenodd"/><path fill="#BEC7CF" fill-rule="evenodd" d="M152.523 18.218v8.71a2.529 2.529 0 0 0 2.52 2.52h8.711l-11.231-11.23Z" clip-rule="evenodd"/><path fill="#FFBA57" fill-rule="evenodd" d="M130.653 56.52h33.143a6.36 6.36 0 0 1 6.339 6.34v26.037a6.355 6.355 0 0 1-6.339 6.34h-58.759a6.358 6.358 0 0 1-6.34-6.34V50.18a5.22 5.22 0 0 1 5.211-5.205h11.067c1.836 0 3.084 1.129 4.395 2.406l6.888 6.733c1.311 1.283 2.56 2.406 4.395 2.406Z" clip-rule="evenodd"/><path fill="#BEC7CF" d="M127.442 29.295a1.41 1.41 0 0 1-1.391-1.408 1.41 1.41 0 0 1 1.391-1.408h18.621a1.406 1.406 0 0 1 1.392 1.408 1.407 1.407 0 0 1-1.392 1.408h-18.621Zm0 20.547a1.407 1.407 0 0 1 0-2.816h29.408a1.41 1.41 0 0 1 .996 2.404 1.41 1.41 0 0 1-.996.412h-29.408Zm0-6.847a1.41 1.41 0 0 1-1.391-1.408 1.41 1.41 0 0 1 1.391-1.409h29.408a1.41 1.41 0 0 1 1.007 2.41 1.413 1.413 0 0 1-1.007.407h-29.408Zm0-6.847a1.408 1.408 0 1 1 0-2.817h29.408a1.408 1.408 0 1 1 0 2.816h-29.408Z"/><path fill="#CF9646" d="M107.642 78.236a1.408 1.408 0 1 1 0-2.817h13.734a1.408 1.408 0 1 1 0 2.817h-13.734Zm0 9.618a1.408 1.408 0 1 1 0-2.816h53.547a1.407 1.407 0 0 1 0 2.816h-53.547Z"/><path fill="#E6A74E" fill-rule="evenodd" d="M163.755 57.586a6.35 6.35 0 0 1 2.834 5.273v26.038a6.36 6.36 0 0 1-6.34 6.34h3.546a6.355 6.355 0 0 0 6.34-6.34V62.86a6.26 6.26 0 0 0-.485-2.423 6.368 6.368 0 0 0-5.855-3.917h-3.546c1.248 0 2.469.371 3.506 1.067Zm-37.498-3.473-5.718-5.587-1.169-1.146c-1.311-1.277-2.56-2.406-4.396-2.406h-3.54c1.83 0 3.078 1.129 4.39 2.406l4.715 4.607 2.178 2.126c1.305 1.283 2.554 2.406 4.39 2.406h3.546c-1.836 0-3.085-1.123-4.396-2.406Z" clip-rule="evenodd"/><path fill="#25C73B" fill-rule="evenodd" d="M166.998 75.237a12.003 12.003 0 0 0 8.487-20.488 12.004 12.004 0 0 0-18.465 1.819 12 12 0 0 0-2.023 6.668 12.022 12.022 0 0 0 12.001 12Z" clip-rule="evenodd"/><path fill="#EAF6FF" d="M159.826 64.866a1.4 1.4 0 0 1-.428-1 1.395 1.395 0 0 1 .411-1.007 1.417 1.417 0 0 1 1.006-.414 1.402 1.402 0 0 1 1.001.426l2.703 2.702 7.656-7.656a1.408 1.408 0 0 1 1.99 1.99l-8.654 8.654a1.412 1.412 0 0 1-1.99 0l-3.695-3.695Z"/><path fill="#21B335" fill-rule="evenodd" d="M165.979 51.274a12.003 12.003 0 0 1 0 23.923c.205.017.405.028.61.034a11.864 11.864 0 0 0 3.546-.41 12.004 12.004 0 0 0 8.761-13.167 12.002 12.002 0 0 0-11.897-10.42c-.342 0-.684.011-1.02.04Z" clip-rule="evenodd"/><path fill="#D3DDE6" fill-rule="evenodd" d="M161.189 29.45v23.278c.812-.449 1.673-.8 2.566-1.05V29.45h-2.566Z" clip-rule="evenodd"/><path fill="#999" d="M104.876 112v-8.16h2.796c2.556 0 4.14 1.536 4.14 4.092 0 2.556-1.584 4.068-4.14 4.068h-2.796Zm2.796-1.092c1.74 0 2.772-1.104 2.772-2.976 0-1.896-1.032-3-2.772-3h-1.452v5.976h1.452Zm8.198 1.248c-1.86 0-2.988-1.26-2.988-3.348 0-2.172 1.164-3.372 2.988-3.372 1.86 0 2.988 1.284 2.988 3.372 0 2.16-1.164 3.348-2.988 3.348Zm0-1.08c1.092 0 1.68-.792 1.68-2.268 0-1.464-.6-2.292-1.68-2.292s-1.68.804-1.68 2.292c0 1.452.6 2.268 1.68 2.268Zm9.65-3.24h-1.284c-.156-.912-.744-1.32-1.488-1.32-1.068 0-1.644.816-1.644 2.292 0 1.452.6 2.28 1.68 2.28.768 0 1.308-.42 1.5-1.236h1.272c-.276 1.596-1.38 2.304-2.796 2.304-1.848 0-2.964-1.272-2.964-3.348 0-2.172 1.14-3.372 2.952-3.372 1.428 0 2.556.804 2.772 2.4Zm5.265 1.512v-3.744h1.272V112h-1.272v-.864c-.42.684-1.092 1.02-1.908 1.02-1.308 0-2.124-.768-2.124-2.28v-4.272h1.284v4.008c0 .924.384 1.476 1.236 1.476.936 0 1.512-.852 1.512-1.74ZM133.62 112v-6.396h1.284v.816c.408-.66 1.044-.984 1.8-.984.852 0 1.488.372 1.8 1.104.42-.732 1.116-1.104 1.956-1.104 1.26 0 2.076.78 2.076 2.292V112h-1.284v-4.008c0-.924-.348-1.488-1.14-1.488-.864 0-1.392.852-1.392 1.74V112h-1.284v-4.008c0-.924-.36-1.488-1.14-1.488-.864 0-1.392.852-1.392 1.74V112h-1.284Zm16.152-2.088c-.348 1.488-1.452 2.244-2.952 2.244-1.884 0-3.036-1.26-3.036-3.348 0-2.172 1.152-3.372 2.976-3.372 1.848 0 2.964 1.248 2.964 3.3v.312h-4.632c.072 1.308.684 2.04 1.728 2.04.816 0 1.392-.384 1.608-1.176h1.344Zm-3.012-3.408c-.924 0-1.476.588-1.632 1.668h3.264c-.156-1.08-.72-1.668-1.632-1.668Zm4.25 5.496v-6.396h1.284v.852c.432-.684 1.104-1.02 1.932-1.02 1.332 0 2.16.78 2.16 2.292V112h-1.272v-4.008c0-.924-.408-1.488-1.284-1.488-.96 0-1.536.852-1.536 1.74V112h-1.284Zm7.106-1.908V106.6h-.864v-.996h.864v-1.476h1.284v1.476h1.38v.996h-1.38v3.42c0 .732.204 1.08 1.104 1.08h.252v.936c-.144.072-.444.12-.804.12-1.248 0-1.836-.684-1.836-2.064Zm4.649-2.808c0 1.632 4.092.264 4.092 2.868 0 1.212-1.092 2.004-2.64 2.004s-2.64-.72-2.88-2.244h1.284c.132.804.732 1.248 1.632 1.248.864 0 1.32-.384 1.32-.924 0-1.596-4.032-.252-4.032-2.88 0-.996.78-1.92 2.4-1.92 1.428 0 2.484.66 2.688 2.256h-1.284c-.144-.9-.648-1.236-1.464-1.236-.708 0-1.116.348-1.116.828Z"/><path stroke="#22252F" d="M138.118 239v29.279m0 0v38.044m0-38.044H37.946c-8.807 0-15.946 7.183-15.946 16.044V315m116.118-46.721h116.151c7.583 0 13.731 6.185 13.731 13.816v24.228M138 120v40"/><g filter="url(#a)"><rect width="243.75" height="65" x="17.625" y="167.5" fill="#05070F" rx="8.125"/><rect width="242.938" height="64.188" x="18.031" y="167.906" stroke="#22252F" stroke-dasharray="4.06 4.06" stroke-width=".813" rx="7.719"/></g><path fill="url(#b)" d="M59.234 183.538h5.078v2.576h5.079v-7.728H44v7.728h5.078v-2.576h5.078v25.761h-5.078v5.153H64.31v-5.153h-5.076v-25.761Z"/><path fill="url(#c)" d="M77.635 190.332a.529.529 0 0 0-.512-.405.528.528 0 0 0-.511.405c-.16.653-.389 1.089-.696 1.4-.307.312-.737.543-1.38.706a.534.534 0 0 0-.4.519c0 .246.165.459.4.519.643.163 1.073.394 1.38.706.307.311.535.748.696 1.4a.53.53 0 0 0 .511.405.529.529 0 0 0 .512-.405c.16-.652.388-1.089.695-1.4.308-.312.737-.543 1.38-.706.235-.06.4-.273.4-.519a.534.534 0 0 0-.4-.519c-.642-.163-1.072-.394-1.38-.706-.307-.311-.535-.747-.695-1.4Z"/><path fill="url(#d)" d="M70.731 193.932a.529.529 0 0 0-.511-.405.529.529 0 0 0-.512.405c-.311 1.264-.765 2.158-1.41 2.813-.647.656-1.528 1.116-2.774 1.432a.534.534 0 0 0-.399.519c0 .245.165.459.4.519 1.245.316 2.126.776 2.772 1.431.646.656 1.1 1.55 1.411 2.814a.53.53 0 0 0 .512.405.529.529 0 0 0 .511-.405c.311-1.264.765-2.158 1.411-2.814.646-.655 1.528-1.115 2.773-1.431.235-.06.4-.274.4-.519a.534.534 0 0 0-.4-.519c-1.245-.316-2.127-.776-2.773-1.432-.646-.655-1.1-1.549-1.411-2.813Z"/><path fill="url(#e)" d="M102.515 199.479h-2.608c-.317-1.852-1.511-2.681-3.023-2.681-2.169 0-3.339 1.658-3.339 4.656 0 2.949 1.219 4.631 3.412 4.631 1.56 0 2.657-.853 3.047-2.511h2.584c-.56 3.242-2.803 4.68-5.68 4.68-3.753 0-6.02-2.583-6.02-6.8 0-4.412 2.316-6.85 5.996-6.85 2.901 0 5.192 1.633 5.631 4.875Zm2.504 8.459v-17.551h2.608v17.551h-2.608Zm8.222-8.751h-2.608c.414-2.876 2.389-4.583 5.63-4.583 3.535 0 5.29 2.072 5.29 5.095v5.07c0 1.56.146 2.462.439 3.169h-2.73c-.195-.488-.269-1.171-.293-1.902-1.097 1.536-2.779 2.218-4.339 2.218-2.632 0-4.436-1.243-4.436-3.729 0-1.779.975-3.096 2.925-3.754 1.731-.585 3.486-.731 5.826-.755v-.293c0-1.901-.878-2.925-2.877-2.925-1.681 0-2.583.926-2.827 2.389Zm-.414 5.24c0 1.097.901 1.78 2.291 1.78a3.803 3.803 0 0 0 3.827-3.827v-.585c-4.997.049-6.118 1.146-6.118 2.632Zm14.068-6.069c0 3.315 8.312.536 8.312 5.826 0 2.462-2.218 4.07-5.362 4.07-3.145 0-5.363-1.462-5.85-4.558h2.608c.268 1.633 1.487 2.535 3.315 2.535 1.755 0 2.681-.78 2.681-1.877 0-3.242-8.19-.512-8.19-5.85 0-2.023 1.584-3.9 4.875-3.9 2.901 0 5.046 1.341 5.46 4.583h-2.608c-.293-1.828-1.316-2.511-2.974-2.511-1.438 0-2.267.707-2.267 1.682Zm12.759 0c0 3.315 8.312.536 8.312 5.826 0 2.462-2.218 4.07-5.363 4.07-3.144 0-5.362-1.462-5.85-4.558h2.608c.269 1.633 1.487 2.535 3.315 2.535 1.755 0 2.682-.78 2.682-1.877 0-3.242-8.19-.512-8.19-5.85 0-2.023 1.584-3.9 4.875-3.9 2.9 0 5.045 1.341 5.46 4.583h-2.608c-.293-1.828-1.317-2.511-2.974-2.511-1.438 0-2.267.707-2.267 1.682Zm10.687-5.021v-2.95h2.608v2.95h-2.608Zm0 14.601v-12.992h2.608v12.992h-2.608Zm4.298-10.994v-1.998h1.706v-.683c0-2.827 1.219-4.192 3.656-4.192.658 0 1.17.121 1.414.243v1.755h-.219c-1.804 0-2.243.732-2.243 2.218v.659h2.462v1.998h-2.462v10.994h-2.608v-10.994h-1.706Zm8.36-3.607v-2.95h2.609v2.95h-2.609Zm0 14.601v-12.992h2.609v12.992h-2.609Zm16.735-8.459h-2.608c-.317-1.852-1.511-2.681-3.022-2.681-2.17 0-3.34 1.658-3.34 4.656 0 2.949 1.219 4.631 3.413 4.631 1.56 0 2.657-.853 3.047-2.511h2.583c-.56 3.242-2.803 4.68-5.679 4.68-3.754 0-6.021-2.583-6.021-6.8 0-4.412 2.316-6.85 5.997-6.85 2.9 0 5.191 1.633 5.63 4.875Zm4.966-.292h-2.608c.414-2.876 2.388-4.583 5.63-4.583 3.535 0 5.29 2.072 5.29 5.095v5.07c0 1.56.146 2.462.438 3.169h-2.73c-.195-.488-.268-1.171-.292-1.902-1.097 1.536-2.779 2.218-4.339 2.218-2.632 0-4.436-1.243-4.436-3.729 0-1.779.975-3.096 2.925-3.754 1.73-.585 3.485-.731 5.825-.755v-.293c0-1.901-.877-2.925-2.876-2.925-1.682 0-2.584.926-2.827 2.389Zm-.415 5.24c0 1.097.902 1.78 2.292 1.78a3.802 3.802 0 0 0 3.826-3.827v-.585c-4.996.049-6.118 1.146-6.118 2.632Zm12.338-.365v-7.093h-1.755v-2.023h1.755v-2.999h2.608v2.999h2.804v2.023h-2.804v6.947c0 1.486.415 2.193 2.243 2.193h.512v1.902c-.293.146-.902.243-1.633.243-2.535 0-3.73-1.389-3.73-4.192Zm7.371-10.725v-2.95h2.609v2.95h-2.609Zm0 14.601v-12.992h2.609v12.992h-2.609Zm11.197.316c-3.779 0-6.07-2.559-6.07-6.8 0-4.412 2.365-6.85 6.07-6.85 3.778 0 6.069 2.608 6.069 6.85 0 4.387-2.364 6.8-6.069 6.8Zm0-2.193c2.218 0 3.412-1.609 3.412-4.607 0-2.974-1.219-4.656-3.412-4.656-2.194 0-3.413 1.633-3.413 4.656 0 2.949 1.219 4.607 3.413 4.607Zm8.608 1.877v-12.992h2.608v1.73c.878-1.389 2.243-2.072 3.925-2.072 2.705 0 4.387 1.585 4.387 4.656v8.678h-2.584v-8.142c0-1.877-.828-3.022-2.608-3.022-1.95 0-3.12 1.73-3.12 3.534v7.63h-2.608Z"/><path fill="#fff" fill-rule="evenodd" d="M.47 304h37.24l13.242 13.242v51.281a.481.481 0 0 1-.477.477H.47a.47.47 0 0 1-.47-.477v-64.046a.477.477 0 0 1 .29-.44.47.47 0 0 1 .18-.037Z" clip-rule="evenodd"/><path fill="#BEC7CF" fill-rule="evenodd" d="M37.709 304v10.27a2.978 2.978 0 0 0 2.97 2.97h10.27L37.71 304Z" clip-rule="evenodd"/><path fill="#BEC7CF" d="M8.14 317.06a1.659 1.659 0 0 1 0-3.32h21.953a1.659 1.659 0 0 1 1.162 2.827 1.659 1.659 0 0 1-1.162.493H8.14Zm0 24.225a1.658 1.658 0 0 1-1.66-1.661 1.658 1.658 0 0 1 1.66-1.66h34.67a1.658 1.658 0 0 1 1.66 1.66 1.659 1.659 0 0 1-1.66 1.661H8.14Zm0-8.073a1.659 1.659 0 0 1-1.162-2.828c.307-.31.725-.488 1.162-.493h34.67a1.648 1.648 0 0 1 1.552 1.021 1.656 1.656 0 0 1-.365 1.821 1.66 1.66 0 0 1-1.186.479H8.14Zm0-8.073a1.668 1.668 0 0 1-1.174-.486 1.654 1.654 0 0 1-.487-1.174 1.666 1.666 0 0 1 .487-1.174 1.656 1.656 0 0 1 1.174-.487h34.67a1.65 1.65 0 0 1 1.175.487 1.66 1.66 0 0 1-1.174 2.834H8.14Z"/><path fill="#999" d="M.876 384v-8.16H2.28l3.42 5.328.516.96-.036-6.288h1.344V384H6.12l-3.408-5.304-.528-.996.036 6.3H.876Zm13.982-2.088c-.348 1.488-1.452 2.244-2.952 2.244-1.884 0-3.036-1.26-3.036-3.348 0-2.172 1.152-3.372 2.976-3.372 1.848 0 2.964 1.248 2.964 3.3v.312h-4.632c.072 1.308.684 2.04 1.728 2.04.816 0 1.392-.384 1.608-1.176h1.344Zm-3.012-3.408c-.924 0-1.476.588-1.632 1.668h3.264c-.156-1.08-.72-1.668-1.632-1.668ZM21.595 384l-1.272-4.548-.132-.72-.144.72L18.775 384H17.19l-1.848-6.396h1.38l1.176 4.752.156.72.168-.72 1.344-4.752h1.356l1.356 4.752.144.684.144-.684 1.176-4.752h1.32L23.203 384h-1.608Zm9.124.156c-1.692 0-2.712-1.26-2.712-3.348 0-2.172 1.044-3.372 2.712-3.372.732 0 1.332.3 1.74.888v-2.964h1.284V384H32.46v-.78c-.408.6-1.008.936-1.74.936Zm.168-1.08c1.02 0 1.572-.792 1.572-2.268 0-1.464-.576-2.292-1.572-2.292-1.02 0-1.572.816-1.572 2.292 0 1.452.576 2.268 1.572 2.268Zm7.08 1.08c-1.86 0-2.987-1.26-2.987-3.348 0-2.172 1.164-3.372 2.988-3.372 1.86 0 2.988 1.284 2.988 3.372 0 2.16-1.164 3.348-2.988 3.348Zm0-1.08c1.093 0 1.68-.792 1.68-2.268 0-1.464-.6-2.292-1.68-2.292s-1.68.804-1.68 2.292c0 1.452.6 2.268 1.68 2.268Zm9.65-3.24h-1.283c-.156-.912-.744-1.32-1.488-1.32-1.068 0-1.644.816-1.644 2.292 0 1.452.6 2.28 1.68 2.28.768 0 1.308-.42 1.5-1.236h1.272c-.276 1.596-1.38 2.304-2.796 2.304-1.848 0-2.964-1.272-2.964-3.348 0-2.172 1.14-3.372 2.952-3.372 1.428 0 2.556.804 2.772 2.4Z"/><path fill="#fff" fill-rule="evenodd" d="M121.422 304h37.238l13.242 13.242v51.281a.48.48 0 0 1-.477.477h-50.003a.474.474 0 0 1-.471-.477v-64.046a.475.475 0 0 1 .471-.477Z" clip-rule="evenodd"/><path fill="#BEC7CF" fill-rule="evenodd" d="M158.66 304v10.27a2.98 2.98 0 0 0 2.971 2.97h10.27L158.66 304Z" clip-rule="evenodd"/><path fill="#BEC7CF" d="M129.091 317.06a1.662 1.662 0 0 1-1.162-2.827 1.662 1.662 0 0 1 1.162-.493h21.953a1.66 1.66 0 0 1 0 3.32h-21.953Zm0 24.225a1.658 1.658 0 0 1-1.66-1.661 1.66 1.66 0 0 1 1.66-1.66h34.671a1.66 1.66 0 0 1 0 3.321h-34.671Zm0-8.073a1.662 1.662 0 0 1 0-3.321h34.671a1.678 1.678 0 0 1 1.187.48 1.662 1.662 0 0 1 0 2.362 1.669 1.669 0 0 1-1.187.479h-34.671Zm0-8.073a1.665 1.665 0 0 1-1.534-1.025 1.665 1.665 0 0 1 .36-1.809 1.65 1.65 0 0 1 1.174-.487h34.671a1.65 1.65 0 0 1 1.534 1.025 1.674 1.674 0 0 1 0 1.271 1.666 1.666 0 0 1-.899.899 1.665 1.665 0 0 1-.635.126h-34.671Z"/><path fill="#999" d="M121.827 384v-8.16h1.404l3.42 5.328.516.96-.036-6.288h1.344V384h-1.404l-3.408-5.304-.528-.996.036 6.3h-1.344Zm13.983-2.088c-.348 1.488-1.452 2.244-2.952 2.244-1.884 0-3.036-1.26-3.036-3.348 0-2.172 1.152-3.372 2.976-3.372 1.848 0 2.964 1.248 2.964 3.3v.312h-4.632c.072 1.308.684 2.04 1.728 2.04.816 0 1.392-.384 1.608-1.176h1.344Zm-3.012-3.408c-.924 0-1.476.588-1.632 1.668h3.264c-.156-1.08-.72-1.668-1.632-1.668Zm9.748 5.496-1.272-4.548-.132-.72-.144.72-1.272 4.548h-1.584l-1.848-6.396h1.38l1.176 4.752.156.72.168-.72 1.344-4.752h1.356l1.356 4.752.144.684.144-.684 1.176-4.752h1.32l-1.86 6.396h-1.608Zm9.124.156c-1.692 0-2.712-1.26-2.712-3.348 0-2.172 1.044-3.372 2.712-3.372.732 0 1.332.3 1.74.888v-2.964h1.284V384h-1.284v-.78c-.408.6-1.008.936-1.74.936Zm.168-1.08c1.02 0 1.572-.792 1.572-2.268 0-1.464-.576-2.292-1.572-2.292-1.02 0-1.572.816-1.572 2.292 0 1.452.576 2.268 1.572 2.268Zm7.081 1.08c-1.86 0-2.988-1.26-2.988-3.348 0-2.172 1.164-3.372 2.988-3.372 1.86 0 2.988 1.284 2.988 3.372 0 2.16-1.164 3.348-2.988 3.348Zm0-1.08c1.092 0 1.68-.792 1.68-2.268 0-1.464-.6-2.292-1.68-2.292s-1.68.804-1.68 2.292c0 1.452.6 2.268 1.68 2.268Zm9.65-3.24h-1.284c-.156-.912-.744-1.32-1.488-1.32-1.068 0-1.644.816-1.644 2.292 0 1.452.6 2.28 1.68 2.28.768 0 1.308-.42 1.5-1.236h1.272c-.276 1.596-1.38 2.304-2.796 2.304-1.848 0-2.964-1.272-2.964-3.348 0-2.172 1.14-3.372 2.952-3.372 1.428 0 2.556.804 2.772 2.4Z"/><path fill="#fff" fill-rule="evenodd" d="M242.372 304h37.238l13.242 13.242v51.281a.48.48 0 0 1-.477.477h-50.003a.469.469 0 0 1-.436-.296.486.486 0 0 1-.035-.181v-64.046a.465.465 0 0 1 .29-.44.469.469 0 0 1 .181-.037Z" clip-rule="evenodd"/><path fill="#BEC7CF" fill-rule="evenodd" d="M279.61 304v10.27a2.98 2.98 0 0 0 2.971 2.97h10.27L279.61 304Z" clip-rule="evenodd"/><path fill="#BEC7CF" d="M250.041 317.06a1.657 1.657 0 0 1-1.641-1.66 1.657 1.657 0 0 1 1.641-1.66h21.953a1.66 1.66 0 0 1 0 3.32h-21.953Zm0 24.225a1.658 1.658 0 0 1-1.66-1.661 1.66 1.66 0 0 1 1.66-1.66h34.671a1.658 1.658 0 0 1 1.66 1.66 1.66 1.66 0 0 1-1.66 1.661h-34.671Zm0-8.073a1.657 1.657 0 0 1-1.641-1.66 1.66 1.66 0 0 1 1.641-1.661h34.671a1.671 1.671 0 0 1 1.187.48 1.662 1.662 0 0 1 0 2.362 1.669 1.669 0 0 1-1.187.479h-34.671Zm0-8.073a1.665 1.665 0 0 1-1.534-1.025 1.665 1.665 0 0 1 .36-1.809 1.65 1.65 0 0 1 1.174-.487h34.671a1.65 1.65 0 0 1 1.534 1.025 1.674 1.674 0 0 1 0 1.271 1.666 1.666 0 0 1-.899.899 1.665 1.665 0 0 1-.635.126h-34.671Z"/><path fill="#999" d="M242.777 384v-8.16h1.404l3.42 5.328.516.96-.036-6.288h1.344V384h-1.404l-3.408-5.304-.528-.996.036 6.3h-1.344Zm13.983-2.088c-.348 1.488-1.452 2.244-2.952 2.244-1.884 0-3.036-1.26-3.036-3.348 0-2.172 1.152-3.372 2.976-3.372 1.848 0 2.964 1.248 2.964 3.3v.312h-4.632c.072 1.308.684 2.04 1.728 2.04.816 0 1.392-.384 1.608-1.176h1.344Zm-3.012-3.408c-.924 0-1.476.588-1.632 1.668h3.264c-.156-1.08-.72-1.668-1.632-1.668Zm9.748 5.496-1.272-4.548-.132-.72-.144.72-1.272 4.548h-1.584l-1.848-6.396h1.38l1.176 4.752.156.72.168-.72 1.344-4.752h1.356l1.356 4.752.144.684.144-.684 1.176-4.752h1.32l-1.86 6.396h-1.608Zm9.124.156c-1.692 0-2.712-1.26-2.712-3.348 0-2.172 1.044-3.372 2.712-3.372.732 0 1.332.3 1.74.888v-2.964h1.284V384h-1.284v-.78c-.408.6-1.008.936-1.74.936Zm.168-1.08c1.02 0 1.572-.792 1.572-2.268 0-1.464-.576-2.292-1.572-2.292-1.02 0-1.572.816-1.572 2.292 0 1.452.576 2.268 1.572 2.268Zm7.081 1.08c-1.86 0-2.988-1.26-2.988-3.348 0-2.172 1.164-3.372 2.988-3.372 1.86 0 2.988 1.284 2.988 3.372 0 2.16-1.164 3.348-2.988 3.348Zm0-1.08c1.092 0 1.68-.792 1.68-2.268 0-1.464-.6-2.292-1.68-2.292s-1.68.804-1.68 2.292c0 1.452.6 2.268 1.68 2.268Zm9.65-3.24h-1.284c-.156-.912-.744-1.32-1.488-1.32-1.068 0-1.644.816-1.644 2.292 0 1.452.6 2.28 1.68 2.28.768 0 1.308-.42 1.5-1.236h1.272c-.276 1.596-1.38 2.304-2.796 2.304-1.848 0-2.964-1.272-2.964-3.348 0-2.172 1.14-3.372 2.952-3.372 1.428 0 2.556.804 2.772 2.4Z"/><defs><linearGradient id="b" x1="56.188" x2="54.452" y1="178.386" y2="214.372" gradientUnits="userSpaceOnUse"><stop stop-color="#2A71F7"/><stop offset="1" stop-color="#092863"/></linearGradient><linearGradient id="c" x1="77.004" x2="76.795" y1="189.927" y2="195.981" gradientUnits="userSpaceOnUse"><stop stop-color="#2A71F7"/><stop offset="1" stop-color="#092863"/></linearGradient><linearGradient id="d" x1="70.016" x2="69.66" y1="193.527" y2="203.854" gradientUnits="userSpaceOnUse"><stop stop-color="#2A71F7"/><stop offset="1" stop-color="#092863"/></linearGradient><linearGradient id="e" x1="97.218" x2="254.772" y1="187.071" y2="210.869" gradientUnits="userSpaceOnUse"><stop stop-color="#fff"/><stop offset="1" stop-color="#AAABAD"/></linearGradient><filter id="a" width="251.179" height="72.429" x="13.911" y="167.5" color-interpolation-filters="sRGB" filterUnits="userSpaceOnUse"><feFlood flood-opacity="0" result="BackgroundImageFix"/><feColorMatrix in="SourceAlpha" result="hardAlpha" values="0 0 0 0 0 0 0 0 0 0 0 0 0 0 0 0 0 0 127 0"/><feOffset dy="3.714"/><feGaussianBlur stdDeviation="1.857"/><feComposite in2="hardAlpha" operator="out"/><feColorMatrix values="0 0 0 0 0.0342361 0 0 0 0 0.0714236 0 0 0 0 0.141667 0 0 0 0.1 0"/><feBlend in2="BackgroundImageFix" result="effect1_dropShadow_251_1459"/><feBlend in="SourceGraphic" in2="effect1_dropShadow_251_1459" result="shape"/></filter></defs></svg>