<svg xmlns="http://www.w3.org/2000/svg" width="17" height="18" fill="none"><path fill="url(#a)" d="M7.031 3.14h2.344v1.172h2.344V.797H0v3.515h2.344V3.141h2.344v11.718H2.344v2.344h7.03V14.86H7.03V3.141Z"/><path fill="url(#b)" d="M15.524 6.231a.243.243 0 0 0-.472 0c-.075.297-.18.495-.322.637-.141.142-.34.247-.637.321a.243.243 0 0 0 0 .472c.297.074.496.18.637.321.142.142.247.34.322.637a.243.243 0 0 0 .472 0c.074-.296.179-.495.32-.637.143-.141.34-.247.638-.32a.243.243 0 0 0 0-.473c-.297-.074-.495-.18-.637-.32-.142-.143-.247-.341-.321-.638Z"/><path fill="url(#c)" d="M12.337 7.869a.243.243 0 0 0-.472 0c-.143.575-.353.981-.65 1.28-.299.298-.706.507-1.28.65a.243.243 0 0 0 0 .473c.574.143.981.353 1.28.651.297.298.507.705.65 1.28a.243.243 0 0 0 .472 0c.144-.575.354-.982.652-1.28.298-.298.705-.508 1.28-.651a.243.243 0 0 0 0-.472c-.575-.144-.982-.353-1.28-.651-.299-.299-.508-.705-.652-1.28Z"/><defs><linearGradient id="a" x1="5.625" x2="4.847" y1=".797" y2="17.168" gradientUnits="userSpaceOnUse"><stop stop-color="#2A71F7"/><stop offset="1" stop-color="#092863"/></linearGradient><linearGradient id="b" x1="15.232" x2="15.139" y1="6.047" y2="8.801" gradientUnits="userSpaceOnUse"><stop stop-color="#2A71F7"/><stop offset="1" stop-color="#092863"/></linearGradient><linearGradient id="c" x1="12.007" x2="11.848" y1="7.684" y2="12.382" gradientUnits="userSpaceOnUse"><stop stop-color="#2A71F7"/><stop offset="1" stop-color="#092863"/></linearGradient></defs></svg>