<svg xmlns="http://www.w3.org/2000/svg" width="19" height="18" fill="none"><path fill="url(#a)" d="M3.95 13.429H2.883A1.547 1.547 0 0 0 0 14.214 1.547 1.547 0 0 0 2.883 15H3.95a2.36 2.36 0 0 0 2.357-2.356v-1.115c.65.123 1.336.203 2.034.237v3.353a1.547 1.547 0 0 0 .789 2.882 1.547 1.547 0 0 0 .782-2.885v-3.35c.701-.033 1.39-.113 2.043-.237v1.115A2.36 2.36 0 0 0 14.31 15h1.068a1.547 1.547 0 0 0 2.883-.786 1.547 1.547 0 0 0-2.883-.786H14.31a.787.787 0 0 1-.785-.785v-1.528c1.514-.534 2.564-1.382 2.564-2.532v-5.38C16.09 1.1 12.589 0 9.13 0 5.673 0 2.173 1.1 2.173 3.203v5.38c0 1.15 1.05 1.998 2.563 2.532v1.528a.787.787 0 0 1-.786.786ZM9.131 1.57c3.555 0 5.388 1.144 5.388 1.632S12.686 4.835 9.13 4.835c-3.554 0-5.387-1.144-5.387-1.632S5.577 1.571 9.13 1.571ZM3.744 8.583V5.3c1.343.73 3.37 1.107 5.387 1.107 2.018 0 4.045-.377 5.388-1.107v3.284c0 .489-1.833 1.632-5.388 1.632-3.554 0-5.387-1.143-5.387-1.632Z"/><defs><linearGradient id="a" x1="8.766" x2="8.164" y1="0" y2="17.982" gradientUnits="userSpaceOnUse"><stop stop-color="#2A71F7"/><stop offset="1" stop-color="#092863"/></linearGradient></defs></svg>