<svg xmlns="http://www.w3.org/2000/svg" width="351" height="382" fill="none"><circle cx="175.5" cy="190.5" r="162.5" stroke="url(#a)" stroke-dasharray="8 8" stroke-width="2"/><path stroke="#22252F" stroke-dasharray="4 4" stroke-width="2" d="M176 62v77.5"/><path stroke="#22252F" stroke-width="2" d="m171.5 139 4.5 4.5 4.5-4.5"/><path stroke="#22252F" stroke-dasharray="4 4" stroke-width="2" d="m146.289 211.175-71.898 28.929"/><path stroke="#22252F" stroke-width="2" d="m73.175 235.743-2.495 5.854 5.854 2.495"/><path stroke="#22252F" stroke-dasharray="4 4" stroke-width="2" d="m212.345 214.294 73.96 23.154"/><path stroke="#22252F" stroke-width="2" d="m284.483 241.594 5.639-2.951-2.95-5.638"/><rect width="80" height="80" x="135" y="150" fill="url(#b)" rx="15"/><path fill="#fff" d="M159.097 214.259c3.722 1.583 8.756.207 9.648-4.437 2.852-10.83-5.185-22.905-2.128-34.893 2.421-6.274 8.586-6.124 10.666 2.424 2.969 8.156.265 36.869 12.837 29.449 4.558-2.828 8.696-9.779 6.052-14.048-1.832-2.376-4.378.666-7.952-1.499-6.61-4.483-4.87-21.864-17.42-23.309-3.975.102-9.44 2.82-16.349 18.72-1.471 4.644-6.609 19.652 4.646 27.593Zm33.364-56.448a.542.542 0 0 0-1.049 0c-.165.659-.399 1.099-.714 1.413-.315.315-.756.548-1.416.713a.54.54 0 0 0 0 1.047c.66.165 1.101.398 1.416.713.315.314.549.755.714 1.413a.54.54 0 0 0 1.049 0c.164-.658.398-1.099.713-1.413.315-.315.756-.548 1.416-.713a.54.54 0 0 0 0-1.047c-.66-.165-1.101-.398-1.416-.713-.315-.314-.549-.754-.713-1.413Zm-5.045 2.878a.541.541 0 0 0-1.049 0c-.319 1.276-.785 2.179-1.447 2.84-.663.662-1.567 1.127-2.845 1.445a.541.541 0 0 0 0 1.048c1.278.319 2.182.783 2.845 1.445.662.661 1.128 1.564 1.447 2.84a.54.54 0 0 0 1.049 0c.319-1.276.784-2.179 1.447-2.84.662-.662 1.567-1.126 2.844-1.445a.54.54 0 0 0 0-1.048c-1.277-.318-2.182-.783-2.844-1.445-.663-.661-1.128-1.564-1.447-2.84Z"/><circle cx="175" cy="30" r="29.5" fill="#05070F" stroke="#22252F"/><path fill="#00AA63" d="M189.001 15.804v14.494c0 .646-.438 1.17-.976 1.17h-20.471c-.539 0-.976-.524-.976-1.17V11.752c0-.646.437-1.17.976-1.17h6.627c.372 0 .711.254.875.652l1.132 2.749c.164.399.503.652.875.652h10.962c.538 0 .976.523.976 1.169Z"/><path fill="#FFC43B" d="M185.211 20.343v14.495c0 .645-.437 1.169-.975 1.169h-20.471c-.539 0-.976-.524-.976-1.17V16.292c0-.646.437-1.17.976-1.17h6.627c.372 0 .711.254.875.653l1.131 2.748c.165.4.504.652.876.652h10.962c.538 0 .975.524.975 1.17Z"/><path fill="#FF6F44" d="M181.422 24.882v14.495c0 .645-.437 1.169-.976 1.169h-20.47c-.539 0-.976-.524-.976-1.17V20.83c0-.645.437-1.17.976-1.17h6.627c.372 0 .71.254.875.653l1.131 2.748c.164.4.504.653.875.653h10.962c.539 0 .976.523.976 1.168Z"/><path fill="#fff" d="M174.722 37.369c-.487 0-.882-.473-.882-1.057v-.65c0-.584.395-1.057.882-1.057.488 0 .883.473.883 1.057v.65c0 .584-.395 1.057-.883 1.057Zm2.733 0c-.488 0-.883-.473-.883-1.057v-.65c0-.584.395-1.057.883-1.057.487 0 .882.473.882 1.057v.65c0 .584-.395 1.057-.882 1.057Z"/><path fill="#999" d="M162.876 74v-8.16h2.796c2.556 0 4.14 1.536 4.14 4.092 0 2.556-1.584 4.068-4.14 4.068h-2.796Zm2.796-1.092c1.74 0 2.772-1.104 2.772-2.976 0-1.896-1.032-3-2.772-3h-1.452v5.976h1.452Zm6.734-3.216h-1.284c.204-1.416 1.176-2.256 2.772-2.256 1.74 0 2.604 1.02 2.604 2.508v2.496c0 .768.072 1.212.216 1.56h-1.344c-.096-.24-.132-.576-.144-.936a2.61 2.61 0 0 1-2.136 1.092c-1.296 0-2.184-.612-2.184-1.836 0-.876.48-1.524 1.44-1.848.852-.288 1.716-.36 2.868-.372v-.144c0-.936-.432-1.44-1.416-1.44-.828 0-1.272.456-1.392 1.176Zm-.204 2.58c0 .54.444.876 1.128.876a1.872 1.872 0 0 0 1.884-1.884v-.288c-2.46.024-3.012.564-3.012 1.296Zm6.074-.18V68.6h-.864v-.996h.864v-1.476h1.284v1.476h1.38v.996h-1.38v3.42c0 .732.204 1.08 1.104 1.08h.252v.936c-.144.072-.444.12-.804.12-1.248 0-1.836-.684-1.836-2.064Zm4.841-2.4h-1.284c.204-1.416 1.176-2.256 2.772-2.256 1.74 0 2.604 1.02 2.604 2.508v2.496c0 .768.072 1.212.216 1.56h-1.344c-.096-.24-.132-.576-.144-.936a2.61 2.61 0 0 1-2.136 1.092c-1.296 0-2.184-.612-2.184-1.836 0-.876.48-1.524 1.44-1.848.852-.288 1.716-.36 2.868-.372v-.144c0-.936-.432-1.44-1.416-1.44-.828 0-1.272.456-1.392 1.176Zm-.204 2.58c0 .54.444.876 1.128.876a1.872 1.872 0 0 0 1.884-1.884v-.288c-2.46.024-3.012.564-3.012 1.296Z"/><circle cx="30" cy="250" r="29.5" fill="#05070F" stroke="#22252F"/><path fill="#DFEAEF" d="M16 235.211v21.706c0 1.602 6.171 2.901 13.784 2.901 7.612 0 13.784-1.299 13.784-2.901v-21.706H16Z"/><path fill="#BFCFD6" d="M40.418 235.211v7.235c0 1.491-5.338 2.718-12.209 2.882.517.013 1.042.019 1.575.019 4.28 0 8.106-.41 10.634-1.055v5.39c0 1.49-5.338 2.717-12.209 2.882.517.012 1.042.019 1.575.019 4.28 0 8.106-.411 10.634-1.055v5.417c0 1.49-5.338 2.718-12.209 2.882.517.013 1.042.019 1.575.019 7.612 0 13.784-1.299 13.784-2.901v-7.235h-.002l.002-.028v-14.471h-3.15Z"/><path fill="#86AEBC" d="M29.784 244.503c-7.613 0-13.784-1.299-13.784-2.901v.845c0 1.602 6.171 2.901 13.784 2.901 7.612 0 13.784-1.299 13.784-2.901v-.845c0 1.602-6.172 2.901-13.784 2.901Zm0 7.236c-7.613 0-13.784-1.299-13.784-2.902v.845c0 1.602 6.171 2.901 13.784 2.901 7.612 0 13.784-1.299 13.784-2.901v-.845c0 1.603-6.172 2.902-13.784 2.902Zm0 7.236c-7.613 0-13.784-1.299-13.784-2.901v.845c0 1.602 6.171 2.901 13.784 2.901 7.612 0 13.784-1.299 13.784-2.901v-.845c0 1.602-6.172 2.901-13.784 2.901Z"/><path fill="#9EBECC" d="M29.784 238.112c7.612 0 13.783-1.299 13.783-2.901 0-1.602-6.17-2.901-13.783-2.901-7.613 0-13.784 1.299-13.784 2.901 0 1.602 6.171 2.901 13.784 2.901Z"/><path fill="#86AEBC" d="M29.784 232.31c-.533 0-1.058.006-1.575.019 6.87.164 12.209 1.392 12.209 2.882 0 1.49-5.338 2.717-12.209 2.882.517.012 1.042.019 1.575.019 7.612 0 13.784-1.299 13.784-2.901 0-1.602-6.172-2.901-13.784-2.901Z"/><path fill="#FC9F3D" d="M38.155 242.242c.725 0 1.312-.539 1.312-1.204 0-.665-.587-1.204-1.312-1.204-.724 0-1.311.539-1.311 1.204 0 .665.587 1.204 1.311 1.204Z"/><path fill="#9EBECC" d="M29.783 242.171c-3.776 0-7.314-.315-9.963-.886-.243-.052-.394-.276-.337-.499.057-.224.3-.362.544-.31 2.583.557 6.048.863 9.756.863 1.554 0 3.077-.054 4.529-.161.249-.019.467.152.487.381.02.228-.166.429-.415.447a62.77 62.77 0 0 1-4.6.165Z"/><path fill="#FC9F3D" d="M38.155 249.382c.725 0 1.312-.539 1.312-1.204 0-.665-.587-1.204-1.312-1.204-.724 0-1.311.539-1.311 1.204 0 .665.587 1.204 1.311 1.204Z"/><path fill="#9EBECC" d="M29.783 249.311c-3.776 0-7.314-.315-9.963-.886-.243-.052-.394-.276-.337-.499.057-.224.3-.362.544-.31 2.583.557 6.048.863 9.756.863 1.554 0 3.077-.054 4.529-.161.25-.019.467.152.487.381.02.228-.166.429-.415.447a62.77 62.77 0 0 1-4.6.165Z"/><path fill="#FC9F3D" d="M38.155 256.533c.725 0 1.312-.539 1.312-1.203 0-.665-.587-1.204-1.312-1.204-.724 0-1.311.539-1.311 1.204 0 .664.587 1.203 1.311 1.203Z"/><path fill="#9EBECC" d="M29.783 256.462c-3.776 0-7.314-.315-9.963-.885-.243-.053-.394-.277-.337-.5.057-.224.3-.362.544-.31 2.583.557 6.048.864 9.756.864 1.554 0 3.077-.055 4.529-.162.249-.019.467.152.487.381.02.229-.166.429-.415.447a62.77 62.77 0 0 1-4.6.165Z"/><path fill="#999" d="M10.968 288.856c0 2.148 4.944.456 4.944 3.792 0 1.608-1.308 2.508-3.096 2.508-1.812 0-3.06-.828-3.396-2.532h1.404c.228.924.912 1.428 2.004 1.428 1.116 0 1.704-.492 1.704-1.224 0-2.304-4.944-.588-4.944-3.864 0-1.224 1.032-2.28 2.892-2.28 1.608 0 2.928.768 3.216 2.556h-1.428c-.228-1.008-.864-1.452-1.824-1.452-.936 0-1.476.42-1.476 1.068Zm6.316 4.236V289.6h-.864v-.996h.864v-1.476h1.284v1.476h1.38v.996h-1.38v3.42c0 .732.204 1.08 1.104 1.08h.252v.936c-.144.072-.444.12-.804.12-1.248 0-1.836-.684-1.836-2.064Zm6.305 2.064c-1.86 0-2.988-1.26-2.988-3.348 0-2.172 1.164-3.372 2.988-3.372 1.86 0 2.988 1.284 2.988 3.372 0 2.16-1.164 3.348-2.988 3.348Zm0-1.08c1.092 0 1.68-.792 1.68-2.268 0-1.464-.6-2.292-1.68-2.292s-1.68.804-1.68 2.292c0 1.452.6 2.268 1.68 2.268Zm4.238.924v-6.396h1.284v.948c.42-.768 1.08-1.116 1.824-1.116.252 0 .492.06.612.168v1.128a2.318 2.318 0 0 0-.684-.084c-1.224 0-1.752.744-1.752 1.86V295h-1.284Zm5.712-4.308h-1.284c.204-1.416 1.176-2.256 2.772-2.256 1.74 0 2.604 1.02 2.604 2.508v2.496c0 .768.072 1.212.216 1.56h-1.344c-.096-.24-.132-.576-.144-.936a2.61 2.61 0 0 1-2.136 1.092c-1.296 0-2.184-.612-2.184-1.836 0-.876.48-1.524 1.44-1.848.852-.288 1.716-.36 2.868-.372v-.144c0-.936-.432-1.44-1.416-1.44-.828 0-1.272.456-1.392 1.176Zm-.204 2.58c0 .54.444.876 1.128.876a1.872 1.872 0 0 0 1.884-1.884v-.288c-2.46.024-3.012.564-3.012 1.296Zm8.21 1.764c-1.632 0-2.616-1.248-2.616-3.288 0-2.136 1.008-3.312 2.616-3.312.816 0 1.428.288 1.836.84v-.672h1.284v6.6c0 1.752-1.164 2.604-2.7 2.604-1.536 0-2.64-.72-2.868-2.208h1.284c.12.768.732 1.176 1.572 1.176.852 0 1.428-.444 1.428-1.548v-1.08c-.432.588-1.056.888-1.836.888Zm.264-1.08c1.02 0 1.572-.78 1.572-2.22 0-1.404-.576-2.22-1.572-2.22-1.02 0-1.572.78-1.572 2.232 0 1.404.564 2.208 1.572 2.208Zm10.092-1.044c-.348 1.488-1.452 2.244-2.952 2.244-1.884 0-3.036-1.26-3.036-3.348 0-2.172 1.152-3.372 2.976-3.372 1.848 0 2.964 1.248 2.964 3.3v.312h-4.632c.072 1.308.684 2.04 1.728 2.04.816 0 1.392-.384 1.608-1.176h1.344Zm-3.012-3.408c-.924 0-1.476.588-1.632 1.668h3.264c-.156-1.08-.72-1.668-1.632-1.668Z"/><circle cx="181" cy="352" r="29.5" fill="#05070F" stroke="#22252F"/><path fill="#454A6D" d="M183.244 357.823a7.032 7.032 0 0 1-.362 1.352l1.468 1.33c-.206.433-.44.849-.71 1.24l-1.885-.608c-.297.364-.63.696-.993.993l.607 1.885c-.391.27-.807.504-1.24.71l-1.33-1.468a6.993 6.993 0 0 1-1.352.362l-.418 1.939a9.428 9.428 0 0 1-.717.036c-.241 0-.479-.018-.716-.036l-.419-1.939a7.032 7.032 0 0 1-1.352-.362l-1.33 1.468a8.921 8.921 0 0 1-1.24-.71l.608-1.885a7.008 7.008 0 0 1-.993-.993l-1.885.608a8.921 8.921 0 0 1-.71-1.24l1.468-1.33a6.96 6.96 0 0 1-.362-1.352l-1.939-.419a9.428 9.428 0 0 1-.036-.716c0-.242.018-.48.036-.717l1.939-.419a6.96 6.96 0 0 1 .362-1.352l-1.468-1.33c.206-.433.44-.849.71-1.24l1.885.608c.297-.364.63-.696.993-.993l-.607-1.885c.391-.27.807-.504 1.24-.71l1.33 1.467a6.99 6.99 0 0 1 1.352-.361l.418-1.939c.237-.018.475-.036.716-.036.242 0 .48.018.717.036l.419 1.939a7.03 7.03 0 0 1 1.352.361l1.33-1.467c.433.206.849.44 1.24.71l-.608 1.885c.364.297.696.63.993.993l1.885-.607c.27.391.504.807.71 1.24l-1.468 1.33c.164.432.285.883.362 1.352l1.939.418c.018.237.036.475.036.717 0 .241-.018.479-.036.716l-1.939.419ZM176.312 352a4.688 4.688 0 1 0 .002 9.376 4.688 4.688 0 0 0-.002-9.376Z"/><path fill="#E89D43" d="M189.746 344.643a3.738 3.738 0 0 1-.286.694l.74 1.418a5.19 5.19 0 0 1-.851.851l-1.418-.74a3.644 3.644 0 0 1-.694.286l-.48 1.528a4.972 4.972 0 0 1-.601.039c-.203 0-.403-.015-.6-.038l-.48-1.528a3.713 3.713 0 0 1-.694-.287l-1.418.74a5.145 5.145 0 0 1-.851-.85l.74-1.419a3.644 3.644 0 0 1-.286-.694l-1.529-.48a5.17 5.17 0 0 1-.038-.601c0-.203.015-.403.038-.6l1.528-.48c.073-.242.169-.475.286-.694l-.74-1.418a5.19 5.19 0 0 1 .851-.851l1.419.74c.218-.118.451-.214.693-.286l.48-1.528c.198-.024.398-.039.601-.039.204 0 .403.015.601.038l.48 1.528c.242.073.475.169.693.287l1.419-.74c.316.249.601.534.851.85l-.74 1.419c.118.219.213.451.286.694l1.528.48c.023.197.038.397.038.6 0 .204-.015.404-.037.601l-1.529.48Zm-3.59-2.955a1.875 1.875 0 1 0 0 3.75 1.875 1.875 0 0 0 0-3.75Z"/><path fill="#4AC3ED" d="M193.534 355.221c-.072.26-.174.507-.304.737l.466.981a4.227 4.227 0 0 1-.726.726l-.981-.467c-.23.131-.477.232-.737.305l-.365 1.025a4.114 4.114 0 0 1-.512.034c-.174 0-.344-.013-.512-.034l-.365-1.025a3.271 3.271 0 0 1-.737-.305l-.981.467a4.227 4.227 0 0 1-.726-.726l.466-.981a3.269 3.269 0 0 1-.304-.737l-1.026-.364a4.347 4.347 0 0 1-.034-.513c0-.174.014-.344.034-.513l1.026-.364c.072-.26.174-.507.304-.737l-.466-.981c.212-.271.455-.514.726-.726l.981.467c.23-.131.477-.233.737-.305l.365-1.025c.168-.021.338-.035.512-.035s.344.014.512.034l.365 1.026c.26.072.507.174.737.304l.981-.466c.271.212.514.455.726.725l-.466.982c.13.23.232.477.304.737l1.026.364c.02.169.034.339.034.513s-.014.344-.034.512l-1.026.365Zm-3.159-2.283a1.405 1.405 0 1 0-.001 2.81 1.405 1.405 0 0 0 .001-2.81Z"/><path fill="#454A6D" d="m194.686 339.353-2.803-.561-.561 2.804.919.184.253-1.262c.454.945.694 1.987.694 3.044a6.955 6.955 0 0 1-1.542 4.395l.732.586a7.991 7.991 0 0 0 1.748-4.981 7.99 7.99 0 0 0-.823-3.53l1.2.24.183-.919Zm-17.573 3.878-.663.663.637.637a12.514 12.514 0 0 0-.774-.031c-3.626 0-7.04 1.599-9.365 4.387l.72.6a11.231 11.231 0 0 1 8.645-4.05c.239 0 .477.014.715.029l-.578.578.663.662 1.738-1.737-1.738-1.738Z"/><circle cx="321" cy="252" r="29.5" fill="#05070F" stroke="#22252F"/><path fill="#3F4983" d="M319.664 236.762h7.791v23.055h-7.791v-23.055Z"/><path fill="#27326A" d="M319.664 248.292h7.791v11.525h-7.791v-11.525Z"/><path fill="#FF4D86" d="m339 248.292-9.787-6.442v3.453h-6.033v5.974h6.033v3.457l9.787-6.442Z"/><path fill="#4CD8FF" d="M309 236.738v23.103l12.421 3.431v-29.963L309 236.738Z"/><path fill="#F2297F" d="M323.18 251.277h6.033v3.457l9.787-6.442h-15.82v2.985Z"/><path fill="#42A1FF" d="m309 259.842 12.421 3.43v-14.98H309v11.55Z"/><path fill="#999" d="M306.512 297.156c-2.436 0-3.924-1.608-3.924-4.224s1.488-4.248 3.924-4.248c2.412 0 3.912 1.632 3.912 4.248 0 2.616-1.5 4.224-3.912 4.224Zm0-1.128c1.596 0 2.544-1.176 2.544-3.096 0-1.932-.948-3.12-2.544-3.12s-2.556 1.188-2.556 3.12c0 1.92.96 3.096 2.556 3.096Zm9.312-1.68v-3.744h1.272V297h-1.272v-.864c-.42.684-1.092 1.02-1.908 1.02-1.308 0-2.124-.768-2.124-2.28v-4.272h1.284v4.008c0 .924.384 1.476 1.236 1.476.936 0 1.512-.852 1.512-1.74Zm3.003.744V291.6h-.864v-.996h.864v-1.476h1.284v1.476h1.38v.996h-1.38v3.42c0 .732.204 1.08 1.104 1.08h.252v.936c-.144.072-.444.12-.804.12-1.248 0-1.836-.684-1.836-2.064Zm4.913 4.548h-1.284v-9.036h1.284v.768c.408-.6 1.008-.936 1.74-.936 1.692 0 2.712 1.26 2.712 3.348 0 2.172-1.044 3.372-2.712 3.372-.732 0-1.332-.3-1.74-.888v3.372Zm1.584-8.124c-1.032 0-1.584.804-1.584 2.268 0 1.464.576 2.292 1.584 2.292s1.56-.816 1.56-2.292c0-1.452-.576-2.268-1.56-2.268Zm8.148 2.832v-3.744h1.272V297h-1.272v-.864c-.42.684-1.092 1.02-1.908 1.02-1.308 0-2.124-.768-2.124-2.28v-4.272h1.284v4.008c0 .924.384 1.476 1.236 1.476.936 0 1.512-.852 1.512-1.74Zm3.003.744V291.6h-.864v-.996h.864v-1.476h1.284v1.476h1.38v.996h-1.38v3.42c0 .732.204 1.08 1.104 1.08h.252v.936c-.144.072-.444.12-.804.12-1.248 0-1.836-.684-1.836-2.064Z"/><circle cx="307" cy="96" r="29.5" fill="#05070F" stroke="#22252F"/><g clip-path="url(#c)"><path fill="#523D64" d="M319.474 83.847h-10.646v1.758h10.646a1.77 1.77 0 0 1 1.769 1.769v5.978c0 .975-.794 1.769-1.769 1.769h-.643l.996-.996-1.243-1.243L315.466 96l3.118 3.118 1.243-1.243-.996-.996h.643A3.53 3.53 0 0 0 323 93.352v-5.978a3.53 3.53 0 0 0-3.526-3.527Z"/><path fill="#61619C" d="m304.491 104.208-1.243 1.243.995.996h-7.716a1.77 1.77 0 0 1-1.769-1.769v-6.03a1.77 1.77 0 0 1 1.769-1.77h3.585v-1.757h-3.585A3.53 3.53 0 0 0 293 98.648v6.03a3.53 3.53 0 0 0 3.527 3.527h7.716l-.995.996 1.243 1.243 3.117-3.118-3.117-3.118Z"/><path fill="#00E3A1" d="M308 92.25h-5.625v7.5H308l.784-3.75-.784-3.75Z"/><path fill="#04BFA9" d="M308 92.25h5.625v7.5H308v-7.5Z"/><path fill="#F9F3F1" d="M308 95.121h-2.809v1.758H308l.784-.879-.784-.879Z"/><path fill="#E8EDF2" d="M308 95.121h2.808v1.758H308V95.12Z"/><path fill="#FF6946" d="M294.875 81h11.25v7.5h-11.25V81Z"/><path fill="#F9F3F1" d="M297.691 83.871h5.618v1.758h-5.618V83.87Z"/><path fill="#23A7E9" d="M309.875 103.5h11.25v7.5h-11.25v-7.5Z"/><path fill="#E8EDF2" d="M312.691 106.371h5.618v1.758h-5.618v-1.758Z"/></g><circle cx="52" cy="96" r="29.5" fill="#05070F" stroke="#22252F"/><g clip-path="url(#d)"><path fill="#6FCDE2" d="M65.878 96H65a13.014 13.014 0 0 0-7-11.53v.03a2.628 2.628 0 0 1-.915 1.99l-.64.55A10.015 10.015 0 0 1 62 96h-.877a.618.618 0 0 0-.472 1.022l2.377 2.762a.623.623 0 0 0 .944 0l2.378-2.763A.618.618 0 0 0 65.878 96Z"/><path fill="#346D92" d="m42.49 90.91.555.645A10 10 0 0 1 52 86v.878a.619.619 0 0 0 1.021.471l2.763-2.377a.624.624 0 0 0 0-.944L53.02 81.65a.62.62 0 0 0-1.021.473V83a13.013 13.013 0 0 0-11.53 7h.03a2.621 2.621 0 0 1 1.99.91Z"/><path fill="#25A3DA" d="m61.51 101.085-.55-.64A10.016 10.016 0 0 1 52 106v-.878a.617.617 0 0 0-1.021-.471l-2.763 2.377a.621.621 0 0 0 0 .944l2.763 2.378a.618.618 0 0 0 1.021-.473V109a13.015 13.015 0 0 0 11.53-7h-.03a2.62 2.62 0 0 1-1.99-.915Z"/><path fill="#4D88A9" d="M42 96h.878a.62.62 0 0 0 .471-1.022l-2.377-2.762a.624.624 0 0 0-.944 0l-2.378 2.763A.618.618 0 0 0 38.123 96H39a13.015 13.015 0 0 0 7 11.53v-.03a2.6 2.6 0 0 1 .91-1.985l.645-.555A10.012 10.012 0 0 1 42 96Z"/></g><defs><linearGradient id="a" x1="175.5" x2="175.5" y1="29" y2="352" gradientUnits="userSpaceOnUse"><stop stop-color="#1B1F2F"/><stop offset="1" stop-color="#1B1F2F" stop-opacity=".3"/></linearGradient><linearGradient id="b" x1="173.4" x2="170.687" y1="150" y2="229.917" gradientUnits="userSpaceOnUse"><stop stop-color="#2A71F7"/><stop offset="1" stop-color="#092863"/></linearGradient><clipPath id="c"><path fill="#fff" d="M293 81h30v30h-30z"/></clipPath><clipPath id="d"><path fill="#fff" d="M37 81h30v30H37z"/></clipPath></defs></svg>