<svg xmlns="http://www.w3.org/2000/svg" width="396" height="355" fill="none"><path fill="#fff" fill-opacity=".2" d="M192.158 118.723a.701.701 0 0 0 .497 1.2h2.167v14.154h-2.167a.705.705 0 0 0-.65.434.699.699 0 0 0 .153.766l5.346 5.345c.274.275.72.275.994 0l5.346-5.345a.702.702 0 0 0-.497-1.2h-2.168v-14.154h2.167a.703.703 0 0 0 .497-1.2l-5.346-5.345a.702.702 0 0 0-.994 0l-5.345 5.345Zm-1.951 98.828a.701.701 0 0 0 .497 1.2h2.167v19.154h-2.167a.705.705 0 0 0-.65.434.699.699 0 0 0 .153.766l5.345 5.345c.275.274.72.274.995 0l5.346-5.345a.703.703 0 0 0-.497-1.2h-2.169v-19.154h2.168a.705.705 0 0 0 .65-.434.705.705 0 0 0-.153-.766l-5.346-5.345a.703.703 0 0 0-.995 0l-5.344 5.345Z"/><path fill="#fff" fill-opacity=".2" fill-rule="evenodd" d="m103.863 235.227 3.348 1.831c.766.419.664 1.55-.164 1.826l-9.313 3.105a1 1 0 0 1-1.285-.703l-2.41-9.517c-.214-.846.684-1.541 1.45-1.122l3.347 1.831 2.337-4.271c1.853-3.388 4.287-5.782 8.299-5.957 2.214-.097 5.18.705 7.178.153 1.299-.359 2.128-1.266 2.759-2.42l1.916-3.503-3.347-1.831c-.766-.419-.665-1.55.164-1.826l9.312-3.105a1 1 0 0 1 1.286.703l2.409 9.517c.214.846-.684 1.542-1.45 1.123l-3.347-1.831-2.336 4.271c-1.43 2.613-3.375 4.759-6.399 5.372-2.149.436-4.135.004-6.269-.108-2.534-.132-4.304.648-5.569 2.959l-1.916 3.503Zm190.622-.286-3.347 1.831c-.766.419-.665 1.549.164 1.826l9.312 3.104a1 1 0 0 0 1.286-.703l2.409-9.517c.214-.846-.683-1.541-1.449-1.122l-3.348 1.831-2.336-4.271c-1.853-3.388-4.288-5.782-8.3-5.957-2.214-.096-5.18.705-7.177.153-1.3-.359-2.128-1.266-2.759-2.42l-1.917-3.503 3.348-1.831c.766-.419.664-1.55-.164-1.826l-9.313-3.105a1 1 0 0 0-1.285.703l-2.409 9.517c-.214.847.683 1.542 1.449 1.123l3.347-1.831 2.337 4.271c1.429 2.614 3.375 4.759 6.399 5.372 2.149.436 4.134.004 6.269-.107 2.534-.133 4.304.647 5.568 2.959l1.916 3.503Z" clip-rule="evenodd"/><path stroke="#fff" stroke-dasharray="5 5" stroke-opacity=".1" stroke-width="2" d="M35 176V37.5h323.5V176H35Z"/><circle cx="198" cy="50" r="49.5" fill="#05070F" stroke="#22252F"/><path fill="#435E88" d="M222.454 49.961h-26.595a.882.882 0 0 1 0-1.765h26.595a.882.882 0 0 1 0 1.765Zm-10.805-5.185h-15.321a.882.882 0 1 1 0-1.765h15.321a4.416 4.416 0 0 0 4.411-4.412v-6.42a.882.882 0 0 1 1.765 0v6.42a6.183 6.183 0 0 1-6.176 6.177Z"/><path fill="#435E88" d="M203.96 39.261h-8.786a.882.882 0 0 1 0-1.765h8.786a4.417 4.417 0 0 0 4.412-4.411v-9.872a.882.882 0 0 1 1.765 0v9.872a6.184 6.184 0 0 1-6.177 6.176Zm12.983 27.595a.882.882 0 0 1-.883-.883v-6.42a4.417 4.417 0 0 0-4.411-4.412h-15.321a.882.882 0 1 1 0-1.764h15.321a6.183 6.183 0 0 1 6.176 6.176v6.42a.882.882 0 0 1-.882.883Z"/><path fill="#435E88" d="M209.255 75.822a.882.882 0 0 1-.883-.883v-9.871a4.417 4.417 0 0 0-4.412-4.412h-8.786a.882.882 0 0 1 0-1.765h8.786a6.184 6.184 0 0 1 6.177 6.177v9.871a.882.882 0 0 1-.882.883Z"/><path fill="#FFD80C" d="M222.448 45.21a3.873 3.873 0 0 1 3.88 3.869 3.873 3.873 0 0 1-3.88 3.869 3.864 3.864 0 0 1-3.869-3.87 3.864 3.864 0 0 1 3.869-3.868Z"/><path fill="#FFBE00" d="M226.328 49.083a3.873 3.873 0 0 1-3.882 3.864c-1.439 0-2.7-.785-3.362-1.958l6.344-4.394c.565.68.9 1.535.9 2.488Z"/><path fill="#5CBEFF" d="M216.937 28.132a3.872 3.872 0 0 1 3.88 3.87 3.872 3.872 0 0 1-3.88 3.868 3.864 3.864 0 0 1-3.869-3.869 3.864 3.864 0 0 1 3.869-3.869Z"/><path fill="#079CFF" d="M220.817 32.005a3.873 3.873 0 0 1-3.882 3.865c-1.438 0-2.7-.785-3.362-1.958l6.344-4.395c.565.68.9 1.535.9 2.488Z"/><path fill="#4CC66E" d="M209.249 20.729a3.873 3.873 0 0 1 3.88 3.869 3.873 3.873 0 0 1-3.88 3.869 3.864 3.864 0 0 1-3.869-3.87 3.864 3.864 0 0 1 3.869-3.868Z"/><path fill="#14A142" d="M213.129 24.602c0 2.135-1.739 3.865-3.883 3.865a3.853 3.853 0 0 1-3.361-1.959l6.344-4.394c.564.68.9 1.535.9 2.488Z"/><path fill="#4CC66E" d="M209.219 69.533a3.872 3.872 0 0 1 3.879 3.87 3.872 3.872 0 0 1-3.879 3.868 3.863 3.863 0 0 1-3.869-3.869 3.863 3.863 0 0 1 3.869-3.869Z"/><path fill="#14A142" d="M213.099 73.406c0 2.135-1.739 3.865-3.883 3.865-1.438 0-2.7-.785-3.362-1.959l6.345-4.394c.564.68.9 1.535.9 2.488Z"/><path fill="#C175FF" d="M216.937 61.472a3.872 3.872 0 0 1 3.88 3.87 3.872 3.872 0 0 1-3.88 3.868 3.864 3.864 0 0 1-3.869-3.869 3.864 3.864 0 0 1 3.869-3.869Z"/><path fill="#B244F1" d="M220.817 65.346a3.873 3.873 0 0 1-3.882 3.864c-1.438 0-2.7-.785-3.362-1.959l6.344-4.394c.565.68.9 1.535.9 2.489Z"/><path fill="#AFAFFF" d="M198.515 70.012a7.216 7.216 0 0 1-7.214 7.222c-3.08 0-5.707-1.934-6.751-4.647a4.506 4.506 0 0 1-.684.043 6.092 6.092 0 0 1-6.101-6.092c0-.565.077-1.104.222-1.617a6.083 6.083 0 0 1-4.92-5.981 6.04 6.04 0 0 1 2.148-4.63 6.066 6.066 0 0 1-3.542-5.527 6.092 6.092 0 0 1 2.695-5.065 6.077 6.077 0 0 1 3.654-8.813 5.81 5.81 0 0 1-.257-1.737 6.097 6.097 0 0 1 3.731-5.622 6.09 6.09 0 0 1 8.488-4.543 4.565 4.565 0 0 1 3.936-2.242 4.596 4.596 0 0 1 4.595 4.595v44.656Z"/><path fill="#5959E7" d="M198.517 25.353V70.01c0 3.988-3.229 7.226-7.217 7.226a7.21 7.21 0 0 1-1.165-.097 7.221 7.221 0 0 0 6.026-7.13V25.354a4.591 4.591 0 0 0-3.432-4.438 4.79 4.79 0 0 1 1.191-.15 4.592 4.592 0 0 1 4.597 4.588Z"/><path fill="#5959E7" d="M184.991 28.353a.88.88 0 0 1 .758-.98.89.89 0 0 1 .989.76c.026.193.679 4.288 6.608 3.803a.88.88 0 0 1 .953.802.88.88 0 0 1-.803.953c-.397.035-.767.044-1.12.044-6.636 0-7.385-5.32-7.385-5.382Zm-3.168 24.265c-2.912-.115-5.197.855-6.609 1.694a5.994 5.994 0 0 1-1.597-1.077 13.69 13.69 0 0 1 8.277-2.382.886.886 0 0 1 .847.917.892.892 0 0 1-.918.848ZM178.02 34.9a5.89 5.89 0 0 1-.256-1.73v-.026c2.461-.256 6.891-.106 10.041 3.538a.883.883 0 0 1-.088 1.245.891.891 0 0 1-1.244-.089c-2.577-2.973-6.336-3.132-8.453-2.938Zm17.462 31.456a.89.89 0 0 1-.115 1.244 5.782 5.782 0 0 1-3.662 1.315c-.935 0-1.826-.23-2.603-.636-.908.45-1.764.636-2.532.636-2.003 0-3.459-1.244-4.076-2.171a.881.881 0 0 1 .238-1.227.886.886 0 0 1 1.217.239c.159.22 1.359 1.835 3.512 1.262a5.652 5.652 0 0 1-1.482-3.83 5.761 5.761 0 0 1 3.265-5.18.893.893 0 0 1 1.182.415.897.897 0 0 1-.424 1.183 3.989 3.989 0 0 0-2.258 3.582c0 1.394.714 2.612 1.8 3.318a3.96 3.96 0 0 0 2.161.644c.927 0 1.827-.318 2.533-.909a.89.89 0 0 1 1.244.115Zm-1.738-10.526c.15 0 2.753.07 4.862 1.976v2.841c-1.597-2.973-4.853-3.053-4.897-3.053a.884.884 0 0 1-.865-.9.864.864 0 0 1 .9-.865Zm4.861-16.298v2.542c-2.453-3.274-6.758-2.93-6.811-2.921a.88.88 0 1 1-.159-1.756c.194-.017 3.997-.326 6.97 2.135Zm-12.521 8.021c-.176 1.112-.07 2.92 1.995 4.094a.882.882 0 0 1 .335 1.2.89.89 0 0 1-1.209.326c-3.106-1.764-3.194-4.79-2.709-6.6a5.151 5.151 0 0 1-.847-.9 5.767 5.767 0 0 1-.476-6.105.883.883 0 0 1 1.191-.362c.432.22.6.758.371 1.191a3.968 3.968 0 0 0 .326 4.218 3.98 3.98 0 0 0 5.559.812 3.98 3.98 0 0 0 1.473-2.25.89.89 0 0 1 1.068-.645.878.878 0 0 1 .653 1.06 5.793 5.793 0 0 1-2.144 3.246 5.68 5.68 0 0 1-3.424 1.138 5.692 5.692 0 0 1-2.162-.423Zm-3.908 11.859c-.035.026-2.62 2.135-4.191 5.506a5.847 5.847 0 0 1-1.676-.6c1.729-3.83 4.623-6.168 4.764-6.283a.884.884 0 0 1 1.244.132c.3.389.239.936-.141 1.245Z"/><rect width="109.286" height="30" x="142.857" y="159" fill="#05070F" rx="7.143"/><path fill="#fff" d="M170.216 179.429h-2.009l3.658-10.39h2.324l3.662 10.39h-2.009l-2.775-8.259h-.081l-2.77 8.259Zm.066-4.074h5.479v1.512h-5.479v-1.512Zm10.693-.492v4.566h-1.836v-7.793h1.755v1.324h.091c.179-.436.465-.782.858-1.04.395-.257.884-.385 1.466-.385.537 0 1.006.115 1.405.345.402.23.714.563.933.999.224.437.333.966.33 1.588v4.962h-1.836v-4.678c0-.521-.136-.928-.406-1.222-.267-.295-.638-.442-1.111-.442-.321 0-.607.071-.858.213-.246.139-.441.34-.583.604-.139.264-.208.583-.208.959Zm9.111 4.723c-.494 0-.938-.088-1.334-.264a2.178 2.178 0 0 1-.933-.791c-.227-.349-.34-.778-.34-1.289 0-.44.081-.803.243-1.091.163-.287.384-.517.665-.69.281-.172.597-.302.948-.39a7.864 7.864 0 0 1 1.101-.198c.457-.047.827-.09 1.111-.127.284-.04.491-.101.619-.182.132-.085.198-.215.198-.391v-.031c0-.382-.113-.678-.34-.887-.226-.21-.553-.315-.979-.315-.45 0-.807.098-1.07.294a1.46 1.46 0 0 0-.528.695l-1.715-.243c.136-.474.359-.869.67-1.187a2.921 2.921 0 0 1 1.141-.721c.45-.162.947-.243 1.492-.243.375 0 .749.044 1.121.132.372.088.712.233 1.02.436.308.2.554.472.74.817.19.345.285.776.285 1.293v5.216h-1.766v-1.071h-.061a2.216 2.216 0 0 1-1.227 1.06 3.04 3.04 0 0 1-1.061.168Zm.477-1.35c.369 0 .688-.072.959-.218.271-.149.478-.345.624-.588.149-.244.223-.509.223-.797v-.918a.869.869 0 0 1-.294.132 4.192 4.192 0 0 1-.457.107c-.169.03-.336.057-.502.081l-.431.061a3.236 3.236 0 0 0-.736.182 1.228 1.228 0 0 0-.512.355c-.125.149-.188.342-.188.579 0 .338.124.593.371.766.246.172.561.258.943.258Zm7.321-9.197v10.39h-1.837v-10.39h1.837Zm3.029 13.312a3.77 3.77 0 0 1-.695-.061 2.548 2.548 0 0 1-.502-.132l.426-1.431c.268.078.506.115.716.112a.874.874 0 0 0 .553-.198c.162-.125.299-.335.411-.629l.157-.421-2.826-7.955h1.948l1.796 5.885h.081l1.801-5.885h1.953l-3.12 8.736a3.483 3.483 0 0 1-.578 1.06c-.24.298-.534.525-.883.68-.345.159-.757.239-1.238.239Zm13.249-8.655-1.674.183a1.366 1.366 0 0 0-.249-.477 1.231 1.231 0 0 0-.467-.36 1.688 1.688 0 0 0-.72-.137c-.382 0-.704.083-.964.248-.257.166-.384.381-.38.645a.671.671 0 0 0 .248.552c.173.143.457.259.852.351l1.33.284c.737.159 1.285.411 1.643.755.362.345.545.797.548 1.355a2.12 2.12 0 0 1-.431 1.299c-.281.372-.671.663-1.172.872-.501.21-1.075.315-1.725.315-.954 0-1.721-.2-2.303-.599-.582-.402-.928-.962-1.04-1.679l1.791-.173c.081.352.253.618.517.797.264.179.607.269 1.03.269.436 0 .786-.09 1.05-.269.267-.179.401-.401.401-.665a.692.692 0 0 0-.259-.553c-.169-.145-.433-.257-.791-.334l-1.329-.279c-.748-.156-1.301-.418-1.659-.787-.359-.372-.536-.842-.533-1.41-.003-.48.127-.896.391-1.248.267-.355.637-.629 1.111-.822.477-.196 1.026-.294 1.649-.294.913 0 1.631.194 2.156.583.527.389.854.915.979 1.578Zm1.681 5.733v-7.793h1.837v7.793h-1.837Zm.924-8.899a1.07 1.07 0 0 1-.751-.289.93.93 0 0 1-.315-.705c0-.277.105-.512.315-.705.21-.196.46-.294.751-.294.294 0 .544.098.751.294a.924.924 0 0 1 .314.705.933.933 0 0 1-.314.705 1.06 1.06 0 0 1-.751.289Zm8.96 3.166-1.674.183a1.334 1.334 0 0 0-.249-.477 1.228 1.228 0 0 0-.466-.36 1.696 1.696 0 0 0-.721-.137c-.382 0-.703.083-.964.248-.257.166-.384.381-.38.645a.671.671 0 0 0 .248.552c.173.143.457.259.853.351l1.329.284c.737.159 1.285.411 1.644.755.361.345.544.797.547 1.355a2.12 2.12 0 0 1-.431 1.299c-.281.372-.671.663-1.172.872-.5.21-1.075.315-1.725.315-.953 0-1.721-.2-2.303-.599-.581-.402-.928-.962-1.04-1.679l1.791-.173c.081.352.254.618.518.797.263.179.607.269 1.029.269.437 0 .787-.09 1.051-.269.267-.179.4-.401.4-.665a.694.694 0 0 0-.258-.553c-.17-.145-.433-.257-.792-.334l-1.329-.279c-.747-.156-1.3-.418-1.659-.787-.358-.372-.536-.842-.533-1.41-.003-.48.127-.896.391-1.248.267-.355.638-.629 1.111-.822.477-.196 1.027-.294 1.649-.294.913 0 1.632.194 2.156.583.527.389.854.915.979 1.578Z"/><g filter="url(#a)"><rect width="110" height="93" x="3" y="256" fill="#DDFFD9" rx="10"/></g><path fill="#292B2E" d="M36.3 319v-8.727h3.111c.68 0 1.242.123 1.688.37.446.248.78.586 1.001 1.015.222.426.333.906.333 1.44 0 .537-.112 1.02-.337 1.449a2.436 2.436 0 0 1-1.006 1.014c-.446.247-1.007.371-1.683.371h-2.14v-1.117h2.02c.43 0 .778-.074 1.045-.221.267-.151.463-.355.588-.614.125-.258.187-.552.187-.882 0-.33-.062-.622-.187-.878a1.344 1.344 0 0 0-.592-.601c-.268-.145-.62-.217-1.057-.217h-1.654V319h-1.316Zm10.25.132c-.614 0-1.15-.141-1.607-.422a2.84 2.84 0 0 1-1.066-1.18c-.253-.506-.379-1.097-.379-1.773 0-.679.127-1.273.38-1.781a2.836 2.836 0 0 1 1.065-1.185c.457-.281.992-.422 1.606-.422.614 0 1.15.141 1.607.422.457.281.812.676 1.065 1.185.253.508.38 1.102.38 1.781 0 .676-.127 1.267-.38 1.773a2.84 2.84 0 0 1-1.065 1.18c-.458.281-.993.422-1.607.422Zm.003-1.07c.398 0 .728-.105.99-.315.26-.21.454-.49.579-.839.127-.35.191-.735.191-1.155 0-.418-.064-.801-.191-1.151a1.876 1.876 0 0 0-.58-.848c-.261-.213-.59-.319-.989-.319-.4 0-.732.106-.997.319a1.905 1.905 0 0 0-.584.848c-.125.35-.187.733-.187 1.151 0 .42.063.805.188 1.155.127.349.322.629.583.839.265.21.597.315.997.315Zm9.374-4.009-1.154.204a1.37 1.37 0 0 0-.23-.422 1.14 1.14 0 0 0-.418-.328 1.515 1.515 0 0 0-.66-.128c-.362 0-.663.081-.904.243-.242.159-.362.365-.362.618a.65.65 0 0 0 .243.528c.161.134.423.243.784.329l1.04.238c.602.139 1.05.354 1.346.644.295.289.443.666.443 1.129 0 .392-.113.741-.34 1.048-.225.304-.539.543-.943.716-.4.173-.864.26-1.393.26-.733 0-1.33-.156-1.794-.469-.463-.315-.747-.762-.852-1.342l1.231-.187c.077.321.235.563.473.728.239.162.55.243.934.243.417 0 .751-.087 1.001-.26.25-.176.375-.39.375-.643a.669.669 0 0 0-.23-.516c-.15-.139-.382-.244-.695-.315l-1.108-.243c-.61-.139-1.062-.361-1.355-.665-.29-.304-.434-.689-.434-1.155 0-.386.108-.724.323-1.014a2.12 2.12 0 0 1 .895-.678 3.28 3.28 0 0 1 1.309-.247c.707 0 1.264.154 1.67.461.406.304.675.711.805 1.223Zm1.53 4.947v-6.545h1.273V319h-1.274Zm.643-7.555a.81.81 0 0 1-.571-.222.722.722 0 0 1-.235-.537.71.71 0 0 1 .235-.537.803.803 0 0 1 .57-.226.79.79 0 0 1 .567.226c.16.148.239.327.239.537 0 .207-.08.386-.239.537a.794.794 0 0 1-.566.222Zm5.4 1.01v1.022h-3.575v-1.022H63.5Zm-2.617-1.569h1.274v6.192c0 .247.037.433.111.558a.578.578 0 0 0 .286.252c.12.042.248.064.388.064.102 0 .191-.007.268-.022l.179-.034.23 1.053a2.526 2.526 0 0 1-.827.136 2.239 2.239 0 0 1-.937-.179 1.61 1.61 0 0 1-.703-.579c-.18-.262-.269-.59-.269-.985v-6.456ZM64.91 319v-6.545h1.274V319H64.91Zm.644-7.555a.81.81 0 0 1-.571-.222.722.722 0 0 1-.235-.537c0-.21.079-.389.235-.537a.804.804 0 0 1 .57-.226.79.79 0 0 1 .567.226c.16.148.24.327.24.537 0 .207-.08.386-.24.537a.794.794 0 0 1-.566.222Zm7.944 1.01L71.123 319H69.76l-2.378-6.545h1.368l1.657 5.036h.069l1.653-5.036h1.368Zm3.796 6.677c-.645 0-1.2-.138-1.666-.413a2.807 2.807 0 0 1-1.074-1.172c-.25-.506-.375-1.098-.375-1.777 0-.671.125-1.261.375-1.773.253-.511.605-.91 1.057-1.197.454-.287.985-.431 1.593-.431.37 0 .728.061 1.074.184.347.122.658.313.933.575.276.261.493.601.652 1.018.16.415.239.919.239 1.513v.452h-5.203v-.955h3.955c0-.335-.069-.632-.205-.89a1.54 1.54 0 0 0-.575-.618 1.604 1.604 0 0 0-.861-.226c-.358 0-.67.088-.938.264a1.774 1.774 0 0 0-.613.682 1.967 1.967 0 0 0-.213.908v.745c0 .438.076.81.23 1.117.156.307.373.541.652.703.278.159.603.239.976.239.241 0 .461-.035.66-.103a1.366 1.366 0 0 0 .848-.831l1.206.218c-.096.355-.27.666-.52.933-.247.264-.558.47-.933.618a3.49 3.49 0 0 1-1.274.217Zm-45.39 9.921-1.154.204a1.371 1.371 0 0 0-.23-.422 1.142 1.142 0 0 0-.418-.328 1.516 1.516 0 0 0-.66-.128c-.36 0-.662.081-.903.243-.242.159-.363.365-.363.618a.65.65 0 0 0 .243.528c.162.134.423.243.784.329l1.04.238c.602.139 1.051.354 1.347.644.295.289.443.666.443 1.129 0 .392-.114.741-.341 1.048-.225.304-.538.543-.942.716-.4.173-.865.26-1.393.26-.733 0-1.331-.156-1.794-.469-.463-.315-.748-.762-.853-1.342l1.232-.187c.077.321.234.563.473.728.238.162.55.243.933.243.418 0 .752-.087 1.002-.26.25-.176.375-.39.375-.643a.669.669 0 0 0-.23-.516c-.151-.139-.383-.244-.695-.315l-1.108-.243c-.61-.139-1.063-.361-1.355-.665-.29-.304-.435-.689-.435-1.155 0-.386.108-.724.324-1.014a2.12 2.12 0 0 1 .895-.678c.38-.164.817-.247 1.308-.247.707 0 1.264.154 1.67.461.407.304.675.711.806 1.223Zm4.35 5.079c-.644 0-1.2-.138-1.666-.413a2.807 2.807 0 0 1-1.073-1.172c-.25-.506-.375-1.098-.375-1.777 0-.671.125-1.261.375-1.773a2.91 2.91 0 0 1 1.056-1.197c.455-.287.986-.431 1.594-.431.37 0 .727.061 1.074.184.347.122.658.313.933.575.276.261.493.601.652 1.018.16.415.239.919.239 1.513v.452H33.86v-.955h3.954c0-.335-.068-.632-.204-.89a1.539 1.539 0 0 0-.575-.618 1.604 1.604 0 0 0-.861-.226c-.358 0-.67.088-.938.264a1.774 1.774 0 0 0-.613.682 1.968 1.968 0 0 0-.213.908v.745c0 .438.076.81.23 1.117.156.307.373.541.652.703.278.159.603.239.976.239.241 0 .461-.035.66-.103a1.366 1.366 0 0 0 .848-.831l1.206.218c-.097.355-.27.666-.52.933-.247.264-.558.47-.933.618a3.49 3.49 0 0 1-1.274.217Zm5.497-4.018V334h-1.274v-6.545H41.7v1.065h.08c.151-.347.387-.625.708-.835.324-.211.732-.316 1.223-.316.446 0 .837.094 1.172.282.335.184.595.46.78.826.184.367.277.82.277 1.36V334h-1.274v-4.01c0-.474-.124-.845-.371-1.112-.247-.27-.587-.405-1.019-.405-.295 0-.558.064-.788.192a1.38 1.38 0 0 0-.541.562c-.13.245-.196.54-.196.887Zm8.953-2.659v1.022h-3.575v-1.022h3.575Zm-2.617-1.569h1.275v6.192c0 .247.037.433.11.558a.578.578 0 0 0 .286.252c.12.042.248.064.388.064.102 0 .191-.007.268-.022a7.57 7.57 0 0 0 .18-.034l.23 1.053a2.525 2.525 0 0 1-.827.136 2.238 2.238 0 0 1-.938-.179 1.61 1.61 0 0 1-.703-.579c-.179-.262-.268-.59-.268-.985v-6.456ZM52.112 334v-6.545h1.274V334h-1.274Zm.644-7.555a.81.81 0 0 1-.571-.222.722.722 0 0 1-.235-.537c0-.21.079-.389.235-.537a.804.804 0 0 1 .57-.226.79.79 0 0 1 .568.226.706.706 0 0 1 .238.537.72.72 0 0 1-.238.537.794.794 0 0 1-.567.222ZM55.1 334v-6.545h1.223v1.065h.08c.137-.361.36-.642.67-.844.31-.204.68-.307 1.112-.307.437 0 .804.103 1.1.307.298.205.518.486.66.844h.068c.156-.35.405-.628.746-.835.34-.211.747-.316 1.218-.316.594 0 1.079.186 1.454.559.377.372.566.933.566 1.683V334h-1.274v-4.27c0-.443-.12-.764-.362-.963a1.316 1.316 0 0 0-.865-.298c-.415 0-.737.128-.967.383-.23.253-.346.578-.346.976V334h-1.27v-4.351c0-.355-.11-.64-.332-.856-.221-.216-.51-.324-.865-.324a1.24 1.24 0 0 0-.669.192 1.403 1.403 0 0 0-.49.524 1.602 1.602 0 0 0-.183.779V334H55.1Zm13.426.132c-.645 0-1.2-.138-1.666-.413a2.807 2.807 0 0 1-1.074-1.172c-.25-.506-.375-1.098-.375-1.777 0-.671.125-1.261.375-1.773.253-.511.605-.91 1.057-1.197.455-.287.986-.431 1.594-.431.369 0 .727.061 1.073.184.347.122.658.313.934.575.275.261.493.601.652 1.018.159.415.238.919.238 1.513v.452h-5.203v-.955h3.955a1.87 1.87 0 0 0-.205-.89 1.54 1.54 0 0 0-.575-.618 1.604 1.604 0 0 0-.86-.226c-.359 0-.671.088-.938.264a1.774 1.774 0 0 0-.614.682 1.967 1.967 0 0 0-.213.908v.745c0 .438.077.81.23 1.117.156.307.374.541.652.703.279.159.604.239.976.239.241 0 .462-.035.66-.103a1.366 1.366 0 0 0 .848-.831l1.206.218c-.096.355-.27.666-.52.933-.247.264-.558.47-.933.618a3.49 3.49 0 0 1-1.274.217Zm5.496-4.018V334H72.75v-6.545h1.223v1.065h.081c.15-.347.386-.625.707-.835.324-.211.732-.316 1.224-.316.446 0 .836.094 1.171.282.336.184.596.46.78.826.185.367.277.82.277 1.36V334h-1.274v-4.01c0-.474-.124-.845-.37-1.112-.248-.27-.587-.405-1.02-.405-.295 0-.557.064-.788.192a1.38 1.38 0 0 0-.54.562c-.131.245-.197.54-.197.887Zm8.953-2.659v1.022H79.4v-1.022h3.575Zm-2.616-1.569h1.274v6.192c0 .247.037.433.11.558a.578.578 0 0 0 .286.252c.12.042.249.064.388.064.102 0 .192-.007.269-.022l.179-.034.23 1.053a2.527 2.527 0 0 1-.827.136 2.239 2.239 0 0 1-.938-.179 1.61 1.61 0 0 1-.703-.579c-.179-.262-.268-.59-.268-.985v-6.456Zm8.825 3.167-1.155.204a1.37 1.37 0 0 0-.23-.422 1.14 1.14 0 0 0-.417-.328 1.515 1.515 0 0 0-.66-.128c-.362 0-.663.081-.904.243-.242.159-.362.365-.362.618a.65.65 0 0 0 .242.528c.162.134.424.243.785.329l1.04.238c.602.139 1.05.354 1.346.644.295.289.443.666.443 1.129 0 .392-.114.741-.34 1.048-.225.304-.54.543-.943.716-.4.173-.865.26-1.393.26-.733 0-1.331-.156-1.794-.469-.463-.315-.747-.762-.852-1.342l1.231-.187c.077.321.235.563.473.728.239.162.55.243.933.243.418 0 .752-.087 1.002-.26.25-.176.375-.39.375-.643a.669.669 0 0 0-.23-.516c-.15-.139-.382-.244-.695-.315l-1.108-.243c-.61-.139-1.062-.361-1.355-.665-.29-.304-.435-.689-.435-1.155 0-.386.108-.724.324-1.014a2.12 2.12 0 0 1 .895-.678 3.28 3.28 0 0 1 1.308-.247c.708 0 1.264.154 1.67.461.407.304.675.711.806 1.223Z"/><path fill="#54E360" d="M68.607 273.393A14.902 14.902 0 0 0 58 269c-4.007 0-7.773 1.56-10.607 4.393A14.903 14.903 0 0 0 43 284c0 4.007 1.56 7.774 4.393 10.607A14.901 14.901 0 0 0 58 299c4.007 0 7.773-1.56 10.607-4.393A14.902 14.902 0 0 0 73 284c0-4.007-1.56-7.773-4.393-10.607Z"/><path fill="#E7F0EF" d="M65.944 278.053a2.743 2.743 0 0 0-1.953-.809 2.74 2.74 0 0 0-1.952.809l-6.035 6.035-2.042-2.041a2.746 2.746 0 0 0-1.953-.809c-.737 0-1.43.287-1.952.809a2.765 2.765 0 0 0 0 3.906l3.994 3.994a2.746 2.746 0 0 0 1.952.809c.738 0 1.432-.288 1.953-.809l7.988-7.988a2.765 2.765 0 0 0 0-3.906Z"/><g filter="url(#b)"><rect width="110" height="93" x="143" y="256" fill="#FFFBD9" rx="10"/></g><path fill="#292B2E" d="M185.015 310.273V319h-1.211l-4.436-6.401h-.081V319h-1.316v-8.727h1.218l4.441 6.409h.081v-6.409h1.304Zm4.639 8.859c-.645 0-1.2-.138-1.666-.413a2.808 2.808 0 0 1-1.074-1.172c-.25-.506-.375-1.098-.375-1.777 0-.671.125-1.261.375-1.773.253-.511.605-.91 1.057-1.197.454-.287.986-.431 1.594-.431.369 0 .727.061 1.073.184.347.122.658.313.934.575.275.261.493.601.652 1.018.159.415.238.919.238 1.513v.452h-5.203v-.955h3.955a1.87 1.87 0 0 0-.205-.89 1.537 1.537 0 0 0-.575-.618 1.603 1.603 0 0 0-.861-.226c-.358 0-.67.088-.937.264a1.769 1.769 0 0 0-.614.682 1.968 1.968 0 0 0-.213.908v.745c0 .438.077.81.23 1.117.156.307.374.541.652.703.278.159.604.239.976.239.241 0 .462-.035.66-.103a1.356 1.356 0 0 0 .848-.831l1.206.218a2.176 2.176 0 0 1-.519.933c-.248.264-.559.47-.934.618a3.49 3.49 0 0 1-1.274.217Zm8.368-2.846v-3.831h1.279V319h-1.253v-1.134h-.068c-.151.35-.392.641-.725.874-.329.23-.74.345-1.231.345-.421 0-.793-.092-1.117-.277a1.936 1.936 0 0 1-.758-.831c-.182-.366-.273-.819-.273-1.359v-4.163h1.274v4.009c0 .447.124.802.371 1.066s.568.396.963.396c.239 0 .476-.06.712-.179.238-.119.436-.3.592-.541.159-.242.237-.548.234-.92Zm6.046-3.831v1.022h-3.575v-1.022h3.575Zm-2.616-1.569h1.274v6.192c0 .247.037.433.111.558a.58.58 0 0 0 .285.252c.119.042.249.064.388.064.102 0 .192-.007.268-.022a6.69 6.69 0 0 0 .179-.034l.231 1.053a2.523 2.523 0 0 1-.827.136 2.242 2.242 0 0 1-.938-.179 1.614 1.614 0 0 1-.703-.579c-.179-.262-.268-.59-.268-.985v-6.456Zm4.026 8.114v-6.545h1.231v1.039h.068c.12-.352.33-.629.631-.831a1.809 1.809 0 0 1 1.031-.306 5.07 5.07 0 0 1 .541.029v1.219a2.312 2.312 0 0 0-.272-.047 2.597 2.597 0 0 0-.392-.03c-.301 0-.57.064-.806.192a1.423 1.423 0 0 0-.758 1.283V319h-1.274Zm6.451.145c-.414 0-.789-.077-1.125-.23a1.892 1.892 0 0 1-.797-.678c-.193-.295-.289-.657-.289-1.086 0-.37.071-.674.213-.912.142-.239.334-.428.575-.567a3.01 3.01 0 0 1 .81-.315c.298-.071.602-.125.912-.162l.954-.111c.244-.031.422-.081.533-.149.111-.069.166-.179.166-.333v-.03c0-.372-.105-.66-.315-.865-.208-.204-.517-.306-.929-.306-.429 0-.767.095-1.014.285-.245.188-.414.396-.508.626l-1.197-.272c.142-.398.349-.719.622-.963a2.53 2.53 0 0 1 .95-.537 3.703 3.703 0 0 1 1.13-.171c.261 0 .538.032.831.094.295.06.571.171.826.332.259.162.471.394.635.695.165.298.247.686.247 1.163V319h-1.244v-.895h-.051a1.798 1.798 0 0 1-.371.486 1.966 1.966 0 0 1-.635.396 2.463 2.463 0 0 1-.929.158Zm.277-1.023c.353 0 .654-.069.904-.209.253-.139.444-.321.575-.545.134-.227.2-.47.2-.729v-.844c-.045.046-.133.089-.264.128-.128.037-.274.07-.439.098l-.481.073-.392.051a3.135 3.135 0 0 0-.678.158c-.202.073-.364.18-.486.319-.119.137-.179.318-.179.546 0 .315.117.554.35.716.233.159.53.238.89.238Zm5.925-7.849V319h-1.274v-8.727h1.274Zm-46.227 18.78-1.155.204a1.367 1.367 0 0 0-.23-.422 1.133 1.133 0 0 0-.418-.328 1.513 1.513 0 0 0-.66-.128c-.361 0-.662.081-.904.243-.241.159-.362.365-.362.618a.65.65 0 0 0 .243.528c.162.134.423.243.784.329l1.04.238c.602.139 1.051.354 1.347.644.295.289.443.666.443 1.129 0 .392-.114.741-.341 1.048-.225.304-.538.543-.942.716-.4.173-.865.26-1.393.26-.733 0-1.331-.156-1.794-.469-.463-.315-.748-.762-.853-1.342l1.232-.187c.077.321.234.563.473.728.239.162.55.243.933.243.418 0 .752-.087 1.002-.26.25-.176.375-.39.375-.643a.667.667 0 0 0-.231-.516c-.15-.139-.382-.244-.694-.315l-1.108-.243c-.611-.139-1.063-.361-1.355-.665-.29-.304-.435-.689-.435-1.155 0-.386.108-.724.324-1.014.216-.29.514-.516.895-.678a3.28 3.28 0 0 1 1.308-.247c.707 0 1.264.154 1.671.461.406.304.674.711.805 1.223Zm4.35 5.079c-.645 0-1.201-.138-1.666-.413a2.802 2.802 0 0 1-1.074-1.172c-.25-.506-.375-1.098-.375-1.777 0-.671.125-1.261.375-1.773.253-.511.605-.91 1.056-1.197.455-.287.986-.431 1.594-.431.37 0 .728.061 1.074.184.347.122.658.313.933.575.276.261.493.601.652 1.018.159.415.239.919.239 1.513v.452h-5.203v-.955h3.954c0-.335-.068-.632-.204-.89a1.544 1.544 0 0 0-.575-.618 1.607 1.607 0 0 0-.861-.226c-.358 0-.671.088-.938.264a1.774 1.774 0 0 0-.613.682 1.968 1.968 0 0 0-.213.908v.745c0 .438.076.81.23 1.117.156.307.373.541.652.703.278.159.603.239.976.239.241 0 .461-.035.66-.103a1.368 1.368 0 0 0 .848-.831l1.206.218c-.097.355-.27.666-.52.933-.247.264-.558.47-.933.618a3.49 3.49 0 0 1-1.274.217Zm5.496-4.018V334h-1.274v-6.545h1.223v1.065h.081c.15-.347.386-.625.707-.835.324-.211.732-.316 1.223-.316.446 0 .837.094 1.172.282.335.184.595.46.78.826.184.367.277.82.277 1.36V334h-1.274v-4.01c0-.474-.124-.845-.371-1.112-.247-.27-.587-.405-1.019-.405-.295 0-.558.064-.788.192a1.378 1.378 0 0 0-.541.562c-.131.245-.196.54-.196.887Zm8.953-2.659v1.022h-3.575v-1.022h3.575Zm-2.617-1.569h1.275v6.192c0 .247.037.433.11.558a.577.577 0 0 0 .286.252c.119.042.249.064.388.064.102 0 .191-.007.268-.022a6.69 6.69 0 0 0 .179-.034l.23 1.053a2.523 2.523 0 0 1-.826.136 2.239 2.239 0 0 1-.938-.179 1.608 1.608 0 0 1-.703-.579c-.179-.262-.269-.59-.269-.985v-6.456Zm4.026 8.114v-6.545h1.275V334h-1.275Zm.644-7.555a.808.808 0 0 1-.571-.222.723.723 0 0 1-.235-.537c0-.21.079-.389.235-.537a.803.803 0 0 1 .571-.226c.221 0 .41.076.567.226a.706.706 0 0 1 .238.537.716.716 0 0 1-.238.537.797.797 0 0 1-.567.222Zm2.345 7.555v-6.545h1.223v1.065h.081c.136-.361.359-.642.669-.844.309-.204.68-.307 1.112-.307.437 0 .804.103 1.099.307.299.205.519.486.661.844h.068c.156-.35.405-.628.746-.835.341-.211.747-.316 1.219-.316.593 0 1.078.186 1.453.559.377.372.566.933.566 1.683V334h-1.274v-4.27c0-.443-.12-.764-.362-.963a1.316 1.316 0 0 0-.865-.298c-.415 0-.737.128-.967.383-.23.253-.346.578-.346.976V334h-1.269v-4.351c0-.355-.111-.64-.333-.856-.221-.216-.51-.324-.865-.324a1.24 1.24 0 0 0-.669.192 1.4 1.4 0 0 0-.49.524 1.604 1.604 0 0 0-.183.779V334h-1.274Zm13.426.132c-.645 0-1.2-.138-1.666-.413a2.808 2.808 0 0 1-1.074-1.172c-.25-.506-.375-1.098-.375-1.777 0-.671.125-1.261.375-1.773.253-.511.605-.91 1.057-1.197.454-.287.986-.431 1.594-.431.369 0 .727.061 1.074.184.346.122.657.313.933.575.275.261.493.601.652 1.018.159.415.238.919.238 1.513v.452h-5.203v-.955h3.955a1.87 1.87 0 0 0-.205-.89 1.537 1.537 0 0 0-.575-.618 1.603 1.603 0 0 0-.861-.226c-.358 0-.67.088-.937.264a1.769 1.769 0 0 0-.614.682 1.968 1.968 0 0 0-.213.908v.745c0 .438.077.81.23 1.117.156.307.374.541.652.703.279.159.604.239.976.239.241 0 .462-.035.66-.103a1.356 1.356 0 0 0 .848-.831l1.206.218a2.176 2.176 0 0 1-.519.933c-.248.264-.559.47-.934.618a3.49 3.49 0 0 1-1.274.217Zm5.496-4.018V334h-1.274v-6.545h1.223v1.065h.081c.151-.347.386-.625.707-.835.324-.211.732-.316 1.223-.316.447 0 .837.094 1.172.282.336.184.596.46.78.826.185.367.277.82.277 1.36V334h-1.274v-4.01c0-.474-.124-.845-.371-1.112-.247-.27-.586-.405-1.018-.405-.296 0-.558.064-.789.192a1.384 1.384 0 0 0-.541.562c-.13.245-.196.54-.196.887Zm8.953-2.659v1.022h-3.575v-1.022h3.575Zm-2.616-1.569h1.274v6.192c0 .247.037.433.111.558a.58.58 0 0 0 .285.252c.12.042.249.064.388.064.102 0 .192-.007.269-.022l.179-.034.23 1.053a2.516 2.516 0 0 1-.827.136 2.242 2.242 0 0 1-.938-.179 1.614 1.614 0 0 1-.703-.579c-.179-.262-.268-.59-.268-.985v-6.456Zm8.825 3.167-1.155.204a1.367 1.367 0 0 0-.23-.422 1.138 1.138 0 0 0-.417-.328 1.521 1.521 0 0 0-.661-.128c-.361 0-.662.081-.903.243-.242.159-.363.365-.363.618a.65.65 0 0 0 .243.528c.162.134.424.243.784.329l1.04.238c.603.139 1.051.354 1.347.644.295.289.443.666.443 1.129 0 .392-.114.741-.341 1.048-.224.304-.538.543-.942.716-.4.173-.865.26-1.393.26-.733 0-1.331-.156-1.794-.469-.463-.315-.747-.762-.852-1.342l1.231-.187c.077.321.234.563.473.728.239.162.55.243.933.243.418 0 .752-.087 1.002-.26.25-.176.375-.39.375-.643a.67.67 0 0 0-.23-.516c-.151-.139-.382-.244-.695-.315l-1.108-.243c-.611-.139-1.062-.361-1.355-.665-.29-.304-.435-.689-.435-1.155 0-.386.108-.724.324-1.014.216-.29.514-.516.895-.678a3.28 3.28 0 0 1 1.308-.247c.708 0 1.265.154 1.671.461.406.304.675.711.805 1.223Z"/><path fill="#FFCC67" d="M198 299c8.284 0 15-6.716 15-15 0-8.284-6.716-15-15-15-8.284 0-15 6.716-15 15 0 8.284 6.716 15 15 15Z"/><path fill="#fff" d="M189.797 282.489h16.406v2.812h-16.406v-2.812Z"/><g filter="url(#c)"><rect width="110" height="93" x="283" y="256" fill="#FFD9D9" rx="10"/></g><path fill="#292B2E" d="M320.345 310.273V319h-1.211l-4.436-6.401h-.081V319h-1.316v-8.727h1.218l4.441 6.409h.081v-6.409h1.304Zm4.639 8.859c-.645 0-1.2-.138-1.666-.413a2.808 2.808 0 0 1-1.074-1.172c-.25-.506-.375-1.098-.375-1.777 0-.671.125-1.261.375-1.773.253-.511.605-.91 1.057-1.197.455-.287.986-.431 1.594-.431.369 0 .727.061 1.074.184.346.122.657.313.933.575.275.261.493.601.652 1.018.159.415.238.919.238 1.513v.452h-5.203v-.955h3.955a1.87 1.87 0 0 0-.205-.89 1.537 1.537 0 0 0-.575-.618 1.603 1.603 0 0 0-.861-.226c-.358 0-.67.088-.937.264a1.777 1.777 0 0 0-.614.682 1.968 1.968 0 0 0-.213.908v.745c0 .438.077.81.23 1.117.156.307.374.541.652.703.279.159.604.239.976.239.241 0 .462-.035.66-.103a1.37 1.37 0 0 0 .849-.831l1.205.218a2.176 2.176 0 0 1-.519.933c-.248.264-.559.47-.934.618a3.49 3.49 0 0 1-1.274.217Zm6.966 2.459c-.519 0-.967-.068-1.342-.205a2.59 2.59 0 0 1-.912-.541 2.256 2.256 0 0 1-.528-.737l1.095-.452c.077.125.179.257.307.397.13.142.307.262.528.362.225.099.513.149.865.149.483 0 .882-.118 1.198-.354.315-.233.473-.605.473-1.116v-1.287h-.081a2.911 2.911 0 0 1-.333.464 1.789 1.789 0 0 1-.588.443c-.25.125-.575.188-.976.188-.517 0-.983-.121-1.397-.362-.412-.245-.739-.604-.98-1.078-.239-.478-.358-1.064-.358-1.76s.118-1.293.353-1.79c.239-.497.566-.878.98-1.142a2.55 2.55 0 0 1 1.411-.401c.406 0 .734.069.984.205.25.133.445.29.584.469.142.179.252.336.328.473h.094v-1.061h1.249v6.69c0 .562-.131 1.024-.392 1.385a2.309 2.309 0 0 1-1.062.801c-.443.173-.943.26-1.5.26Zm-.012-3.746c.366 0 .676-.085.929-.256.255-.173.449-.42.579-.741.134-.324.2-.712.2-1.163 0-.441-.065-.828-.196-1.164a1.726 1.726 0 0 0-.575-.784c-.253-.19-.565-.285-.937-.285-.384 0-.703.099-.959.298a1.8 1.8 0 0 0-.58.801 3.181 3.181 0 0 0-.191 1.134c0 .429.065.805.196 1.129.13.324.323.577.579.758.259.182.577.273.955.273Zm6.579 1.3c-.415 0-.79-.077-1.125-.23a1.892 1.892 0 0 1-.797-.678c-.193-.295-.289-.657-.289-1.086 0-.37.071-.674.213-.912.142-.239.333-.428.575-.567.241-.139.511-.244.81-.315.298-.071.602-.125.912-.162l.954-.111c.244-.031.422-.081.533-.149.111-.069.166-.179.166-.333v-.03c0-.372-.105-.66-.315-.865-.208-.204-.517-.306-.929-.306-.429 0-.767.095-1.015.285-.244.188-.413.396-.507.626l-1.197-.272c.142-.398.349-.719.622-.963a2.53 2.53 0 0 1 .95-.537 3.703 3.703 0 0 1 1.13-.171c.261 0 .538.032.831.094.295.06.571.171.826.332.259.162.47.394.635.695.165.298.247.686.247 1.163V319h-1.244v-.895h-.051a1.818 1.818 0 0 1-.371.486 1.966 1.966 0 0 1-.635.396 2.463 2.463 0 0 1-.929.158Zm.277-1.023c.352 0 .654-.069.904-.209a1.47 1.47 0 0 0 .575-.545c.133-.227.2-.47.2-.729v-.844c-.045.046-.133.089-.264.128-.128.037-.274.07-.439.098l-.481.073-.393.051a3.125 3.125 0 0 0-.677.158c-.202.073-.364.18-.486.319-.119.137-.179.318-.179.546 0 .315.117.554.35.716.233.159.529.238.89.238Zm7.706-5.667v1.022h-3.575v-1.022h3.575Zm-2.617-1.569h1.274v6.192c0 .247.037.433.111.558a.577.577 0 0 0 .286.252c.119.042.248.064.388.064.102 0 .191-.007.268-.022a7.57 7.57 0 0 0 .179-.034l.23 1.053a2.534 2.534 0 0 1-.827.136 2.237 2.237 0 0 1-.937-.179 1.608 1.608 0 0 1-.703-.579c-.179-.262-.269-.59-.269-.985v-6.456Zm4.026 8.114v-6.545h1.274V319h-1.274Zm.644-7.555a.808.808 0 0 1-.571-.222.72.72 0 0 1-.235-.537.71.71 0 0 1 .235-.537.803.803 0 0 1 .571-.226c.221 0 .41.076.566.226.16.148.239.327.239.537a.713.713 0 0 1-.239.537.793.793 0 0 1-.566.222Zm7.944 1.01L354.123 319h-1.363l-2.378-6.545h1.368l1.657 5.036h.069l1.653-5.036h1.368Zm3.796 6.677c-.645 0-1.2-.138-1.666-.413a2.808 2.808 0 0 1-1.074-1.172c-.25-.506-.375-1.098-.375-1.777 0-.671.125-1.261.375-1.773.253-.511.605-.91 1.057-1.197.454-.287.985-.431 1.593-.431.37 0 .728.061 1.074.184.347.122.658.313.933.575.276.261.493.601.652 1.018.159.415.239.919.239 1.513v.452h-5.203v-.955h3.954c0-.335-.068-.632-.204-.89a1.537 1.537 0 0 0-.575-.618 1.607 1.607 0 0 0-.861-.226c-.358 0-.671.088-.938.264a1.774 1.774 0 0 0-.613.682 1.968 1.968 0 0 0-.213.908v.745c0 .438.076.81.23 1.117.156.307.373.541.652.703.278.159.603.239.976.239.241 0 .461-.035.66-.103a1.368 1.368 0 0 0 .848-.831l1.206.218c-.097.355-.27.666-.52.933-.247.264-.558.47-.933.618a3.49 3.49 0 0 1-1.274.217Zm-48.389 9.921-1.155.204a1.367 1.367 0 0 0-.23-.422 1.133 1.133 0 0 0-.418-.328 1.513 1.513 0 0 0-.66-.128c-.361 0-.662.081-.904.243-.241.159-.362.365-.362.618a.65.65 0 0 0 .243.528c.162.134.423.243.784.329l1.04.238c.602.139 1.051.354 1.347.644.295.289.443.666.443 1.129 0 .392-.114.741-.341 1.048-.225.304-.538.543-.942.716-.4.173-.865.26-1.393.26-.733 0-1.331-.156-1.794-.469-.463-.315-.748-.762-.853-1.342l1.232-.187c.077.321.234.563.473.728.239.162.55.243.933.243.418 0 .752-.087 1.002-.26.25-.176.375-.39.375-.643a.667.667 0 0 0-.231-.516c-.15-.139-.382-.244-.694-.315l-1.108-.243c-.611-.139-1.063-.361-1.355-.665-.29-.304-.435-.689-.435-1.155 0-.386.108-.724.324-1.014.216-.29.514-.516.895-.678a3.28 3.28 0 0 1 1.308-.247c.707 0 1.264.154 1.671.461.406.304.674.711.805 1.223Zm4.35 5.079c-.645 0-1.201-.138-1.666-.413a2.802 2.802 0 0 1-1.074-1.172c-.25-.506-.375-1.098-.375-1.777 0-.671.125-1.261.375-1.773.253-.511.605-.91 1.056-1.197.455-.287.986-.431 1.594-.431.37 0 .728.061 1.074.184.347.122.658.313.933.575.276.261.493.601.652 1.018.159.415.239.919.239 1.513v.452h-5.203v-.955h3.954c0-.335-.068-.632-.204-.89a1.544 1.544 0 0 0-.575-.618 1.607 1.607 0 0 0-.861-.226c-.358 0-.671.088-.938.264a1.774 1.774 0 0 0-.613.682 1.968 1.968 0 0 0-.213.908v.745c0 .438.076.81.23 1.117.156.307.373.541.652.703.278.159.603.239.976.239.241 0 .461-.035.66-.103a1.368 1.368 0 0 0 .848-.831l1.206.218c-.097.355-.27.666-.52.933-.247.264-.558.47-.933.618a3.49 3.49 0 0 1-1.274.217Zm5.496-4.018V334h-1.274v-6.545h1.223v1.065h.081c.15-.347.386-.625.707-.835.324-.211.732-.316 1.223-.316.446 0 .837.094 1.172.282.335.184.595.46.78.826.184.367.277.82.277 1.36V334h-1.274v-4.01c0-.474-.124-.845-.371-1.112-.247-.27-.587-.405-1.019-.405-.295 0-.558.064-.788.192a1.378 1.378 0 0 0-.541.562c-.131.245-.196.54-.196.887Zm8.953-2.659v1.022h-3.575v-1.022h3.575Zm-2.617-1.569h1.275v6.192c0 .247.037.433.11.558a.577.577 0 0 0 .286.252c.119.042.249.064.388.064.102 0 .191-.007.268-.022a6.69 6.69 0 0 0 .179-.034l.23 1.053a2.523 2.523 0 0 1-.826.136 2.239 2.239 0 0 1-.938-.179 1.608 1.608 0 0 1-.703-.579c-.179-.262-.269-.59-.269-.985v-6.456Zm4.026 8.114v-6.545h1.275V334h-1.275Zm.644-7.555a.808.808 0 0 1-.571-.222.723.723 0 0 1-.235-.537c0-.21.079-.389.235-.537a.803.803 0 0 1 .571-.226c.221 0 .41.076.567.226a.706.706 0 0 1 .238.537.716.716 0 0 1-.238.537.797.797 0 0 1-.567.222Zm2.345 7.555v-6.545h1.223v1.065h.081c.136-.361.359-.642.669-.844.309-.204.68-.307 1.112-.307.437 0 .804.103 1.099.307.299.205.519.486.661.844h.068c.156-.35.405-.628.746-.835.341-.211.747-.316 1.219-.316.593 0 1.078.186 1.453.559.377.372.566.933.566 1.683V334h-1.274v-4.27c0-.443-.12-.764-.362-.963a1.316 1.316 0 0 0-.865-.298c-.415 0-.737.128-.967.383-.23.253-.346.578-.346.976V334h-1.269v-4.351c0-.355-.111-.64-.333-.856-.221-.216-.51-.324-.865-.324a1.24 1.24 0 0 0-.669.192 1.4 1.4 0 0 0-.49.524 1.604 1.604 0 0 0-.183.779V334h-1.274Zm13.426.132c-.645 0-1.2-.138-1.666-.413a2.808 2.808 0 0 1-1.074-1.172c-.25-.506-.375-1.098-.375-1.777 0-.671.125-1.261.375-1.773.253-.511.605-.91 1.057-1.197.454-.287.986-.431 1.594-.431.369 0 .727.061 1.074.184.346.122.657.313.933.575.275.261.493.601.652 1.018.159.415.238.919.238 1.513v.452h-5.203v-.955h3.955a1.87 1.87 0 0 0-.205-.89 1.537 1.537 0 0 0-.575-.618 1.603 1.603 0 0 0-.861-.226c-.358 0-.67.088-.937.264a1.769 1.769 0 0 0-.614.682 1.968 1.968 0 0 0-.213.908v.745c0 .438.077.81.23 1.117.156.307.374.541.652.703.279.159.604.239.976.239.241 0 .462-.035.66-.103a1.356 1.356 0 0 0 .848-.831l1.206.218a2.176 2.176 0 0 1-.519.933c-.248.264-.559.47-.934.618a3.49 3.49 0 0 1-1.274.217Zm5.496-4.018V334h-1.274v-6.545h1.223v1.065h.081c.151-.347.386-.625.707-.835.324-.211.732-.316 1.223-.316.447 0 .837.094 1.172.282.336.184.596.46.78.826.185.367.277.82.277 1.36V334h-1.274v-4.01c0-.474-.124-.845-.371-1.112-.247-.27-.586-.405-1.018-.405-.296 0-.558.064-.789.192a1.384 1.384 0 0 0-.541.562c-.13.245-.196.54-.196.887Zm8.953-2.659v1.022h-3.575v-1.022h3.575Zm-2.616-1.569h1.274v6.192c0 .247.037.433.111.558a.58.58 0 0 0 .285.252c.12.042.249.064.388.064.102 0 .192-.007.269-.022l.179-.034.23 1.053a2.516 2.516 0 0 1-.827.136 2.242 2.242 0 0 1-.938-.179 1.614 1.614 0 0 1-.703-.579c-.179-.262-.268-.59-.268-.985v-6.456Zm8.825 3.167-1.155.204a1.367 1.367 0 0 0-.23-.422 1.138 1.138 0 0 0-.417-.328 1.521 1.521 0 0 0-.661-.128c-.361 0-.662.081-.903.243-.242.159-.363.365-.363.618a.65.65 0 0 0 .243.528c.162.134.424.243.784.329l1.04.238c.603.139 1.051.354 1.347.644.295.289.443.666.443 1.129 0 .392-.114.741-.341 1.048-.224.304-.538.543-.942.716-.4.173-.865.26-1.393.26-.733 0-1.331-.156-1.794-.469-.463-.315-.747-.762-.852-1.342l1.231-.187c.077.321.234.563.473.728.239.162.55.243.933.243.418 0 .752-.087 1.002-.26.25-.176.375-.39.375-.643a.67.67 0 0 0-.23-.516c-.151-.139-.382-.244-.695-.315l-1.108-.243c-.611-.139-1.062-.361-1.355-.665-.29-.304-.435-.689-.435-1.155 0-.386.108-.724.324-1.014.216-.29.514-.516.895-.678a3.28 3.28 0 0 1 1.308-.247c.708 0 1.265.154 1.671.461.406.304.675.711.805 1.223Z"/><path fill="#EE404C" d="M338.48 299c8.285 0 15-6.716 15-15 0-8.284-6.715-15-15-15-8.284 0-15 6.716-15 15 0 8.284 6.716 15 15 15Z"/><path fill="#FFF7ED" d="M332.474 289.967a1.67 1.67 0 0 0 1.83.367 1.67 1.67 0 0 0 .543-.367l3.594-3.594 3.593 3.594a1.68 1.68 0 0 0 2.865-1.187c0-.445-.177-.872-.492-1.187L340.814 284l3.593-3.593a1.67 1.67 0 0 0 .492-1.187 1.683 1.683 0 0 0-1.036-1.551 1.686 1.686 0 0 0-1.829.364l-3.593 3.594-3.594-3.594a1.686 1.686 0 0 0-2.373 0 1.67 1.67 0 0 0-.492 1.187 1.683 1.683 0 0 0 .492 1.187l3.593 3.593-3.593 3.593a1.665 1.665 0 0 0-.367 1.83c.085.204.21.389.367.544Z"/><circle cx="38" cy="86" r="34.5" fill="#05070F" stroke="#22252F"/><path fill="#BEE7FA" d="M53 77.628v16.744A6.634 6.634 0 0 1 46.372 101H29.628A6.628 6.628 0 0 1 23 94.372V77.628A6.633 6.633 0 0 1 29.628 71h16.744A6.634 6.634 0 0 1 53 77.628Z"/><path fill="#62D8B6" d="M41.837 95.767V101h-12.21A6.628 6.628 0 0 1 23 94.372v-3.81l4.41-2.943a3.818 3.818 0 0 1 4.424.125l4.87 3.656 4.716 3.53a1.032 1.032 0 0 1 .418.837Z"/><path fill="#fff" d="M33.291 81.988a3.488 3.488 0 1 0 0-6.976 3.488 3.488 0 0 0 0 6.976Z"/><path fill="#4CC19D" d="M53 87.451v6.921A6.633 6.633 0 0 1 46.372 101H29.628a6.5 6.5 0 0 1-2.163-.363l15.349-15.349a3.822 3.822 0 0 1 4.423-.725L53 87.45Z"/><circle cx="358" cy="86" r="34.5" fill="#05070F" stroke="#22252F"/><path fill="#9255E3" d="M374.575 87.505 358.495 106c10.008 0 18.159-7.948 18.485-17.876a.602.602 0 0 0-.603-.62h-1.802Z"/><path fill="#14CFFF" d="M357.876 69.02c-7.44.244-13.767 4.884-16.472 11.405v7.08h17.091V69.623c0-.34-.28-.615-.619-.604Z"/><path fill="#3B88F5" d="M341.404 80.425a18.444 18.444 0 0 0-1.404 7.08c0 5.107 2.07 9.73 5.417 13.078h13.078V87.505l-17.091-7.08Z"/><path fill="#9255E3" d="m358.495 87.505-13.078 13.078A18.437 18.437 0 0 0 358.495 106c8.881 0 16.081-8.28 16.081-18.496h-16.081Z"/><path fill="#94E368" d="m361.832 66-.058.001 15.811 18.787h1.811c.34 0 .615-.28.604-.62-.32-9.889-8.279-17.848-18.168-18.168Z"/><path fill="#94E368" d="M361.774 66.001a.603.603 0 0 0-.562.603v17.58c0 .333.27.604.604.604h15.768v-.62c-.278-9.88-7.203-17.834-15.81-18.167Z"/><defs><filter id="a" width="115.511" height="98.511" x=".245" y="256" color-interpolation-filters="sRGB" filterUnits="userSpaceOnUse"><feFlood flood-opacity="0" result="BackgroundImageFix"/><feColorMatrix in="SourceAlpha" result="hardAlpha" values="0 0 0 0 0 0 0 0 0 0 0 0 0 0 0 0 0 0 127 0"/><feOffset dy="2.755"/><feGaussianBlur stdDeviation="1.378"/><feComposite in2="hardAlpha" operator="out"/><feColorMatrix values="0 0 0 0 0.0342361 0 0 0 0 0.0714236 0 0 0 0 0.141667 0 0 0 0.1 0"/><feBlend in2="BackgroundImageFix" result="effect1_dropShadow_251_349"/><feBlend in="SourceGraphic" in2="effect1_dropShadow_251_349" result="shape"/></filter><filter id="b" width="115.511" height="98.511" x="140.245" y="256" color-interpolation-filters="sRGB" filterUnits="userSpaceOnUse"><feFlood flood-opacity="0" result="BackgroundImageFix"/><feColorMatrix in="SourceAlpha" result="hardAlpha" values="0 0 0 0 0 0 0 0 0 0 0 0 0 0 0 0 0 0 127 0"/><feOffset dy="2.755"/><feGaussianBlur stdDeviation="1.378"/><feComposite in2="hardAlpha" operator="out"/><feColorMatrix values="0 0 0 0 0.0342361 0 0 0 0 0.0714236 0 0 0 0 0.141667 0 0 0 0.1 0"/><feBlend in2="BackgroundImageFix" result="effect1_dropShadow_251_349"/><feBlend in="SourceGraphic" in2="effect1_dropShadow_251_349" result="shape"/></filter><filter id="c" width="115.511" height="98.511" x="280.245" y="256" color-interpolation-filters="sRGB" filterUnits="userSpaceOnUse"><feFlood flood-opacity="0" result="BackgroundImageFix"/><feColorMatrix in="SourceAlpha" result="hardAlpha" values="0 0 0 0 0 0 0 0 0 0 0 0 0 0 0 0 0 0 127 0"/><feOffset dy="2.755"/><feGaussianBlur stdDeviation="1.378"/><feComposite in2="hardAlpha" operator="out"/><feColorMatrix values="0 0 0 0 0.0342361 0 0 0 0 0.0714236 0 0 0 0 0.141667 0 0 0 0.1 0"/><feBlend in2="BackgroundImageFix" result="effect1_dropShadow_251_349"/><feBlend in="SourceGraphic" in2="effect1_dropShadow_251_349" result="shape"/></filter></defs></svg>