<svg xmlns="http://www.w3.org/2000/svg" width="20" height="20" fill="none"><path fill="url(#a)" fill-rule="evenodd" d="M14.667 0c.31 0 .58.215.65.519l.369 1.622a2 2 0 0 0 1.506 1.507l1.622.369a.667.667 0 0 1 0 1.3l-1.622.369a2 2 0 0 0-1.506 1.506l-.37 1.623a.667.667 0 0 1-1.3 0l-.368-1.623a2 2 0 0 0-1.507-1.506l-1.622-.37a.667.667 0 0 1 0-1.3l1.622-.368a2 2 0 0 0 1.507-1.507l.369-1.622a.667.667 0 0 1 .65-.519Zm0 3.213a3.336 3.336 0 0 1-1.454 1.454 3.333 3.333 0 0 1 1.454 1.454 3.336 3.336 0 0 1 1.454-1.454 3.336 3.336 0 0 1-1.454-1.454Z" clip-rule="evenodd"/><path fill="url(#b)" fill-rule="evenodd" d="M10.73 7a1.833 1.833 0 1 0 0 3.667 1.833 1.833 0 0 0 0-3.667Zm-.54 1.833c0-.282.233-.527.54-.527.307 0 .54.245.54.527a.534.534 0 0 1-.54.528.534.534 0 0 1-.54-.528Z" clip-rule="evenodd"/><path fill="url(#c)" fill-rule="evenodd" d="M2.667 4h6.472a1.663 1.663 0 0 0 0 1.333H2.667c-.737 0-1.334.597-1.334 1.334v5.674a8.96 8.96 0 0 1 8.04 1.879A5.92 5.92 0 0 1 14 13.468v-3.274a1.662 1.662 0 0 0 1.333 0v7.139A2.667 2.667 0 0 1 12.667 20h-10A2.667 2.667 0 0 1 0 17.333V6.667A2.667 2.667 0 0 1 2.667 4Zm-1.334 9.697v3.636c0 .737.597 1.334 1.334 1.334h8.147c-1.288-3.865-5.345-6.08-9.304-4.994a.663.663 0 0 1-.177.024Zm10.876 4.97h.458c.736 0 1.333-.597 1.333-1.334v-2.48a4.611 4.611 0 0 0-3.653.338 9.073 9.073 0 0 1 1.862 3.476Z" clip-rule="evenodd"/><defs><linearGradient id="a" x1="14.48" x2="14.163" y1="0" y2="9.324" gradientUnits="userSpaceOnUse"><stop stop-color="#2A71F7"/><stop offset="1" stop-color="#092863"/></linearGradient><linearGradient id="b" x1="10.656" x2="10.532" y1="7" y2="10.663" gradientUnits="userSpaceOnUse"><stop stop-color="#2A71F7"/><stop offset="1" stop-color="#092863"/></linearGradient><linearGradient id="c" x1="7.36" x2="6.794" y1="4" y2="19.982" gradientUnits="userSpaceOnUse"><stop stop-color="#2A71F7"/><stop offset="1" stop-color="#092863"/></linearGradient></defs></svg>